%FSLAX25Y25*%
%MOIN*%
G70*
G01*
G75*
G04 Layer_Physical_Order=2*
G04 Layer_Color=16711680*
%ADD10C,0.01600*%
%ADD11C,0.05906*%
%ADD12R,0.05906X0.05906*%
%ADD13C,0.06000*%
%ADD14R,0.06000X0.06000*%
%ADD15C,0.04000*%
%ADD16R,0.03543X0.03740*%
%ADD17R,0.03740X0.03543*%
%ADD18O,0.08661X0.02362*%
%ADD19O,0.02362X0.08268*%
D10*
X206500Y94709D02*
Y98500D01*
X204000Y101000D02*
X206500Y98500D01*
X200449Y101000D02*
X204000D01*
X195449Y106000D02*
X200449Y101000D01*
X191000Y31000D02*
X211007D01*
X231500Y51493D02*
Y58291D01*
X211007Y31000D02*
X231500Y51493D01*
X177500Y17500D02*
X191000Y31000D01*
X172000Y13000D02*
X177500Y7500D01*
X172000Y13000D02*
Y19500D01*
X275000Y48500D02*
Y72500D01*
X264551Y38051D02*
X275000Y48500D01*
X234500Y38051D02*
X264551D01*
X274449Y89000D02*
X285500D01*
X287000Y87500D01*
Y56000D02*
Y87500D01*
X256500Y25500D02*
X287000Y56000D01*
X234500Y25500D02*
X256500D01*
X233092Y22100D02*
X257100D01*
X229692Y25500D02*
X233092Y22100D01*
X224500Y25500D02*
X229692D01*
X224500Y38051D02*
X234500D01*
Y25500D02*
Y31949D01*
X224500Y25500D02*
Y31949D01*
X257100Y22100D02*
X289500Y54500D01*
Y91000D01*
X286500Y94000D02*
X289500Y91000D01*
X274449Y94000D02*
X286500D01*
X247000D02*
X255551D01*
X243500Y89000D02*
X255551D01*
X234449Y98051D02*
X243500Y89000D01*
X234449Y98051D02*
Y113000D01*
X240551Y107949D02*
X247750Y100750D01*
X231500Y84500D02*
Y94709D01*
X274449Y84000D02*
X283500D01*
X275000Y72500D02*
Y78449D01*
X258000Y120949D02*
X270500D01*
X258000Y112500D02*
Y120949D01*
X240551Y107949D02*
Y113000D01*
X251449Y120500D02*
X258000Y127051D01*
X240551Y120500D02*
X251449D01*
X265000Y99507D02*
X280000Y114507D01*
Y129500D01*
X277000Y132500D02*
X280000Y129500D01*
X238949Y132500D02*
X277000D01*
X234449Y128000D02*
X238949Y132500D01*
X258000Y127051D02*
X270500D01*
X257051Y128000D02*
X258000Y127051D01*
X240551Y128000D02*
X257051D01*
X157500Y17500D02*
Y40000D01*
X187500Y70000D01*
X223000D01*
X226500Y66500D01*
Y58291D02*
Y66500D01*
X172000Y19500D02*
X189500Y37000D01*
X211500D01*
X221500Y47000D01*
Y58291D01*
X157500Y7500D02*
X162500Y12500D01*
Y23000D01*
X179500Y40000D01*
X209500D01*
X216500Y47000D01*
Y58291D01*
X186125Y123000D02*
X191625Y117500D01*
X165551Y123000D02*
X186125D01*
X221500Y94709D02*
Y102000D01*
X217500Y106000D02*
X221500Y102000D01*
X201551Y106000D02*
X217500D01*
X159449Y123000D02*
X178000Y104449D01*
X159349Y123100D02*
X159449Y123000D01*
X226500Y87500D02*
Y94709D01*
X221500Y82500D02*
X226500Y87500D01*
X182000Y82500D02*
X221500D01*
X178000Y86500D02*
X182000Y82500D01*
X178000Y86500D02*
Y104449D01*
X132500Y123100D02*
X159349D01*
X191625Y117500D02*
X195449Y113676D01*
Y106000D02*
Y113676D01*
X188500Y106000D02*
X192500D01*
X186500Y104000D02*
X188500Y106000D01*
X186500Y94709D02*
Y104000D01*
X191500Y94709D02*
Y105000D01*
X192500Y106000D01*
X195449D01*
X211500Y51000D02*
Y58291D01*
X209000Y48500D02*
X211500Y51000D01*
X188500Y48500D02*
X209000D01*
X186500D02*
X188500D01*
X191500Y51500D01*
Y58291D01*
X194000Y49000D02*
X196500Y51500D01*
Y58291D01*
X186500Y48500D02*
Y58291D01*
X255551Y79000D02*
X262000D01*
X265000Y82000D01*
Y99507D01*
X255551Y84000D02*
X261000D01*
X262500Y85500D01*
Y96673D01*
X243001Y116172D02*
X262500Y96673D01*
X238777Y116172D02*
X243001D01*
X234449Y120500D02*
X238777Y116172D01*
X208740Y112500D02*
X233949D01*
X207272Y113967D02*
X208740Y112500D01*
X207272Y113967D02*
Y118008D01*
X202134Y123147D02*
X207272Y118008D01*
X197272Y123147D02*
X202134D01*
X192920Y127500D02*
X197272Y123147D01*
X191625Y127500D02*
X192920D01*
X232449Y122500D02*
X234449Y120500D01*
X207500Y122500D02*
X232449D01*
X202500Y127500D02*
X207500Y122500D01*
X201625Y127500D02*
X202500D01*
X211625D02*
X233949D01*
D11*
X191625D02*
D03*
Y117500D02*
D03*
X201625Y127500D02*
D03*
Y117500D02*
D03*
X211625Y127500D02*
D03*
D12*
Y117500D02*
D03*
D13*
X87500Y17500D02*
D03*
Y7500D02*
D03*
X177500Y17500D02*
D03*
X187500Y7500D02*
D03*
X177500D02*
D03*
X287500D02*
D03*
X297500Y17500D02*
D03*
X257500Y7500D02*
D03*
X187500Y17500D02*
D03*
X197500Y7500D02*
D03*
X167500Y17500D02*
D03*
X97500D02*
D03*
Y7500D02*
D03*
X227500Y17500D02*
D03*
Y7500D02*
D03*
X237500D02*
D03*
X247500D02*
D03*
X237500Y17500D02*
D03*
X247500D02*
D03*
X257500D02*
D03*
X267500D02*
D03*
Y7500D02*
D03*
X277500Y17500D02*
D03*
Y7500D02*
D03*
X287500Y17500D02*
D03*
X297500Y7500D02*
D03*
X217500Y17500D02*
D03*
Y7500D02*
D03*
X207500D02*
D03*
Y17500D02*
D03*
X117500D02*
D03*
X107500D02*
D03*
Y7500D02*
D03*
X117500D02*
D03*
X197500Y17500D02*
D03*
X157500D02*
D03*
X137500Y7500D02*
D03*
X167500D02*
D03*
X127500Y17500D02*
D03*
X137500D02*
D03*
X127500Y7500D02*
D03*
X147500D02*
D03*
Y17500D02*
D03*
X157500Y7500D02*
D03*
X77500Y17500D02*
D03*
X132500Y123100D02*
D03*
Y44400D02*
D03*
D14*
X77500Y7500D02*
D03*
D15*
X234500Y25500D02*
D03*
X224500D02*
D03*
X247000Y94000D02*
D03*
X247750Y100750D02*
D03*
X231500Y84500D02*
D03*
X283500Y84000D02*
D03*
X275000Y72500D02*
D03*
X258000Y113000D02*
D03*
X251449Y120500D02*
D03*
X186500Y48500D02*
D03*
D16*
X258000Y120949D02*
D03*
Y127051D02*
D03*
X270500Y120949D02*
D03*
Y127051D02*
D03*
X224500Y38051D02*
D03*
Y31949D02*
D03*
X234500Y38051D02*
D03*
Y31949D02*
D03*
D17*
X195449Y106000D02*
D03*
X201551D02*
D03*
X165551Y123000D02*
D03*
X159449D02*
D03*
X240551Y128000D02*
D03*
X234449D02*
D03*
X240551Y120500D02*
D03*
X234449D02*
D03*
X240551Y113000D02*
D03*
X234449D02*
D03*
D18*
X255551Y79000D02*
D03*
Y84000D02*
D03*
Y89000D02*
D03*
Y94000D02*
D03*
X274449Y79000D02*
D03*
Y84000D02*
D03*
Y89000D02*
D03*
Y94000D02*
D03*
D19*
X186500Y94709D02*
D03*
X191500D02*
D03*
X196500D02*
D03*
X201500D02*
D03*
X206500D02*
D03*
X211500D02*
D03*
X216500D02*
D03*
X221500D02*
D03*
X226500D02*
D03*
X231500D02*
D03*
X186500Y58291D02*
D03*
X191500D02*
D03*
X196500D02*
D03*
X201500D02*
D03*
X206500D02*
D03*
X211500D02*
D03*
X216500D02*
D03*
X221500D02*
D03*
X226500D02*
D03*
X231500D02*
D03*
M02*
