%FSLAX25Y25*%
%MOIN*%
G70*
G01*
G75*
G04 Layer_Physical_Order=1*
G04 Layer_Color=255*
%ADD10C,0.01600*%
%ADD11C,0.05906*%
%ADD12R,0.05906X0.05906*%
%ADD13C,0.06000*%
%ADD14R,0.06000X0.06000*%
%ADD15C,0.04000*%
G36*
X302500Y130000D02*
Y5000D01*
X300000Y2500D01*
X75000D01*
X74462Y3038D01*
X74653Y3500D01*
X77100D01*
Y7100D01*
X73500D01*
Y4653D01*
X73038Y4462D01*
X72500Y5000D01*
Y75000D01*
X75000Y77500D01*
X77500D01*
X82500Y82500D01*
Y130000D01*
X85000Y132500D01*
X300000D01*
X302500Y130000D01*
D02*
G37*
%LPC*%
G36*
X297100Y17100D02*
X293518D01*
X293603Y16456D01*
X294006Y15483D01*
X294647Y14647D01*
X295483Y14006D01*
X296456Y13603D01*
X297100Y13518D01*
Y17100D01*
D02*
G37*
G36*
X291482D02*
X287900D01*
Y13518D01*
X288544Y13603D01*
X289517Y14006D01*
X290353Y14647D01*
X290994Y15483D01*
X291397Y16456D01*
X291482Y17100D01*
D02*
G37*
G36*
X301482D02*
X297900D01*
Y13518D01*
X298544Y13603D01*
X299517Y14006D01*
X300353Y14647D01*
X300994Y15483D01*
X301397Y16456D01*
X301482Y17100D01*
D02*
G37*
G36*
X107500Y21131D02*
X106560Y21007D01*
X105684Y20645D01*
X104932Y20067D01*
X104355Y19316D01*
X103993Y18440D01*
X103869Y17500D01*
X103993Y16560D01*
X104355Y15685D01*
X104932Y14932D01*
X105684Y14355D01*
X106560Y13993D01*
X107500Y13869D01*
X108440Y13993D01*
X109316Y14355D01*
X110068Y14932D01*
X110645Y15685D01*
X111007Y16560D01*
X111131Y17500D01*
X111007Y18440D01*
X110645Y19316D01*
X110068Y20067D01*
X109316Y20645D01*
X108440Y21007D01*
X107500Y21131D01*
D02*
G37*
G36*
X97500D02*
X96560Y21007D01*
X95684Y20645D01*
X94932Y20067D01*
X94355Y19316D01*
X93993Y18440D01*
X93869Y17500D01*
X93993Y16560D01*
X94355Y15685D01*
X94932Y14932D01*
X95684Y14355D01*
X96560Y13993D01*
X97500Y13869D01*
X98440Y13993D01*
X99316Y14355D01*
X100068Y14932D01*
X100645Y15685D01*
X101007Y16560D01*
X101131Y17500D01*
X101007Y18440D01*
X100645Y19316D01*
X100068Y20067D01*
X99316Y20645D01*
X98440Y21007D01*
X97500Y21131D01*
D02*
G37*
G36*
X297900Y11482D02*
Y7900D01*
X301482D01*
X301397Y8544D01*
X300994Y9517D01*
X300353Y10353D01*
X299517Y10994D01*
X298544Y11397D01*
X297900Y11482D01*
D02*
G37*
G36*
X297100D02*
X296456Y11397D01*
X295483Y10994D01*
X294647Y10353D01*
X294006Y9517D01*
X293603Y8544D01*
X293518Y7900D01*
X297100D01*
Y11482D01*
D02*
G37*
G36*
X77100Y17100D02*
X73518D01*
X73603Y16456D01*
X74006Y15483D01*
X74647Y14647D01*
X75483Y14006D01*
X76456Y13603D01*
X77100Y13518D01*
Y17100D01*
D02*
G37*
G36*
X287100D02*
X283518D01*
X283603Y16456D01*
X284006Y15483D01*
X284647Y14647D01*
X285483Y14006D01*
X286456Y13603D01*
X287100Y13518D01*
Y17100D01*
D02*
G37*
G36*
X81482D02*
X77900D01*
Y13518D01*
X78544Y13603D01*
X79517Y14006D01*
X80353Y14647D01*
X80994Y15483D01*
X81397Y16456D01*
X81482Y17100D01*
D02*
G37*
G36*
X257500Y21131D02*
X256560Y21007D01*
X255684Y20645D01*
X254932Y20067D01*
X254355Y19316D01*
X253993Y18440D01*
X253869Y17500D01*
X253993Y16560D01*
X254355Y15685D01*
X254932Y14932D01*
X255684Y14355D01*
X256560Y13993D01*
X257500Y13869D01*
X258440Y13993D01*
X259315Y14355D01*
X260068Y14932D01*
X260645Y15685D01*
X261007Y16560D01*
X261131Y17500D01*
X261007Y18440D01*
X260645Y19316D01*
X260068Y20067D01*
X259315Y20645D01*
X258440Y21007D01*
X257500Y21131D01*
D02*
G37*
G36*
X247500D02*
X246560Y21007D01*
X245685Y20645D01*
X244933Y20067D01*
X244355Y19316D01*
X243993Y18440D01*
X243869Y17500D01*
X243993Y16560D01*
X244355Y15685D01*
X244933Y14932D01*
X245685Y14355D01*
X246560Y13993D01*
X247500Y13869D01*
X248440Y13993D01*
X249316Y14355D01*
X250067Y14932D01*
X250645Y15685D01*
X251007Y16560D01*
X251131Y17500D01*
X251007Y18440D01*
X250645Y19316D01*
X250067Y20067D01*
X249316Y20645D01*
X248440Y21007D01*
X247500Y21131D01*
D02*
G37*
G36*
X267500D02*
X266560Y21007D01*
X265685Y20645D01*
X264932Y20067D01*
X264355Y19316D01*
X263993Y18440D01*
X263869Y17500D01*
X263993Y16560D01*
X264355Y15685D01*
X264932Y14932D01*
X265685Y14355D01*
X266560Y13993D01*
X267500Y13869D01*
X268440Y13993D01*
X269316Y14355D01*
X270068Y14932D01*
X270645Y15685D01*
X271007Y16560D01*
X271131Y17500D01*
X271007Y18440D01*
X270645Y19316D01*
X270068Y20067D01*
X269316Y20645D01*
X268440Y21007D01*
X267500Y21131D01*
D02*
G37*
G36*
X77100Y21482D02*
X76456Y21397D01*
X75483Y20994D01*
X74647Y20353D01*
X74006Y19517D01*
X73603Y18544D01*
X73518Y17900D01*
X77100D01*
Y21482D01*
D02*
G37*
G36*
X277500Y21131D02*
X276560Y21007D01*
X275684Y20645D01*
X274933Y20067D01*
X274355Y19316D01*
X273993Y18440D01*
X273869Y17500D01*
X273993Y16560D01*
X274355Y15685D01*
X274933Y14932D01*
X275684Y14355D01*
X276560Y13993D01*
X277500Y13869D01*
X278440Y13993D01*
X279315Y14355D01*
X280067Y14932D01*
X280645Y15685D01*
X281007Y16560D01*
X281131Y17500D01*
X281007Y18440D01*
X280645Y19316D01*
X280067Y20067D01*
X279315Y20645D01*
X278440Y21007D01*
X277500Y21131D01*
D02*
G37*
G36*
X127500D02*
X126560Y21007D01*
X125684Y20645D01*
X124932Y20067D01*
X124355Y19316D01*
X123993Y18440D01*
X123869Y17500D01*
X123993Y16560D01*
X124355Y15685D01*
X124932Y14932D01*
X125684Y14355D01*
X126560Y13993D01*
X127500Y13869D01*
X128440Y13993D01*
X129315Y14355D01*
X130068Y14932D01*
X130645Y15685D01*
X131007Y16560D01*
X131131Y17500D01*
X131007Y18440D01*
X130645Y19316D01*
X130068Y20067D01*
X129315Y20645D01*
X128440Y21007D01*
X127500Y21131D01*
D02*
G37*
G36*
X117500D02*
X116560Y21007D01*
X115684Y20645D01*
X114932Y20067D01*
X114355Y19316D01*
X113993Y18440D01*
X113869Y17500D01*
X113993Y16560D01*
X114355Y15685D01*
X114932Y14932D01*
X115684Y14355D01*
X116560Y13993D01*
X117500Y13869D01*
X118440Y13993D01*
X119316Y14355D01*
X120068Y14932D01*
X120645Y15685D01*
X121007Y16560D01*
X121131Y17500D01*
X121007Y18440D01*
X120645Y19316D01*
X120068Y20067D01*
X119316Y20645D01*
X118440Y21007D01*
X117500Y21131D01*
D02*
G37*
G36*
X137500D02*
X136560Y21007D01*
X135685Y20645D01*
X134932Y20067D01*
X134355Y19316D01*
X133993Y18440D01*
X133869Y17500D01*
X133993Y16560D01*
X134355Y15685D01*
X134932Y14932D01*
X135685Y14355D01*
X136560Y13993D01*
X137500Y13869D01*
X138440Y13993D01*
X139315Y14355D01*
X140068Y14932D01*
X140645Y15685D01*
X141007Y16560D01*
X141131Y17500D01*
X141007Y18440D01*
X140645Y19316D01*
X140068Y20067D01*
X139315Y20645D01*
X138440Y21007D01*
X137500Y21131D01*
D02*
G37*
G36*
X157500D02*
X156560Y21007D01*
X155684Y20645D01*
X154932Y20067D01*
X154355Y19316D01*
X153993Y18440D01*
X153869Y17500D01*
X153993Y16560D01*
X154355Y15685D01*
X154932Y14932D01*
X155684Y14355D01*
X156560Y13993D01*
X157500Y13869D01*
X158440Y13993D01*
X159316Y14355D01*
X160068Y14932D01*
X160645Y15685D01*
X161007Y16560D01*
X161131Y17500D01*
X161007Y18440D01*
X160645Y19316D01*
X160068Y20067D01*
X159316Y20645D01*
X158440Y21007D01*
X157500Y21131D01*
D02*
G37*
G36*
X147500D02*
X146560Y21007D01*
X145685Y20645D01*
X144932Y20067D01*
X144355Y19316D01*
X143993Y18440D01*
X143869Y17500D01*
X143993Y16560D01*
X144355Y15685D01*
X144932Y14932D01*
X145685Y14355D01*
X146560Y13993D01*
X147500Y13869D01*
X148440Y13993D01*
X149316Y14355D01*
X150068Y14932D01*
X150645Y15685D01*
X151007Y16560D01*
X151131Y17500D01*
X151007Y18440D01*
X150645Y19316D01*
X150068Y20067D01*
X149316Y20645D01*
X148440Y21007D01*
X147500Y21131D01*
D02*
G37*
G36*
X287900Y11482D02*
Y7900D01*
X291482D01*
X291397Y8544D01*
X290994Y9517D01*
X290353Y10353D01*
X289517Y10994D01*
X288544Y11397D01*
X287900Y11482D01*
D02*
G37*
G36*
X107500Y11131D02*
X106560Y11007D01*
X105684Y10645D01*
X104932Y10068D01*
X104355Y9315D01*
X103993Y8440D01*
X103869Y7500D01*
X103993Y6560D01*
X104355Y5684D01*
X104932Y4933D01*
X105684Y4355D01*
X106560Y3993D01*
X107500Y3869D01*
X108440Y3993D01*
X109316Y4355D01*
X110068Y4933D01*
X110645Y5684D01*
X111007Y6560D01*
X111131Y7500D01*
X111007Y8440D01*
X110645Y9315D01*
X110068Y10068D01*
X109316Y10645D01*
X108440Y11007D01*
X107500Y11131D01*
D02*
G37*
G36*
X97500D02*
X96560Y11007D01*
X95684Y10645D01*
X94932Y10068D01*
X94355Y9315D01*
X93993Y8440D01*
X93869Y7500D01*
X93993Y6560D01*
X94355Y5684D01*
X94932Y4933D01*
X95684Y4355D01*
X96560Y3993D01*
X97500Y3869D01*
X98440Y3993D01*
X99316Y4355D01*
X100068Y4933D01*
X100645Y5684D01*
X101007Y6560D01*
X101131Y7500D01*
X101007Y8440D01*
X100645Y9315D01*
X100068Y10068D01*
X99316Y10645D01*
X98440Y11007D01*
X97500Y11131D01*
D02*
G37*
G36*
X117500D02*
X116560Y11007D01*
X115684Y10645D01*
X114932Y10068D01*
X114355Y9315D01*
X113993Y8440D01*
X113869Y7500D01*
X113993Y6560D01*
X114355Y5684D01*
X114932Y4933D01*
X115684Y4355D01*
X116560Y3993D01*
X117500Y3869D01*
X118440Y3993D01*
X119316Y4355D01*
X120068Y4933D01*
X120645Y5684D01*
X121007Y6560D01*
X121131Y7500D01*
X121007Y8440D01*
X120645Y9315D01*
X120068Y10068D01*
X119316Y10645D01*
X118440Y11007D01*
X117500Y11131D01*
D02*
G37*
G36*
X137500D02*
X136560Y11007D01*
X135685Y10645D01*
X134932Y10068D01*
X134355Y9315D01*
X133993Y8440D01*
X133869Y7500D01*
X133993Y6560D01*
X134355Y5684D01*
X134932Y4933D01*
X135685Y4355D01*
X136560Y3993D01*
X137500Y3869D01*
X138440Y3993D01*
X139315Y4355D01*
X140068Y4933D01*
X140645Y5684D01*
X141007Y6560D01*
X141131Y7500D01*
X141007Y8440D01*
X140645Y9315D01*
X140068Y10068D01*
X139315Y10645D01*
X138440Y11007D01*
X137500Y11131D01*
D02*
G37*
G36*
X127500D02*
X126560Y11007D01*
X125684Y10645D01*
X124932Y10068D01*
X124355Y9315D01*
X123993Y8440D01*
X123869Y7500D01*
X123993Y6560D01*
X124355Y5684D01*
X124932Y4933D01*
X125684Y4355D01*
X126560Y3993D01*
X127500Y3869D01*
X128440Y3993D01*
X129315Y4355D01*
X130068Y4933D01*
X130645Y5684D01*
X131007Y6560D01*
X131131Y7500D01*
X131007Y8440D01*
X130645Y9315D01*
X130068Y10068D01*
X129315Y10645D01*
X128440Y11007D01*
X127500Y11131D01*
D02*
G37*
G36*
X287100Y7100D02*
X283518D01*
X283603Y6456D01*
X284006Y5483D01*
X284647Y4647D01*
X285483Y4006D01*
X286456Y3603D01*
X287100Y3518D01*
Y7100D01*
D02*
G37*
G36*
X81500D02*
X77900D01*
Y3500D01*
X81500D01*
Y7100D01*
D02*
G37*
G36*
X291482D02*
X287900D01*
Y3518D01*
X288544Y3603D01*
X289517Y4006D01*
X290353Y4647D01*
X290994Y5483D01*
X291397Y6456D01*
X291482Y7100D01*
D02*
G37*
G36*
X301482D02*
X297900D01*
Y3518D01*
X298544Y3603D01*
X299517Y4006D01*
X300353Y4647D01*
X300994Y5483D01*
X301397Y6456D01*
X301482Y7100D01*
D02*
G37*
G36*
X297100D02*
X293518D01*
X293603Y6456D01*
X294006Y5483D01*
X294647Y4647D01*
X295483Y4006D01*
X296456Y3603D01*
X297100Y3518D01*
Y7100D01*
D02*
G37*
G36*
X277500Y11131D02*
X276560Y11007D01*
X275684Y10645D01*
X274933Y10068D01*
X274355Y9315D01*
X273993Y8440D01*
X273869Y7500D01*
X273993Y6560D01*
X274355Y5684D01*
X274933Y4933D01*
X275684Y4355D01*
X276560Y3993D01*
X277500Y3869D01*
X278440Y3993D01*
X279315Y4355D01*
X280067Y4933D01*
X280645Y5684D01*
X281007Y6560D01*
X281131Y7500D01*
X281007Y8440D01*
X280645Y9315D01*
X280067Y10068D01*
X279315Y10645D01*
X278440Y11007D01*
X277500Y11131D01*
D02*
G37*
G36*
X267500D02*
X266560Y11007D01*
X265685Y10645D01*
X264932Y10068D01*
X264355Y9315D01*
X263993Y8440D01*
X263869Y7500D01*
X263993Y6560D01*
X264355Y5684D01*
X264932Y4933D01*
X265685Y4355D01*
X266560Y3993D01*
X267500Y3869D01*
X268440Y3993D01*
X269316Y4355D01*
X270068Y4933D01*
X270645Y5684D01*
X271007Y6560D01*
X271131Y7500D01*
X271007Y8440D01*
X270645Y9315D01*
X270068Y10068D01*
X269316Y10645D01*
X268440Y11007D01*
X267500Y11131D01*
D02*
G37*
G36*
X77100Y11500D02*
X73500D01*
Y7900D01*
X77100D01*
Y11500D01*
D02*
G37*
G36*
X287100Y11482D02*
X286456Y11397D01*
X285483Y10994D01*
X284647Y10353D01*
X284006Y9517D01*
X283603Y8544D01*
X283518Y7900D01*
X287100D01*
Y11482D01*
D02*
G37*
G36*
X81500Y11500D02*
X77900D01*
Y7900D01*
X81500D01*
Y11500D01*
D02*
G37*
G36*
X157500Y11131D02*
X156560Y11007D01*
X155684Y10645D01*
X154932Y10068D01*
X154355Y9315D01*
X153993Y8440D01*
X153869Y7500D01*
X153993Y6560D01*
X154355Y5684D01*
X154932Y4933D01*
X155684Y4355D01*
X156560Y3993D01*
X157500Y3869D01*
X158440Y3993D01*
X159316Y4355D01*
X160068Y4933D01*
X160645Y5684D01*
X161007Y6560D01*
X161131Y7500D01*
X161007Y8440D01*
X160645Y9315D01*
X160068Y10068D01*
X159316Y10645D01*
X158440Y11007D01*
X157500Y11131D01*
D02*
G37*
G36*
X147500D02*
X146560Y11007D01*
X145685Y10645D01*
X144932Y10068D01*
X144355Y9315D01*
X143993Y8440D01*
X143869Y7500D01*
X143993Y6560D01*
X144355Y5684D01*
X144932Y4933D01*
X145685Y4355D01*
X146560Y3993D01*
X147500Y3869D01*
X148440Y3993D01*
X149316Y4355D01*
X150068Y4933D01*
X150645Y5684D01*
X151007Y6560D01*
X151131Y7500D01*
X151007Y8440D01*
X150645Y9315D01*
X150068Y10068D01*
X149316Y10645D01*
X148440Y11007D01*
X147500Y11131D01*
D02*
G37*
G36*
X237500D02*
X236560Y11007D01*
X235684Y10645D01*
X234932Y10068D01*
X234355Y9315D01*
X233993Y8440D01*
X233869Y7500D01*
X233993Y6560D01*
X234355Y5684D01*
X234932Y4933D01*
X235684Y4355D01*
X236560Y3993D01*
X237500Y3869D01*
X238440Y3993D01*
X239316Y4355D01*
X240068Y4933D01*
X240645Y5684D01*
X241007Y6560D01*
X241131Y7500D01*
X241007Y8440D01*
X240645Y9315D01*
X240068Y10068D01*
X239316Y10645D01*
X238440Y11007D01*
X237500Y11131D01*
D02*
G37*
G36*
X257500D02*
X256560Y11007D01*
X255684Y10645D01*
X254932Y10068D01*
X254355Y9315D01*
X253993Y8440D01*
X253869Y7500D01*
X253993Y6560D01*
X254355Y5684D01*
X254932Y4933D01*
X255684Y4355D01*
X256560Y3993D01*
X257500Y3869D01*
X258440Y3993D01*
X259315Y4355D01*
X260068Y4933D01*
X260645Y5684D01*
X261007Y6560D01*
X261131Y7500D01*
X261007Y8440D01*
X260645Y9315D01*
X260068Y10068D01*
X259315Y10645D01*
X258440Y11007D01*
X257500Y11131D01*
D02*
G37*
G36*
X247500D02*
X246560Y11007D01*
X245685Y10645D01*
X244933Y10068D01*
X244355Y9315D01*
X243993Y8440D01*
X243869Y7500D01*
X243993Y6560D01*
X244355Y5684D01*
X244933Y4933D01*
X245685Y4355D01*
X246560Y3993D01*
X247500Y3869D01*
X248440Y3993D01*
X249316Y4355D01*
X250067Y4933D01*
X250645Y5684D01*
X251007Y6560D01*
X251131Y7500D01*
X251007Y8440D01*
X250645Y9315D01*
X250067Y10068D01*
X249316Y10645D01*
X248440Y11007D01*
X247500Y11131D01*
D02*
G37*
G36*
X77900Y21482D02*
Y17900D01*
X81482D01*
X81397Y18544D01*
X80994Y19517D01*
X80353Y20353D01*
X79517Y20994D01*
X78544Y21397D01*
X77900Y21482D01*
D02*
G37*
G36*
X215578Y117100D02*
X212025D01*
Y113547D01*
X215578D01*
Y117100D01*
D02*
G37*
G36*
X211225D02*
X207672D01*
Y113547D01*
X211225D01*
Y117100D01*
D02*
G37*
G36*
X191225D02*
X187691D01*
X187774Y116468D01*
X188172Y115507D01*
X188806Y114681D01*
X189632Y114047D01*
X190593Y113649D01*
X191225Y113566D01*
Y117100D01*
D02*
G37*
G36*
X201225D02*
X197691D01*
X197774Y116468D01*
X198172Y115507D01*
X198806Y114681D01*
X199632Y114047D01*
X200593Y113649D01*
X201225Y113566D01*
Y117100D01*
D02*
G37*
G36*
X195559D02*
X192025D01*
Y113566D01*
X192657Y113649D01*
X193619Y114047D01*
X194444Y114681D01*
X195078Y115507D01*
X195476Y116468D01*
X195559Y117100D01*
D02*
G37*
G36*
X257600Y112600D02*
X255027D01*
X255077Y112217D01*
X255380Y111487D01*
X255860Y110860D01*
X256487Y110380D01*
X257217Y110077D01*
X257600Y110027D01*
Y112600D01*
D02*
G37*
G36*
X251449Y123122D02*
X250770Y123033D01*
X250138Y122771D01*
X249595Y122354D01*
X249178Y121811D01*
X248916Y121179D01*
X248827Y120500D01*
X248916Y119821D01*
X249178Y119189D01*
X249595Y118646D01*
X250022Y118318D01*
Y105040D01*
X248284Y103302D01*
X247750Y103372D01*
X247071Y103283D01*
X246439Y103021D01*
X245896Y102604D01*
X245479Y102061D01*
X245217Y101429D01*
X245128Y100750D01*
X245198Y100216D01*
X232033Y87052D01*
X231500Y87122D01*
X230821Y87033D01*
X230189Y86771D01*
X229646Y86354D01*
X229229Y85811D01*
X228967Y85179D01*
X228878Y84500D01*
X228948Y83966D01*
X223409Y78427D01*
X147000D01*
X147000Y78427D01*
X146454Y78319D01*
X145991Y78009D01*
X145991Y78009D01*
X88828Y20847D01*
X88440Y21007D01*
X87500Y21131D01*
X86560Y21007D01*
X85685Y20645D01*
X84932Y20067D01*
X84355Y19316D01*
X83993Y18440D01*
X83869Y17500D01*
X83993Y16560D01*
X84355Y15685D01*
X84932Y14932D01*
X85685Y14355D01*
X86073Y14195D01*
Y10805D01*
X85685Y10645D01*
X84932Y10068D01*
X84355Y9315D01*
X83993Y8440D01*
X83869Y7500D01*
X83993Y6560D01*
X84355Y5684D01*
X84932Y4933D01*
X85685Y4355D01*
X86560Y3993D01*
X87500Y3869D01*
X88440Y3993D01*
X89315Y4355D01*
X90068Y4933D01*
X90645Y5684D01*
X91007Y6560D01*
X91131Y7500D01*
X91007Y8440D01*
X90645Y9315D01*
X90068Y10068D01*
X89315Y10645D01*
X88927Y10805D01*
Y14195D01*
X89315Y14355D01*
X90068Y14932D01*
X90645Y15685D01*
X91007Y16560D01*
X91131Y17500D01*
X91007Y18440D01*
X90847Y18828D01*
X147591Y75573D01*
X223409D01*
X227491Y71491D01*
X227491Y71491D01*
X227954Y71181D01*
X227954Y71181D01*
X227954Y71181D01*
D01*
X227954Y71181D01*
X227954Y71181D01*
X228500Y71073D01*
X228500Y71073D01*
X272818D01*
X273146Y70646D01*
X273689Y70229D01*
X274321Y69967D01*
X275000Y69878D01*
X275679Y69967D01*
X276311Y70229D01*
X276854Y70646D01*
X277271Y71189D01*
X277533Y71821D01*
X277622Y72500D01*
X277533Y73179D01*
X277271Y73811D01*
X276854Y74354D01*
X276311Y74771D01*
X275679Y75033D01*
X275000Y75122D01*
X274321Y75033D01*
X273689Y74771D01*
X273146Y74354D01*
X272818Y73927D01*
X229091D01*
X226019Y77000D01*
X230966Y81948D01*
X231500Y81878D01*
X232179Y81967D01*
X232811Y82229D01*
X233354Y82646D01*
X233771Y83189D01*
X234033Y83821D01*
X234122Y84500D01*
X234052Y85034D01*
X243569Y94550D01*
X243874Y94400D01*
X246600D01*
Y97126D01*
X246450Y97431D01*
X247217Y98198D01*
X247750Y98128D01*
X248429Y98217D01*
X249061Y98479D01*
X249604Y98896D01*
X250021Y99439D01*
X250283Y100071D01*
X250372Y100750D01*
X250302Y101284D01*
X252458Y103440D01*
X252458Y103440D01*
X252768Y103903D01*
X252768Y103903D01*
X252768Y103903D01*
X252876Y104449D01*
X252876Y104449D01*
Y118318D01*
X253303Y118646D01*
X253720Y119189D01*
X253982Y119821D01*
X254071Y120500D01*
X253982Y121179D01*
X253720Y121811D01*
X253303Y122354D01*
X252760Y122771D01*
X252128Y123033D01*
X251449Y123122D01*
D02*
G37*
G36*
X260973Y112600D02*
X258400D01*
Y110027D01*
X258783Y110077D01*
X259513Y110380D01*
X260140Y110860D01*
X260620Y111487D01*
X260923Y112217D01*
X260973Y112600D01*
D02*
G37*
G36*
X258400Y115973D02*
Y113400D01*
X260973D01*
X260923Y113783D01*
X260620Y114513D01*
X260140Y115140D01*
X259513Y115621D01*
X258783Y115923D01*
X258400Y115973D01*
D02*
G37*
G36*
X257600D02*
X257217Y115923D01*
X256487Y115621D01*
X255860Y115140D01*
X255380Y114513D01*
X255077Y113783D01*
X255027Y113400D01*
X257600D01*
Y115973D01*
D02*
G37*
G36*
X205559Y117100D02*
X202025D01*
Y113566D01*
X202657Y113649D01*
X203619Y114047D01*
X204444Y114681D01*
X205078Y115507D01*
X205476Y116468D01*
X205559Y117100D01*
D02*
G37*
G36*
X132500Y126731D02*
X131560Y126607D01*
X130684Y126245D01*
X129932Y125668D01*
X129355Y124916D01*
X128993Y124040D01*
X128869Y123100D01*
X128993Y122160D01*
X129355Y121284D01*
X129932Y120532D01*
X130684Y119955D01*
X131560Y119593D01*
X132500Y119469D01*
X133440Y119593D01*
X134316Y119955D01*
X135068Y120532D01*
X135645Y121284D01*
X136007Y122160D01*
X136131Y123100D01*
X136007Y124040D01*
X135645Y124916D01*
X135068Y125668D01*
X134316Y126245D01*
X133440Y126607D01*
X132500Y126731D01*
D02*
G37*
G36*
X215578Y121453D02*
X212025D01*
Y117900D01*
X215578D01*
Y121453D01*
D02*
G37*
G36*
X191625Y131083D02*
X190698Y130961D01*
X189833Y130603D01*
X189091Y130034D01*
X188522Y129292D01*
X188164Y128427D01*
X188042Y127500D01*
X188164Y126573D01*
X188522Y125708D01*
X189091Y124966D01*
X189833Y124397D01*
X190698Y124039D01*
X191625Y123917D01*
X192553Y124039D01*
X193417Y124397D01*
X194159Y124966D01*
X194729Y125708D01*
X195087Y126573D01*
X195209Y127500D01*
X195087Y128427D01*
X194729Y129292D01*
X194159Y130034D01*
X193417Y130603D01*
X192553Y130961D01*
X191625Y131083D01*
D02*
G37*
G36*
X211625D02*
X210698Y130961D01*
X209834Y130603D01*
X209091Y130034D01*
X208522Y129292D01*
X208164Y128427D01*
X208042Y127500D01*
X208164Y126573D01*
X208522Y125708D01*
X209091Y124966D01*
X209834Y124397D01*
X210698Y124039D01*
X211625Y123917D01*
X212553Y124039D01*
X213417Y124397D01*
X214159Y124966D01*
X214728Y125708D01*
X215087Y126573D01*
X215209Y127500D01*
X215087Y128427D01*
X214728Y129292D01*
X214159Y130034D01*
X213417Y130603D01*
X212553Y130961D01*
X211625Y131083D01*
D02*
G37*
G36*
X201625D02*
X200698Y130961D01*
X199834Y130603D01*
X199091Y130034D01*
X198522Y129292D01*
X198164Y128427D01*
X198042Y127500D01*
X198164Y126573D01*
X198522Y125708D01*
X199091Y124966D01*
X199834Y124397D01*
X200698Y124039D01*
X201625Y123917D01*
X202553Y124039D01*
X203417Y124397D01*
X204159Y124966D01*
X204729Y125708D01*
X205086Y126573D01*
X205209Y127500D01*
X205086Y128427D01*
X204729Y129292D01*
X204159Y130034D01*
X203417Y130603D01*
X202553Y130961D01*
X201625Y131083D01*
D02*
G37*
G36*
X192025Y121434D02*
Y117900D01*
X195559D01*
X195476Y118532D01*
X195078Y119493D01*
X194444Y120319D01*
X193619Y120953D01*
X192657Y121351D01*
X192025Y121434D01*
D02*
G37*
G36*
X191225D02*
X190593Y121351D01*
X189632Y120953D01*
X188806Y120319D01*
X188172Y119493D01*
X187774Y118532D01*
X187691Y117900D01*
X191225D01*
Y121434D01*
D02*
G37*
G36*
X201225D02*
X200593Y121351D01*
X199632Y120953D01*
X198806Y120319D01*
X198172Y119493D01*
X197774Y118532D01*
X197691Y117900D01*
X201225D01*
Y121434D01*
D02*
G37*
G36*
X211225Y121453D02*
X207672D01*
Y117900D01*
X211225D01*
Y121453D01*
D02*
G37*
G36*
X202025Y121434D02*
Y117900D01*
X205559D01*
X205476Y118532D01*
X205078Y119493D01*
X204444Y120319D01*
X203619Y120953D01*
X202657Y121351D01*
X202025Y121434D01*
D02*
G37*
G36*
X132100Y44000D02*
X128518D01*
X128603Y43356D01*
X129006Y42383D01*
X129647Y41547D01*
X130483Y40906D01*
X131456Y40503D01*
X132100Y40418D01*
Y44000D01*
D02*
G37*
G36*
X224500Y28122D02*
X223821Y28033D01*
X223189Y27771D01*
X222646Y27354D01*
X222318Y26927D01*
X175500D01*
X175500Y26927D01*
X174954Y26819D01*
X174491Y26509D01*
X174491Y26509D01*
X168828Y20847D01*
X168440Y21007D01*
X167500Y21131D01*
X166560Y21007D01*
X165684Y20645D01*
X164932Y20067D01*
X164355Y19316D01*
X163993Y18440D01*
X163869Y17500D01*
X163993Y16560D01*
X164355Y15685D01*
X164932Y14932D01*
X165684Y14355D01*
X166560Y13993D01*
X167500Y13869D01*
X168440Y13993D01*
X169316Y14355D01*
X170068Y14932D01*
X170645Y15685D01*
X171007Y16560D01*
X171131Y17500D01*
X171007Y18440D01*
X170847Y18828D01*
X176091Y24073D01*
X222318D01*
X222646Y23646D01*
X223189Y23229D01*
X223821Y22967D01*
X224500Y22878D01*
X225179Y22967D01*
X225811Y23229D01*
X226354Y23646D01*
X226771Y24189D01*
X227033Y24821D01*
X227122Y25500D01*
X227033Y26179D01*
X226771Y26811D01*
X226354Y27354D01*
X225811Y27771D01*
X225179Y28033D01*
X224500Y28122D01*
D02*
G37*
G36*
X136482Y44000D02*
X132900D01*
Y40418D01*
X133544Y40503D01*
X134517Y40906D01*
X135353Y41547D01*
X135994Y42383D01*
X136397Y43356D01*
X136482Y44000D01*
D02*
G37*
G36*
X132900Y48382D02*
Y44800D01*
X136482D01*
X136397Y45444D01*
X135994Y46417D01*
X135353Y47253D01*
X134517Y47894D01*
X133544Y48297D01*
X132900Y48382D01*
D02*
G37*
G36*
X132100D02*
X131456Y48297D01*
X130483Y47894D01*
X129647Y47253D01*
X129006Y46417D01*
X128603Y45444D01*
X128518Y44800D01*
X132100D01*
Y48382D01*
D02*
G37*
G36*
X287900Y21482D02*
Y17900D01*
X291482D01*
X291397Y18544D01*
X290994Y19517D01*
X290353Y20353D01*
X289517Y20994D01*
X288544Y21397D01*
X287900Y21482D01*
D02*
G37*
G36*
X287100D02*
X286456Y21397D01*
X285483Y20994D01*
X284647Y20353D01*
X284006Y19517D01*
X283603Y18544D01*
X283518Y17900D01*
X287100D01*
Y21482D01*
D02*
G37*
G36*
X297100D02*
X296456Y21397D01*
X295483Y20994D01*
X294647Y20353D01*
X294006Y19517D01*
X293603Y18544D01*
X293518Y17900D01*
X297100D01*
Y21482D01*
D02*
G37*
G36*
X234500Y28122D02*
X233821Y28033D01*
X233189Y27771D01*
X232646Y27354D01*
X232229Y26811D01*
X231967Y26179D01*
X231878Y25500D01*
X231948Y24967D01*
X231491Y24509D01*
X231181Y24046D01*
X231073Y23500D01*
X231073Y23500D01*
Y19535D01*
X230599Y19375D01*
X230067Y20067D01*
X229315Y20645D01*
X228440Y21007D01*
X227500Y21131D01*
X226560Y21007D01*
X225684Y20645D01*
X224933Y20067D01*
X224355Y19316D01*
X223993Y18440D01*
X223869Y17500D01*
X223993Y16560D01*
X224355Y15685D01*
X224933Y14932D01*
X225625Y14401D01*
X225465Y13927D01*
X219535D01*
X219375Y14401D01*
X220068Y14932D01*
X220645Y15685D01*
X221007Y16560D01*
X221131Y17500D01*
X221007Y18440D01*
X220645Y19316D01*
X220068Y20067D01*
X219316Y20645D01*
X218440Y21007D01*
X217500Y21131D01*
X216560Y21007D01*
X215685Y20645D01*
X214932Y20067D01*
X214355Y19316D01*
X213993Y18440D01*
X213869Y17500D01*
X213993Y16560D01*
X214355Y15685D01*
X214932Y14932D01*
X215625Y14401D01*
X215464Y13927D01*
X209536D01*
X209375Y14401D01*
X210068Y14932D01*
X210645Y15685D01*
X211007Y16560D01*
X211131Y17500D01*
X211007Y18440D01*
X210645Y19316D01*
X210068Y20067D01*
X209315Y20645D01*
X208440Y21007D01*
X207500Y21131D01*
X206560Y21007D01*
X205684Y20645D01*
X204932Y20067D01*
X204355Y19316D01*
X203993Y18440D01*
X203869Y17500D01*
X203993Y16560D01*
X204355Y15685D01*
X204932Y14932D01*
X205625Y14401D01*
X205465Y13927D01*
X199536D01*
X199375Y14401D01*
X200068Y14932D01*
X200645Y15685D01*
X201007Y16560D01*
X201131Y17500D01*
X201007Y18440D01*
X200645Y19316D01*
X200068Y20067D01*
X199316Y20645D01*
X198440Y21007D01*
X197500Y21131D01*
X196560Y21007D01*
X195685Y20645D01*
X194932Y20067D01*
X194355Y19316D01*
X193993Y18440D01*
X193869Y17500D01*
X193993Y16560D01*
X194355Y15685D01*
X194932Y14932D01*
X195625Y14401D01*
X195465Y13927D01*
X189535D01*
X189375Y14401D01*
X190068Y14932D01*
X190645Y15685D01*
X191007Y16560D01*
X191131Y17500D01*
X191007Y18440D01*
X190645Y19316D01*
X190068Y20067D01*
X189315Y20645D01*
X188440Y21007D01*
X187500Y21131D01*
X186560Y21007D01*
X185685Y20645D01*
X184932Y20067D01*
X184355Y19316D01*
X183993Y18440D01*
X183869Y17500D01*
X183993Y16560D01*
X184355Y15685D01*
X184932Y14932D01*
X185625Y14401D01*
X185465Y13927D01*
X179535D01*
X179375Y14401D01*
X180068Y14932D01*
X180645Y15685D01*
X181007Y16560D01*
X181131Y17500D01*
X181007Y18440D01*
X180645Y19316D01*
X180068Y20067D01*
X179315Y20645D01*
X178440Y21007D01*
X177500Y21131D01*
X176560Y21007D01*
X175684Y20645D01*
X174932Y20067D01*
X174355Y19316D01*
X173993Y18440D01*
X173869Y17500D01*
X173993Y16560D01*
X174355Y15685D01*
X174932Y14932D01*
X175625Y14401D01*
X175464Y13927D01*
X172500D01*
X172500Y13927D01*
X171954Y13819D01*
X171491Y13509D01*
X171491Y13509D01*
X168828Y10847D01*
X168440Y11007D01*
X167500Y11131D01*
X166560Y11007D01*
X165684Y10645D01*
X164932Y10068D01*
X164355Y9315D01*
X163993Y8440D01*
X163869Y7500D01*
X163993Y6560D01*
X164355Y5684D01*
X164932Y4933D01*
X165684Y4355D01*
X166560Y3993D01*
X167500Y3869D01*
X168440Y3993D01*
X169316Y4355D01*
X170068Y4933D01*
X170645Y5684D01*
X171007Y6560D01*
X171131Y7500D01*
X171007Y8440D01*
X170847Y8828D01*
X173091Y11073D01*
X175464D01*
X175625Y10599D01*
X174932Y10068D01*
X174355Y9315D01*
X173993Y8440D01*
X173869Y7500D01*
X173993Y6560D01*
X174355Y5684D01*
X174932Y4933D01*
X175684Y4355D01*
X176560Y3993D01*
X177500Y3869D01*
X178440Y3993D01*
X179315Y4355D01*
X180068Y4933D01*
X180645Y5684D01*
X181007Y6560D01*
X181131Y7500D01*
X181007Y8440D01*
X180645Y9315D01*
X180068Y10068D01*
X179375Y10599D01*
X179535Y11073D01*
X185465D01*
X185625Y10599D01*
X184932Y10068D01*
X184355Y9315D01*
X183993Y8440D01*
X183869Y7500D01*
X183993Y6560D01*
X184355Y5684D01*
X184932Y4933D01*
X185685Y4355D01*
X186560Y3993D01*
X187500Y3869D01*
X188440Y3993D01*
X189315Y4355D01*
X190068Y4933D01*
X190645Y5684D01*
X191007Y6560D01*
X191131Y7500D01*
X191007Y8440D01*
X190645Y9315D01*
X190068Y10068D01*
X189375Y10599D01*
X189535Y11073D01*
X195465D01*
X195625Y10599D01*
X194932Y10068D01*
X194355Y9315D01*
X193993Y8440D01*
X193869Y7500D01*
X193993Y6560D01*
X194355Y5684D01*
X194932Y4933D01*
X195685Y4355D01*
X196560Y3993D01*
X197500Y3869D01*
X198440Y3993D01*
X199316Y4355D01*
X200068Y4933D01*
X200645Y5684D01*
X201007Y6560D01*
X201131Y7500D01*
X201007Y8440D01*
X200645Y9315D01*
X200068Y10068D01*
X199375Y10599D01*
X199536Y11073D01*
X205465D01*
X205625Y10599D01*
X204932Y10068D01*
X204355Y9315D01*
X203993Y8440D01*
X203869Y7500D01*
X203993Y6560D01*
X204355Y5684D01*
X204932Y4933D01*
X205684Y4355D01*
X206560Y3993D01*
X207500Y3869D01*
X208440Y3993D01*
X209315Y4355D01*
X210068Y4933D01*
X210645Y5684D01*
X211007Y6560D01*
X211131Y7500D01*
X211007Y8440D01*
X210645Y9315D01*
X210068Y10068D01*
X209375Y10599D01*
X209536Y11073D01*
X215464D01*
X215625Y10599D01*
X214932Y10068D01*
X214355Y9315D01*
X213993Y8440D01*
X213869Y7500D01*
X213993Y6560D01*
X214355Y5684D01*
X214932Y4933D01*
X215685Y4355D01*
X216560Y3993D01*
X217500Y3869D01*
X218440Y3993D01*
X219316Y4355D01*
X220068Y4933D01*
X220645Y5684D01*
X221007Y6560D01*
X221131Y7500D01*
X221007Y8440D01*
X220645Y9315D01*
X220068Y10068D01*
X219375Y10599D01*
X219535Y11073D01*
X225465D01*
X225625Y10599D01*
X224933Y10068D01*
X224355Y9315D01*
X223993Y8440D01*
X223869Y7500D01*
X223993Y6560D01*
X224355Y5684D01*
X224933Y4933D01*
X225684Y4355D01*
X226560Y3993D01*
X227500Y3869D01*
X228440Y3993D01*
X229315Y4355D01*
X230067Y4933D01*
X230645Y5684D01*
X231007Y6560D01*
X231131Y7500D01*
X231007Y8440D01*
X230645Y9315D01*
X230067Y10068D01*
X229375Y10599D01*
X229536Y11073D01*
X230000D01*
X230000Y11073D01*
X230546Y11181D01*
X231009Y11491D01*
X233509Y13991D01*
X233509Y13991D01*
X233695Y14268D01*
X233819Y14454D01*
X233927Y15000D01*
Y15464D01*
X234401Y15625D01*
X234932Y14932D01*
X235684Y14355D01*
X236560Y13993D01*
X237500Y13869D01*
X238440Y13993D01*
X239316Y14355D01*
X240068Y14932D01*
X240645Y15685D01*
X241007Y16560D01*
X241131Y17500D01*
X241007Y18440D01*
X240645Y19316D01*
X240068Y20067D01*
X239316Y20645D01*
X238440Y21007D01*
X237500Y21131D01*
X236560Y21007D01*
X235684Y20645D01*
X234932Y20067D01*
X234401Y19375D01*
X233927Y19535D01*
Y22574D01*
X234303Y22904D01*
X234500Y22878D01*
X235179Y22967D01*
X235811Y23229D01*
X236354Y23646D01*
X236771Y24189D01*
X237033Y24821D01*
X237122Y25500D01*
X237033Y26179D01*
X236771Y26811D01*
X236354Y27354D01*
X235811Y27771D01*
X235179Y28033D01*
X234500Y28122D01*
D02*
G37*
G36*
X297900Y21482D02*
Y17900D01*
X301482D01*
X301397Y18544D01*
X300994Y19517D01*
X300353Y20353D01*
X299517Y20994D01*
X298544Y21397D01*
X297900Y21482D01*
D02*
G37*
G36*
X186100Y48100D02*
X183527D01*
X183577Y47717D01*
X183879Y46987D01*
X184360Y46360D01*
X184987Y45880D01*
X185717Y45577D01*
X186100Y45527D01*
Y48100D01*
D02*
G37*
G36*
X283900Y86973D02*
Y84400D01*
X286473D01*
X286423Y84783D01*
X286121Y85513D01*
X285640Y86140D01*
X285013Y86620D01*
X284283Y86923D01*
X283900Y86973D01*
D02*
G37*
G36*
X283100D02*
X282717Y86923D01*
X281987Y86620D01*
X281360Y86140D01*
X280879Y85513D01*
X280577Y84783D01*
X280527Y84400D01*
X283100D01*
Y86973D01*
D02*
G37*
G36*
X246600Y93600D02*
X244027D01*
X244077Y93217D01*
X244379Y92487D01*
X244860Y91860D01*
X245487Y91379D01*
X246217Y91077D01*
X246600Y91027D01*
Y93600D01*
D02*
G37*
G36*
X247400Y96973D02*
Y94400D01*
X249973D01*
X249923Y94783D01*
X249621Y95513D01*
X249140Y96140D01*
X248513Y96621D01*
X247783Y96923D01*
X247400Y96973D01*
D02*
G37*
G36*
X249973Y93600D02*
X247400D01*
Y91027D01*
X247783Y91077D01*
X248513Y91379D01*
X249140Y91860D01*
X249621Y92487D01*
X249923Y93217D01*
X249973Y93600D01*
D02*
G37*
G36*
X186100Y51473D02*
X185717Y51423D01*
X184987Y51121D01*
X184360Y50640D01*
X183879Y50013D01*
X183577Y49283D01*
X183527Y48900D01*
X186100D01*
Y51473D01*
D02*
G37*
G36*
X189473Y48100D02*
X186900D01*
Y45527D01*
X187283Y45577D01*
X188013Y45880D01*
X188640Y46360D01*
X189120Y46987D01*
X189423Y47717D01*
X189473Y48100D01*
D02*
G37*
G36*
X186900Y51473D02*
Y48900D01*
X189473D01*
X189423Y49283D01*
X189120Y50013D01*
X188640Y50640D01*
X188013Y51121D01*
X187283Y51423D01*
X186900Y51473D01*
D02*
G37*
G36*
X286473Y83600D02*
X283900D01*
Y81027D01*
X284283Y81077D01*
X285013Y81379D01*
X285640Y81860D01*
X286121Y82487D01*
X286423Y83217D01*
X286473Y83600D01*
D02*
G37*
G36*
X283100D02*
X280527D01*
X280577Y83217D01*
X280879Y82487D01*
X281360Y81860D01*
X281987Y81379D01*
X282717Y81077D01*
X283100Y81027D01*
Y83600D01*
D02*
G37*
%LPD*%
D10*
X172500Y12500D02*
X230000D01*
X232500Y15000D01*
Y23500D01*
X167500Y7500D02*
X172500Y12500D01*
X232500Y23500D02*
X234500Y25500D01*
X167500Y17500D02*
X175500Y25500D01*
X224500D01*
X228500Y72500D02*
X275000D01*
X224000Y77000D02*
X228500Y72500D01*
X147000Y77000D02*
X224000D01*
X247750Y100750D02*
X251449Y104449D01*
X231500Y84500D02*
X247750Y100750D01*
X251449Y104449D02*
Y120500D01*
X224000Y77000D02*
X231500Y84500D01*
X87500Y17500D02*
X147000Y77000D01*
X87500Y7500D02*
Y17500D01*
D11*
X191625Y127500D02*
D03*
Y117500D02*
D03*
X201625Y127500D02*
D03*
Y117500D02*
D03*
X211625Y127500D02*
D03*
D12*
Y117500D02*
D03*
D13*
X87500Y17500D02*
D03*
Y7500D02*
D03*
X177500Y17500D02*
D03*
X187500Y7500D02*
D03*
X177500D02*
D03*
X287500D02*
D03*
X297500Y17500D02*
D03*
X257500Y7500D02*
D03*
X187500Y17500D02*
D03*
X197500Y7500D02*
D03*
X167500Y17500D02*
D03*
X97500D02*
D03*
Y7500D02*
D03*
X227500Y17500D02*
D03*
Y7500D02*
D03*
X237500D02*
D03*
X247500D02*
D03*
X237500Y17500D02*
D03*
X247500D02*
D03*
X257500D02*
D03*
X267500D02*
D03*
Y7500D02*
D03*
X277500Y17500D02*
D03*
Y7500D02*
D03*
X287500Y17500D02*
D03*
X297500Y7500D02*
D03*
X217500Y17500D02*
D03*
Y7500D02*
D03*
X207500D02*
D03*
Y17500D02*
D03*
X117500D02*
D03*
X107500D02*
D03*
Y7500D02*
D03*
X117500D02*
D03*
X197500Y17500D02*
D03*
X157500D02*
D03*
X137500Y7500D02*
D03*
X167500D02*
D03*
X127500Y17500D02*
D03*
X137500D02*
D03*
X127500Y7500D02*
D03*
X147500D02*
D03*
Y17500D02*
D03*
X157500Y7500D02*
D03*
X77500Y17500D02*
D03*
X132500Y123100D02*
D03*
Y44400D02*
D03*
D14*
X77500Y7500D02*
D03*
D15*
X234500Y25500D02*
D03*
X224500D02*
D03*
X247000Y94000D02*
D03*
X247750Y100750D02*
D03*
X231500Y84500D02*
D03*
X283500Y84000D02*
D03*
X275000Y72500D02*
D03*
X258000Y113000D02*
D03*
X251449Y120500D02*
D03*
X186500Y48500D02*
D03*
M02*
