%FSLAX25Y25*%
%MOIN*%
G70*
G01*
G75*
G04 Layer_Color=128*
%ADD10C,0.01600*%
%ADD11C,0.05906*%
%ADD12R,0.05906X0.05906*%
%ADD13C,0.06000*%
%ADD14R,0.06000X0.06000*%
%ADD15C,0.04000*%
%ADD16R,0.03543X0.03740*%
%ADD17R,0.03740X0.03543*%
%ADD18O,0.08661X0.02362*%
%ADD19O,0.02362X0.08268*%
%ADD20C,0.00100*%
%ADD21C,0.06506*%
%ADD22R,0.06506X0.06506*%
%ADD23C,0.06400*%
%ADD24R,0.06400X0.06400*%
%ADD25C,0.06600*%
%ADD26R,0.04143X0.04340*%
%ADD27R,0.04340X0.04143*%
%ADD28O,0.09261X0.02962*%
%ADD29O,0.02962X0.08868*%
D16*
X258000Y120949D02*
D03*
Y127051D02*
D03*
X270500Y120949D02*
D03*
Y127051D02*
D03*
X224500Y38051D02*
D03*
Y31949D02*
D03*
X234500Y38051D02*
D03*
Y31949D02*
D03*
D17*
X195449Y106000D02*
D03*
X201551D02*
D03*
X165551Y123000D02*
D03*
X159449D02*
D03*
X240551Y128000D02*
D03*
X234449D02*
D03*
X240551Y120500D02*
D03*
X234449D02*
D03*
X240551Y113000D02*
D03*
X234449D02*
D03*
D18*
X255551Y79000D02*
D03*
Y84000D02*
D03*
Y89000D02*
D03*
Y94000D02*
D03*
X274449Y79000D02*
D03*
Y84000D02*
D03*
Y89000D02*
D03*
Y94000D02*
D03*
D19*
X186500Y94709D02*
D03*
X191500D02*
D03*
X196500D02*
D03*
X201500D02*
D03*
X206500D02*
D03*
X211500D02*
D03*
X216500D02*
D03*
X221500D02*
D03*
X226500D02*
D03*
X231500D02*
D03*
X186500Y58291D02*
D03*
X191500D02*
D03*
X196500D02*
D03*
X201500D02*
D03*
X206500D02*
D03*
X211500D02*
D03*
X216500D02*
D03*
X221500D02*
D03*
X226500D02*
D03*
X231500D02*
D03*
M02*
