M48
;Layer_Color=9474304
;FILE_FORMAT=2:5
INCH,LZ
;TYPE=PLATED
T1F00S00C0.02000
T2F00S00C0.03000
T3F00S00C0.03500
T4F00S00C0.03543
%
T01
X01865Y00485
X02245Y00255
X02345
X02315Y00845
X0247Y0094
X024775Y010075
X0258Y0113
X0251449Y01205
X02835Y0084
X0275Y00725
T02
X02775Y00075
X02875
X02975
X02675
X02575
X02475
X02375
X02275
X02175
X02075
X01975
X01875
X01775
X01675
X01575
X01475
X01375
X01275
X01175
X01075
X00975
X00875
X00775
Y00175
X00875
X00975
X01075
X01175
X01275
X01375
X01475
X01575
X01675
X01775
X01875
X01975
X02075
X02175
X02275
X02375
X02475
X02575
X02675
X02775
X02875
X02975
T03
X01325Y00444
Y01231
T04
X0191625Y01175
Y01275
X0201625
Y01175
X0211625
Y01275
M30
