%FSLAX25Y25*%
%MOIN*%
G70*
G01*
G75*
G04 Layer_Color=65535*
%ADD10C,0.01600*%
%ADD11C,0.05906*%
%ADD12R,0.05906X0.05906*%
%ADD13C,0.06000*%
%ADD14R,0.06000X0.06000*%
%ADD15C,0.04000*%
%ADD16R,0.03543X0.03740*%
%ADD17R,0.03740X0.03543*%
%ADD18O,0.08661X0.02362*%
%ADD19O,0.02362X0.08268*%
%ADD20C,0.00100*%
G36*
X296731Y43219D02*
X296764Y43213D01*
X296848Y43202D01*
X296942Y43180D01*
X297047Y43147D01*
X297153Y43097D01*
X297253Y43036D01*
X297258D01*
X297264Y43025D01*
X297297Y42997D01*
X297347Y42953D01*
X297403Y42892D01*
X297458Y42814D01*
X297508Y42725D01*
X297541Y42620D01*
X297547Y42564D01*
X297552Y42503D01*
Y42492D01*
Y42470D01*
X297547Y42425D01*
Y42375D01*
X297536Y42314D01*
X297525Y42248D01*
X297514Y42181D01*
X297491Y42109D01*
Y42103D01*
X297480Y42081D01*
X297464Y42042D01*
X297447Y42004D01*
X297419Y41954D01*
X297386Y41898D01*
X297347Y41837D01*
X297303Y41781D01*
X297297Y41770D01*
X297275Y41748D01*
X297236Y41709D01*
X297181Y41659D01*
X297103Y41598D01*
X297014Y41526D01*
X296903Y41443D01*
X296770Y41360D01*
X296764D01*
X296753Y41349D01*
X296731Y41337D01*
X296709Y41321D01*
X296637Y41276D01*
X296559Y41221D01*
X296470Y41160D01*
X296387Y41093D01*
X296309Y41038D01*
X296282Y41010D01*
X296254Y40982D01*
X296243Y40971D01*
X296215Y40938D01*
X296182Y40888D01*
X296137Y40821D01*
X296098Y40738D01*
X296059Y40638D01*
X296037Y40522D01*
X296026Y40461D01*
Y40400D01*
X296453Y40439D01*
X296498D01*
X296526Y40444D01*
X296565D01*
X296603Y40450D01*
X296703Y40455D01*
X296809D01*
X296914Y40461D01*
X297009Y40466D01*
X297153D01*
X297192Y40461D01*
X297236Y40455D01*
X297286Y40444D01*
X297392Y40411D01*
X297403Y40405D01*
X297425Y40394D01*
X297453Y40377D01*
X297491Y40355D01*
X297525Y40327D01*
X297558Y40294D01*
X297580Y40250D01*
X297586Y40205D01*
Y40200D01*
Y40194D01*
X297580Y40155D01*
X297558Y40106D01*
X297547Y40083D01*
X297525Y40056D01*
X297514Y40044D01*
X297486Y40028D01*
X297441Y40005D01*
X297414Y40000D01*
X297386Y39994D01*
X297375D01*
X297347Y40000D01*
X297297Y40011D01*
X297236Y40028D01*
X297231D01*
X297219Y40033D01*
X297203Y40039D01*
X297181Y40044D01*
X297136Y40056D01*
X297092Y40061D01*
X297014D01*
X296970Y40056D01*
X296914D01*
X296848Y40050D01*
X296770Y40044D01*
X296737D01*
X296698Y40039D01*
X296648D01*
X296542Y40033D01*
X296387D01*
X296354Y40028D01*
X296309Y40022D01*
X296259Y40017D01*
X296204Y40011D01*
X296176D01*
X296148Y40005D01*
X296115D01*
X296032Y40000D01*
X295993Y39994D01*
X295921D01*
X295893Y40000D01*
X295887D01*
X295871Y40005D01*
X295849Y40011D01*
X295804D01*
X295777Y40017D01*
X295749Y40028D01*
X295715Y40044D01*
X295688Y40072D01*
X295660Y40106D01*
X295638Y40150D01*
Y40155D01*
X295632Y40167D01*
Y40183D01*
X295627Y40211D01*
X295621Y40244D01*
Y40289D01*
X295616Y40339D01*
Y40400D01*
Y40405D01*
Y40422D01*
Y40450D01*
X295621Y40483D01*
Y40522D01*
X295632Y40572D01*
X295649Y40683D01*
X295682Y40805D01*
X295726Y40938D01*
X295793Y41066D01*
X295837Y41132D01*
X295882Y41188D01*
X295887Y41193D01*
X295910Y41215D01*
X295949Y41249D01*
X295976Y41271D01*
X296009Y41299D01*
X296048Y41332D01*
X296093Y41371D01*
X296148Y41410D01*
X296209Y41460D01*
X296276Y41510D01*
X296354Y41565D01*
X296443Y41626D01*
X296537Y41693D01*
X296542D01*
X296548Y41704D01*
X296565Y41715D01*
X296587Y41726D01*
X296637Y41765D01*
X296698Y41809D01*
X296764Y41859D01*
X296831Y41915D01*
X296892Y41965D01*
X296936Y42009D01*
X296942Y42020D01*
X296964Y42048D01*
X296992Y42087D01*
X297031Y42148D01*
X297064Y42214D01*
X297092Y42298D01*
X297114Y42386D01*
X297119Y42481D01*
Y42486D01*
Y42503D01*
X297108Y42531D01*
X297097Y42564D01*
X297075Y42603D01*
X297047Y42642D01*
X297003Y42686D01*
X296942Y42725D01*
X296936Y42731D01*
X296914Y42742D01*
X296886Y42753D01*
X296848Y42775D01*
X296803Y42792D01*
X296748Y42803D01*
X296698Y42814D01*
X296642Y42819D01*
X296609D01*
X296570Y42814D01*
X296526Y42808D01*
X296470Y42792D01*
X296404Y42775D01*
X296342Y42747D01*
X296276Y42708D01*
X295976Y42470D01*
X295971D01*
X295960Y42459D01*
X295943Y42448D01*
X295921Y42437D01*
X295871Y42414D01*
X295849Y42409D01*
X295826Y42403D01*
X295815D01*
X295793Y42409D01*
X295760Y42414D01*
X295721Y42425D01*
X295682Y42448D01*
X295649Y42475D01*
X295627Y42520D01*
X295616Y42575D01*
Y42581D01*
Y42592D01*
X295621Y42608D01*
X295627Y42631D01*
X295649Y42686D01*
X295666Y42714D01*
X295693Y42742D01*
X295699Y42747D01*
X295704Y42753D01*
X295732Y42781D01*
X295782Y42819D01*
X295837Y42869D01*
X295904Y42925D01*
X295976Y42980D01*
X296048Y43030D01*
X296121Y43075D01*
X296126D01*
X296132Y43080D01*
X296165Y43097D01*
X296215Y43125D01*
X296282Y43152D01*
X296359Y43175D01*
X296448Y43202D01*
X296542Y43219D01*
X296642Y43224D01*
X296698D01*
X296731Y43219D01*
D02*
G37*
G36*
X275447Y42226D02*
X275502Y42220D01*
X275574Y42209D01*
X275652Y42187D01*
X275735Y42164D01*
X275830Y42131D01*
X275835D01*
X275846Y42126D01*
X275857Y42120D01*
X275880Y42109D01*
X275930Y42081D01*
X275991Y42048D01*
X276052Y42004D01*
X276102Y41954D01*
X276124Y41926D01*
X276140Y41898D01*
X276146Y41865D01*
X276152Y41831D01*
Y41826D01*
Y41820D01*
X276146Y41787D01*
X276129Y41743D01*
X276096Y41693D01*
X276085Y41682D01*
X276063Y41665D01*
X276024Y41643D01*
X275996Y41637D01*
X275969Y41632D01*
X275957D01*
X275930Y41637D01*
X275896Y41648D01*
X275857Y41665D01*
X275852Y41671D01*
X275830Y41687D01*
X275802Y41709D01*
X275774Y41737D01*
X275769Y41743D01*
X275752Y41754D01*
X275719Y41770D01*
X275674Y41787D01*
X275619Y41804D01*
X275552Y41820D01*
X275469Y41831D01*
X275369Y41837D01*
X275358D01*
X275330Y41831D01*
X275291Y41815D01*
X275236Y41787D01*
X275203Y41770D01*
X275169Y41743D01*
X275136Y41715D01*
X275097Y41676D01*
X275058Y41632D01*
X275020Y41582D01*
X274981Y41521D01*
X274942Y41454D01*
Y41449D01*
X274936Y41438D01*
X274925Y41421D01*
X274914Y41393D01*
X274897Y41365D01*
X274881Y41326D01*
X274847Y41243D01*
X274814Y41149D01*
X274781Y41049D01*
X274759Y40944D01*
X274753Y40844D01*
Y40838D01*
Y40832D01*
X274759Y40799D01*
X274764Y40749D01*
X274775Y40683D01*
X274797Y40616D01*
X274831Y40544D01*
X274881Y40472D01*
X274942Y40405D01*
X274947Y40400D01*
X274975Y40383D01*
X275008Y40361D01*
X275064Y40333D01*
X275125Y40305D01*
X275203Y40283D01*
X275291Y40266D01*
X275391Y40261D01*
X275413D01*
X275441Y40266D01*
X275475Y40272D01*
X275513Y40277D01*
X275558Y40289D01*
X275608Y40305D01*
X275663Y40327D01*
X275907Y40455D01*
X275913D01*
X275919Y40461D01*
X275941Y40477D01*
X275969Y40488D01*
X275996Y40494D01*
X276007D01*
X276041Y40488D01*
X276085Y40466D01*
X276107Y40450D01*
X276129Y40427D01*
X276135D01*
X276140Y40416D01*
X276163Y40389D01*
X276179Y40344D01*
X276190Y40316D01*
Y40289D01*
Y40283D01*
X276185Y40261D01*
X276174Y40233D01*
X276152Y40194D01*
X276113Y40150D01*
X276085Y40122D01*
X276052Y40100D01*
X276013Y40072D01*
X275974Y40044D01*
X275919Y40022D01*
X275863Y39994D01*
X275857D01*
X275852Y39989D01*
X275819Y39972D01*
X275763Y39956D01*
X275696Y39933D01*
X275624Y39906D01*
X275547Y39889D01*
X275464Y39872D01*
X275391Y39867D01*
X275352D01*
X275319Y39872D01*
X275286D01*
X275241Y39878D01*
X275142Y39900D01*
X275030Y39928D01*
X274908Y39972D01*
X274792Y40039D01*
X274731Y40078D01*
X274675Y40122D01*
X274670Y40128D01*
X274664Y40133D01*
X274648Y40150D01*
X274631Y40172D01*
X274609Y40200D01*
X274581Y40233D01*
X274525Y40316D01*
X274470Y40422D01*
X274420Y40544D01*
X274387Y40683D01*
X274381Y40760D01*
X274376Y40844D01*
Y40849D01*
Y40866D01*
Y40888D01*
X274381Y40916D01*
X274387Y40955D01*
X274392Y41005D01*
X274398Y41054D01*
X274409Y41116D01*
X274442Y41249D01*
X274498Y41399D01*
X274525Y41476D01*
X274564Y41560D01*
X274609Y41643D01*
X274659Y41726D01*
X274664Y41732D01*
X274675Y41748D01*
X274692Y41770D01*
X274714Y41804D01*
X274742Y41843D01*
X274781Y41887D01*
X274864Y41981D01*
X274970Y42070D01*
X275025Y42115D01*
X275092Y42153D01*
X275153Y42187D01*
X275225Y42209D01*
X275297Y42226D01*
X275369Y42231D01*
X275408D01*
X275447Y42226D01*
D02*
G37*
G36*
X283178Y43175D02*
X283206D01*
X283250Y43169D01*
X283311Y43163D01*
X283383Y43152D01*
X283472Y43141D01*
X283483D01*
X283505Y43136D01*
X283544D01*
X283594Y43130D01*
X283650Y43125D01*
X283705D01*
X283761Y43119D01*
X284027D01*
X284105Y43125D01*
X284282D01*
X284338Y43130D01*
X284643D01*
X284699Y43125D01*
X284765D01*
X284848Y43119D01*
X284943Y43113D01*
X285054Y43102D01*
X285087D01*
X285109Y43097D01*
X285165D01*
X285237Y43091D01*
X285315Y43086D01*
X285392D01*
X285470Y43080D01*
X285553D01*
X285570Y43075D01*
X285592D01*
X285642Y43053D01*
X285670Y43041D01*
X285692Y43019D01*
X285698D01*
X285703Y43008D01*
X285725Y42975D01*
X285742Y42930D01*
X285753Y42897D01*
Y42864D01*
Y42858D01*
Y42847D01*
X285748Y42831D01*
Y42814D01*
X285725Y42758D01*
X285714Y42736D01*
X285692Y42708D01*
X285681Y42697D01*
X285648Y42681D01*
X285603Y42658D01*
X285570Y42653D01*
X285537Y42647D01*
X285470D01*
X285420Y42653D01*
X285353D01*
X285270Y42658D01*
X285170Y42664D01*
X285059Y42675D01*
X285032D01*
X285010Y42681D01*
X284948D01*
X284882Y42686D01*
X284804Y42692D01*
X284721D01*
X284643Y42697D01*
X284432D01*
Y42692D01*
Y42686D01*
Y42664D01*
Y42642D01*
X284438Y42608D01*
Y42570D01*
Y42525D01*
X284443Y42470D01*
Y42409D01*
X284449Y42336D01*
X284454Y42259D01*
X284460Y42176D01*
X284466Y42081D01*
X284471Y41981D01*
X284477Y41870D01*
X284488Y41754D01*
Y41748D01*
Y41726D01*
X284493Y41698D01*
Y41654D01*
X284499Y41604D01*
X284504Y41543D01*
Y41482D01*
X284510Y41410D01*
X284521Y41260D01*
X284527Y41099D01*
X284532Y40949D01*
Y40877D01*
Y40810D01*
Y40805D01*
Y40799D01*
Y40777D01*
Y40755D01*
X284538Y40727D01*
Y40688D01*
X284543Y40644D01*
X284549Y40588D01*
Y40583D01*
X284554Y40566D01*
Y40538D01*
X284560Y40505D01*
X284565Y40433D01*
Y40394D01*
Y40366D01*
Y40361D01*
Y40344D01*
Y40316D01*
X284560Y40283D01*
X284543Y40200D01*
X284516Y40117D01*
Y40111D01*
X284504Y40094D01*
X284488Y40072D01*
X284471Y40050D01*
X284443Y40028D01*
X284410Y40005D01*
X284377Y39989D01*
X284332Y39983D01*
X284321D01*
X284282Y39989D01*
X284232Y40005D01*
X284183Y40039D01*
Y40044D01*
X284171Y40050D01*
X284149Y40083D01*
X284127Y40128D01*
X284121Y40155D01*
X284116Y40189D01*
Y40194D01*
Y40211D01*
Y40244D01*
X284121Y40283D01*
Y40289D01*
Y40294D01*
X284127Y40322D01*
X284133Y40350D01*
Y40377D01*
Y40383D01*
Y40400D01*
Y40422D01*
Y40455D01*
X284127Y40499D01*
Y40555D01*
X284121Y40616D01*
X284116Y40688D01*
Y40699D01*
Y40721D01*
X284110Y40760D01*
Y40805D01*
X284105Y40905D01*
Y40955D01*
Y40999D01*
Y41005D01*
Y41016D01*
Y41032D01*
Y41054D01*
Y41088D01*
Y41121D01*
X284099Y41166D01*
Y41215D01*
Y41276D01*
X284094Y41337D01*
X284088Y41404D01*
Y41482D01*
X284083Y41565D01*
X284077Y41648D01*
X284066Y41743D01*
X284060Y41843D01*
Y41848D01*
Y41870D01*
X284055Y41898D01*
Y41937D01*
X284049Y41987D01*
X284044Y42042D01*
X284038Y42103D01*
X284033Y42170D01*
X284027Y42309D01*
X284016Y42448D01*
X284010Y42581D01*
X284005Y42642D01*
Y42692D01*
X283811Y42686D01*
X283694D01*
X283650Y42692D01*
X283550Y42697D01*
X283433Y42703D01*
X283311Y42714D01*
X283195Y42731D01*
X283089Y42753D01*
X283084D01*
X283061Y42764D01*
X283039Y42775D01*
X283006Y42797D01*
X282978Y42825D01*
X282950Y42858D01*
X282928Y42908D01*
X282923Y42964D01*
Y42969D01*
Y42980D01*
X282928Y43014D01*
X282945Y43064D01*
X282973Y43113D01*
X282978Y43119D01*
X282984Y43125D01*
X283017Y43147D01*
X283072Y43175D01*
X283106Y43180D01*
X283156D01*
X283178Y43175D01*
D02*
G37*
G36*
X281052Y43180D02*
X281063D01*
X281080Y43175D01*
X281102D01*
X281152Y43163D01*
X281224Y43152D01*
X281296Y43130D01*
X281380Y43108D01*
X281463Y43080D01*
X281541Y43041D01*
X281552Y43036D01*
X281580Y43019D01*
X281618Y42997D01*
X281674Y42964D01*
X281740Y42919D01*
X281807Y42864D01*
X281885Y42803D01*
X281968Y42736D01*
X282046Y42658D01*
X282123Y42575D01*
X282196Y42481D01*
X282257Y42386D01*
X282312Y42281D01*
X282351Y42170D01*
X282379Y42059D01*
X282390Y41937D01*
Y41931D01*
Y41920D01*
Y41904D01*
X282384Y41881D01*
X282373Y41826D01*
X282351Y41748D01*
X282318Y41659D01*
X282268Y41565D01*
X282235Y41521D01*
X282196Y41471D01*
X282146Y41421D01*
X282096Y41376D01*
X282085Y41365D01*
X282057Y41343D01*
X282001Y41310D01*
X281935Y41265D01*
X281852Y41215D01*
X281752Y41166D01*
X281641Y41121D01*
X281519Y41077D01*
X281524Y41071D01*
X281546Y41060D01*
X281580Y41043D01*
X281624Y41016D01*
X281679Y40982D01*
X281740Y40944D01*
X281813Y40905D01*
X281885Y40855D01*
X282040Y40744D01*
X282207Y40616D01*
X282362Y40483D01*
X282429Y40411D01*
X282495Y40339D01*
Y40333D01*
X282506Y40327D01*
X282523Y40294D01*
X282540Y40250D01*
X282551Y40194D01*
Y40189D01*
Y40178D01*
X282545Y40161D01*
Y40144D01*
X282523Y40089D01*
X282506Y40067D01*
X282484Y40039D01*
X282479D01*
X282473Y40028D01*
X282440Y40011D01*
X282395Y39989D01*
X282362Y39983D01*
X282334Y39978D01*
X282323D01*
X282284Y39989D01*
X282240Y40005D01*
X282212Y40022D01*
X282185Y40044D01*
X282179Y40050D01*
X282151Y40072D01*
X282112Y40111D01*
X282062Y40155D01*
X281996Y40211D01*
X281918Y40272D01*
X281829Y40344D01*
X281735Y40416D01*
X281624Y40494D01*
X281502Y40572D01*
X281380Y40644D01*
X281241Y40721D01*
X281102Y40794D01*
X280958Y40860D01*
X280803Y40916D01*
X280647Y40966D01*
X280664Y40555D01*
X280675Y40139D01*
Y40133D01*
Y40122D01*
X280669Y40106D01*
Y40089D01*
X280647Y40039D01*
X280636Y40011D01*
X280614Y39989D01*
X280603Y39978D01*
X280575Y39961D01*
X280525Y39939D01*
X280497Y39933D01*
X280464Y39928D01*
X280447D01*
X280431Y39933D01*
X280409D01*
X280359Y39956D01*
X280331Y39967D01*
X280309Y39989D01*
Y39994D01*
X280297Y40000D01*
X280281Y40033D01*
X280264Y40078D01*
X280253Y40139D01*
Y40144D01*
Y40172D01*
Y40211D01*
Y40261D01*
X280248Y40333D01*
Y40416D01*
X280242Y40516D01*
X280237Y40633D01*
Y40638D01*
Y40649D01*
Y40666D01*
Y40688D01*
X280231Y40749D01*
Y40821D01*
X280225Y40899D01*
Y40982D01*
X280220Y41066D01*
Y41132D01*
Y41143D01*
Y41166D01*
Y41210D01*
X280225Y41276D01*
X280231Y41354D01*
X280237Y41454D01*
X280248Y41571D01*
X280259Y41704D01*
Y41709D01*
Y41721D01*
X280264Y41743D01*
Y41765D01*
X280270Y41798D01*
X280275Y41837D01*
X280281Y41920D01*
X280292Y42015D01*
X280297Y42109D01*
X280303Y42198D01*
Y42276D01*
Y42281D01*
Y42298D01*
Y42320D01*
Y42359D01*
X280297Y42403D01*
X280292Y42459D01*
X280286Y42520D01*
X280281Y42592D01*
Y42603D01*
Y42625D01*
X280275Y42664D01*
Y42714D01*
X280270Y42819D01*
X280264Y42869D01*
Y42914D01*
Y42919D01*
Y42936D01*
X280270Y42958D01*
X280275Y42986D01*
X280292Y43053D01*
X280309Y43086D01*
X280331Y43119D01*
X280336Y43125D01*
X280347Y43136D01*
X280364Y43152D01*
X280386Y43175D01*
X280420Y43191D01*
X280453Y43208D01*
X280497Y43224D01*
X280547D01*
X281052Y43180D01*
D02*
G37*
G36*
X277012Y43358D02*
X277062Y43336D01*
X277084Y43325D01*
X277106Y43302D01*
X277112D01*
X277117Y43291D01*
X277140Y43258D01*
X277156Y43213D01*
X277167Y43180D01*
Y43147D01*
Y43141D01*
Y43130D01*
Y43108D01*
Y43086D01*
X277173Y43053D01*
Y43014D01*
X277178Y42919D01*
Y42914D01*
Y42897D01*
X277184Y42875D01*
Y42842D01*
X277189Y42770D01*
Y42692D01*
X277173Y42020D01*
Y42015D01*
Y42004D01*
Y41987D01*
Y41959D01*
Y41926D01*
X277167Y41887D01*
Y41793D01*
Y41682D01*
Y41560D01*
Y41426D01*
Y41288D01*
X277173D01*
X277178Y41299D01*
X277195Y41310D01*
X277217Y41326D01*
X277273Y41371D01*
X277345Y41426D01*
X277428Y41499D01*
X277517Y41582D01*
X277617Y41671D01*
X277717Y41765D01*
X278177Y42242D01*
X278183Y42248D01*
X278188Y42253D01*
X278222Y42281D01*
X278272Y42303D01*
X278299Y42309D01*
X278327Y42314D01*
X278344D01*
X278377Y42309D01*
X278427Y42287D01*
X278449Y42270D01*
X278477Y42248D01*
X278483Y42242D01*
X278488Y42237D01*
X278510Y42203D01*
X278533Y42159D01*
X278544Y42126D01*
Y42098D01*
Y42092D01*
Y42087D01*
X278538Y42053D01*
X278516Y42009D01*
X278505Y41987D01*
X278483Y41959D01*
X278477Y41954D01*
X278471Y41948D01*
X278455Y41931D01*
X278438Y41909D01*
X278383Y41848D01*
X278305Y41765D01*
X278211Y41671D01*
X278100Y41560D01*
X277978Y41443D01*
X277839Y41315D01*
X278305Y40683D01*
X278311Y40677D01*
X278322Y40666D01*
X278333Y40644D01*
X278355Y40611D01*
X278377Y40577D01*
X278405Y40538D01*
X278466Y40450D01*
X278527Y40350D01*
X278577Y40261D01*
X278599Y40216D01*
X278616Y40178D01*
X278621Y40144D01*
X278627Y40117D01*
Y40111D01*
Y40106D01*
X278621Y40067D01*
X278599Y40022D01*
X278583Y40000D01*
X278560Y39978D01*
X278555D01*
X278549Y39967D01*
X278516Y39950D01*
X278466Y39928D01*
X278438Y39922D01*
X278405Y39917D01*
X278388D01*
X278366Y39922D01*
X278338Y39933D01*
X278311Y39944D01*
X278283Y39967D01*
X278255Y39994D01*
X278227Y40033D01*
X278222Y40044D01*
X278205Y40072D01*
X278183Y40117D01*
X278144Y40178D01*
X278100Y40250D01*
X278039Y40333D01*
X277972Y40427D01*
X277894Y40533D01*
X277522Y41038D01*
X277517Y41032D01*
X277500Y41021D01*
X277473Y40999D01*
X277428Y40971D01*
X277378Y40932D01*
X277312Y40883D01*
X277234Y40827D01*
X277145Y40766D01*
Y40760D01*
Y40749D01*
Y40733D01*
X277140Y40710D01*
Y40683D01*
Y40644D01*
X277134Y40566D01*
X277129Y40466D01*
Y40361D01*
X277123Y40250D01*
Y40133D01*
Y40128D01*
Y40117D01*
X277117Y40100D01*
Y40078D01*
X277095Y40028D01*
X277084Y40005D01*
X277062Y39983D01*
X277051Y39972D01*
X277023Y39956D01*
X276979Y39933D01*
X276951Y39928D01*
X276918Y39922D01*
X276906D01*
X276884Y39928D01*
X276851Y39939D01*
X276812Y39956D01*
X276773Y39989D01*
X276740Y40044D01*
X276729Y40072D01*
X276718Y40111D01*
X276707Y40155D01*
Y40205D01*
Y40211D01*
Y40239D01*
Y40277D01*
X276712Y40333D01*
Y40411D01*
X276718Y40499D01*
X276723Y40605D01*
X276729Y40727D01*
Y40733D01*
Y40744D01*
Y40760D01*
X276734Y40782D01*
X276740Y40849D01*
X276746Y40921D01*
Y41010D01*
X276751Y41093D01*
X276757Y41177D01*
Y41249D01*
Y41254D01*
Y41265D01*
Y41282D01*
Y41304D01*
Y41337D01*
Y41371D01*
Y41460D01*
Y41565D01*
Y41687D01*
X276762Y41826D01*
Y41976D01*
Y41981D01*
Y41993D01*
Y42015D01*
Y42042D01*
Y42081D01*
X276768Y42120D01*
Y42220D01*
Y42336D01*
X276773Y42459D01*
Y42581D01*
Y42703D01*
Y42708D01*
Y42720D01*
Y42742D01*
Y42764D01*
Y42797D01*
X276768Y42836D01*
X276762Y42925D01*
Y42930D01*
Y42947D01*
Y42969D01*
Y43003D01*
X276757Y43075D01*
Y43147D01*
Y43152D01*
Y43163D01*
X276762Y43180D01*
Y43202D01*
X276779Y43252D01*
X276812Y43302D01*
Y43308D01*
X276823Y43313D01*
X276851Y43336D01*
X276901Y43352D01*
X276929Y43363D01*
X276979D01*
X277012Y43358D01*
D02*
G37*
G36*
X289871Y42209D02*
X289893Y42198D01*
X289927Y42181D01*
X289954Y42159D01*
X289982Y42131D01*
X290004Y42087D01*
X290543Y40616D01*
Y40622D01*
X290548Y40633D01*
X290560Y40649D01*
X290571Y40677D01*
X290587Y40716D01*
X290604Y40755D01*
X290626Y40805D01*
X290648Y40866D01*
X290676Y40932D01*
X290709Y41005D01*
X290743Y41082D01*
X290776Y41171D01*
X290815Y41265D01*
X290854Y41365D01*
X290893Y41476D01*
X290937Y41593D01*
X290942Y41598D01*
X290948Y41626D01*
X290959Y41659D01*
X290981Y41715D01*
X291003Y41781D01*
X291037Y41865D01*
X291070Y41959D01*
X291114Y42065D01*
X291120Y42070D01*
X291126Y42087D01*
X291142Y42109D01*
X291164Y42137D01*
X291192Y42159D01*
X291220Y42181D01*
X291259Y42198D01*
X291303Y42203D01*
X291320D01*
X291353Y42198D01*
X291403Y42176D01*
X291425Y42164D01*
X291453Y42142D01*
X291459D01*
X291464Y42131D01*
X291486Y42103D01*
X291509Y42053D01*
X291520Y42026D01*
Y41993D01*
Y41987D01*
Y41981D01*
X291514Y41970D01*
X291509Y41948D01*
X291503Y41926D01*
X291492Y41892D01*
X291475Y41854D01*
X291459Y41804D01*
X291436Y41743D01*
X291409Y41671D01*
X291370Y41582D01*
X291331Y41482D01*
X291286Y41371D01*
X291231Y41243D01*
X291170Y41099D01*
X290743Y40106D01*
Y40100D01*
X290737Y40078D01*
X290732Y40044D01*
X290715Y40011D01*
X290693Y39978D01*
X290654Y39944D01*
X290609Y39922D01*
X290548Y39917D01*
X290543D01*
X290521Y39922D01*
X290498Y39928D01*
X290465Y39939D01*
X290426Y39961D01*
X290387Y39994D01*
X290354Y40033D01*
X290326Y40094D01*
X290004Y40944D01*
X289627Y41909D01*
Y41920D01*
X289621Y41943D01*
X289616Y41970D01*
X289610Y42004D01*
Y42009D01*
Y42020D01*
X289616Y42037D01*
Y42053D01*
X289638Y42103D01*
X289649Y42131D01*
X289671Y42153D01*
X289677Y42159D01*
X289683Y42164D01*
X289716Y42187D01*
X289766Y42203D01*
X289794Y42214D01*
X289849D01*
X289871Y42209D01*
D02*
G37*
G36*
X292974Y43258D02*
X293013D01*
X293057Y43247D01*
X293112Y43241D01*
X293168Y43224D01*
X293234Y43202D01*
X293301Y43180D01*
X293373Y43147D01*
X293445Y43108D01*
X293518Y43064D01*
X293584Y43008D01*
X293656Y42947D01*
X293717Y42875D01*
X293778Y42792D01*
X293784Y42786D01*
X293790Y42775D01*
X293806Y42753D01*
X293823Y42720D01*
X293840Y42681D01*
X293867Y42631D01*
X293889Y42575D01*
X293917Y42514D01*
X293939Y42442D01*
X293967Y42370D01*
X293989Y42287D01*
X294006Y42198D01*
X294039Y42009D01*
X294045Y41904D01*
X294050Y41798D01*
Y41787D01*
Y41759D01*
Y41709D01*
X294045Y41643D01*
X294039Y41565D01*
X294034Y41476D01*
X294028Y41376D01*
X294011Y41265D01*
X293978Y41038D01*
X293923Y40805D01*
X293889Y40688D01*
X293851Y40577D01*
X293806Y40477D01*
X293751Y40383D01*
X293745Y40377D01*
X293740Y40361D01*
X293717Y40339D01*
X293695Y40311D01*
X293662Y40277D01*
X293623Y40233D01*
X293579Y40194D01*
X293529Y40150D01*
X293468Y40106D01*
X293401Y40067D01*
X293329Y40028D01*
X293246Y39989D01*
X293162Y39961D01*
X293068Y39939D01*
X292963Y39922D01*
X292857Y39917D01*
X292829D01*
X292796Y39922D01*
X292752Y39928D01*
X292702Y39933D01*
X292641Y39950D01*
X292574Y39967D01*
X292502Y39989D01*
X292424Y40022D01*
X292347Y40061D01*
X292269Y40106D01*
X292197Y40161D01*
X292119Y40228D01*
X292047Y40305D01*
X291986Y40400D01*
X291925Y40499D01*
Y40505D01*
X291914Y40522D01*
X291903Y40544D01*
X291891Y40583D01*
X291875Y40627D01*
X291853Y40677D01*
X291836Y40744D01*
X291814Y40816D01*
X291792Y40894D01*
X291775Y40982D01*
X291753Y41077D01*
X291736Y41182D01*
X291725Y41293D01*
X291714Y41410D01*
X291703Y41532D01*
Y41665D01*
Y41671D01*
Y41693D01*
Y41726D01*
X291708Y41770D01*
X291714Y41820D01*
X291719Y41881D01*
X291725Y41954D01*
X291742Y42026D01*
X291775Y42192D01*
X291825Y42370D01*
X291858Y42464D01*
X291897Y42553D01*
X291941Y42642D01*
X291991Y42731D01*
X291997Y42736D01*
X292008Y42753D01*
X292025Y42781D01*
X292052Y42814D01*
X292086Y42853D01*
X292130Y42897D01*
X292180Y42947D01*
X292236Y42997D01*
X292297Y43047D01*
X292369Y43097D01*
X292441Y43141D01*
X292524Y43180D01*
X292613Y43213D01*
X292707Y43241D01*
X292813Y43258D01*
X292918Y43263D01*
X292940D01*
X292974Y43258D01*
D02*
G37*
G36*
X290539Y35758D02*
X290578D01*
X290622Y35747D01*
X290678Y35741D01*
X290733Y35724D01*
X290800Y35702D01*
X290866Y35680D01*
X290939Y35647D01*
X291011Y35608D01*
X291083Y35564D01*
X291149Y35508D01*
X291222Y35447D01*
X291283Y35375D01*
X291344Y35292D01*
X291349Y35286D01*
X291355Y35275D01*
X291371Y35253D01*
X291388Y35219D01*
X291405Y35181D01*
X291432Y35131D01*
X291455Y35075D01*
X291482Y35014D01*
X291505Y34942D01*
X291532Y34870D01*
X291555Y34787D01*
X291571Y34698D01*
X291605Y34509D01*
X291610Y34404D01*
X291616Y34298D01*
Y34287D01*
Y34259D01*
Y34209D01*
X291610Y34143D01*
X291605Y34065D01*
X291599Y33976D01*
X291594Y33876D01*
X291577Y33765D01*
X291544Y33538D01*
X291488Y33305D01*
X291455Y33188D01*
X291416Y33077D01*
X291371Y32977D01*
X291316Y32883D01*
X291310Y32877D01*
X291305Y32861D01*
X291283Y32838D01*
X291261Y32811D01*
X291227Y32778D01*
X291188Y32733D01*
X291144Y32694D01*
X291094Y32650D01*
X291033Y32605D01*
X290966Y32567D01*
X290894Y32528D01*
X290811Y32489D01*
X290728Y32461D01*
X290633Y32439D01*
X290528Y32422D01*
X290422Y32417D01*
X290395D01*
X290361Y32422D01*
X290317Y32428D01*
X290267Y32433D01*
X290206Y32450D01*
X290139Y32467D01*
X290067Y32489D01*
X289990Y32522D01*
X289912Y32561D01*
X289834Y32605D01*
X289762Y32661D01*
X289684Y32728D01*
X289612Y32805D01*
X289551Y32900D01*
X289490Y33000D01*
Y33005D01*
X289479Y33022D01*
X289468Y33044D01*
X289457Y33083D01*
X289440Y33127D01*
X289418Y33177D01*
X289401Y33244D01*
X289379Y33316D01*
X289357Y33393D01*
X289340Y33482D01*
X289318Y33577D01*
X289301Y33682D01*
X289290Y33793D01*
X289279Y33910D01*
X289268Y34032D01*
Y34165D01*
Y34170D01*
Y34193D01*
Y34226D01*
X289274Y34270D01*
X289279Y34320D01*
X289285Y34381D01*
X289290Y34454D01*
X289307Y34526D01*
X289340Y34692D01*
X289390Y34870D01*
X289423Y34964D01*
X289462Y35053D01*
X289507Y35142D01*
X289557Y35231D01*
X289562Y35236D01*
X289573Y35253D01*
X289590Y35280D01*
X289618Y35314D01*
X289651Y35353D01*
X289695Y35397D01*
X289745Y35447D01*
X289801Y35497D01*
X289862Y35547D01*
X289934Y35597D01*
X290006Y35641D01*
X290089Y35680D01*
X290178Y35713D01*
X290273Y35741D01*
X290378Y35758D01*
X290483Y35763D01*
X290506D01*
X290539Y35758D01*
D02*
G37*
G36*
X287975Y35719D02*
X288008Y35713D01*
X288091Y35702D01*
X288186Y35680D01*
X288291Y35647D01*
X288397Y35597D01*
X288497Y35536D01*
X288502D01*
X288508Y35525D01*
X288541Y35497D01*
X288591Y35453D01*
X288647Y35392D01*
X288702Y35314D01*
X288752Y35225D01*
X288785Y35120D01*
X288791Y35064D01*
X288796Y35003D01*
Y34992D01*
Y34970D01*
X288791Y34925D01*
Y34875D01*
X288780Y34814D01*
X288769Y34748D01*
X288757Y34681D01*
X288735Y34609D01*
Y34603D01*
X288724Y34581D01*
X288707Y34542D01*
X288691Y34504D01*
X288663Y34454D01*
X288630Y34398D01*
X288591Y34337D01*
X288546Y34282D01*
X288541Y34270D01*
X288519Y34248D01*
X288480Y34209D01*
X288424Y34159D01*
X288347Y34098D01*
X288258Y34026D01*
X288147Y33943D01*
X288014Y33860D01*
X288008D01*
X287997Y33849D01*
X287975Y33838D01*
X287953Y33821D01*
X287880Y33777D01*
X287803Y33721D01*
X287714Y33660D01*
X287631Y33593D01*
X287553Y33538D01*
X287525Y33510D01*
X287498Y33482D01*
X287487Y33471D01*
X287459Y33438D01*
X287425Y33388D01*
X287381Y33321D01*
X287342Y33238D01*
X287303Y33138D01*
X287281Y33022D01*
X287270Y32961D01*
Y32900D01*
X287697Y32939D01*
X287742D01*
X287770Y32944D01*
X287808D01*
X287847Y32950D01*
X287947Y32955D01*
X288053D01*
X288158Y32961D01*
X288252Y32966D01*
X288397D01*
X288436Y32961D01*
X288480Y32955D01*
X288530Y32944D01*
X288635Y32911D01*
X288647Y32905D01*
X288669Y32894D01*
X288696Y32877D01*
X288735Y32855D01*
X288769Y32827D01*
X288802Y32794D01*
X288824Y32750D01*
X288830Y32705D01*
Y32700D01*
Y32694D01*
X288824Y32655D01*
X288802Y32605D01*
X288791Y32583D01*
X288769Y32555D01*
X288757Y32544D01*
X288730Y32528D01*
X288685Y32506D01*
X288657Y32500D01*
X288630Y32495D01*
X288619D01*
X288591Y32500D01*
X288541Y32511D01*
X288480Y32528D01*
X288474D01*
X288463Y32533D01*
X288447Y32539D01*
X288424Y32544D01*
X288380Y32555D01*
X288336Y32561D01*
X288258D01*
X288213Y32555D01*
X288158D01*
X288091Y32550D01*
X288014Y32544D01*
X287981D01*
X287942Y32539D01*
X287892D01*
X287786Y32533D01*
X287631D01*
X287597Y32528D01*
X287553Y32522D01*
X287503Y32517D01*
X287448Y32511D01*
X287420D01*
X287392Y32506D01*
X287359D01*
X287276Y32500D01*
X287237Y32495D01*
X287165D01*
X287137Y32500D01*
X287131D01*
X287115Y32506D01*
X287092Y32511D01*
X287048D01*
X287020Y32517D01*
X286993Y32528D01*
X286959Y32544D01*
X286931Y32572D01*
X286904Y32605D01*
X286882Y32650D01*
Y32655D01*
X286876Y32667D01*
Y32683D01*
X286870Y32711D01*
X286865Y32744D01*
Y32789D01*
X286859Y32838D01*
Y32900D01*
Y32905D01*
Y32922D01*
Y32950D01*
X286865Y32983D01*
Y33022D01*
X286876Y33072D01*
X286893Y33183D01*
X286926Y33305D01*
X286970Y33438D01*
X287037Y33566D01*
X287081Y33632D01*
X287126Y33688D01*
X287131Y33693D01*
X287154Y33715D01*
X287192Y33749D01*
X287220Y33771D01*
X287253Y33799D01*
X287292Y33832D01*
X287337Y33871D01*
X287392Y33910D01*
X287453Y33960D01*
X287520Y34010D01*
X287597Y34065D01*
X287686Y34126D01*
X287781Y34193D01*
X287786D01*
X287792Y34204D01*
X287808Y34215D01*
X287831Y34226D01*
X287880Y34265D01*
X287942Y34309D01*
X288008Y34359D01*
X288075Y34415D01*
X288136Y34465D01*
X288180Y34509D01*
X288186Y34520D01*
X288208Y34548D01*
X288236Y34587D01*
X288275Y34648D01*
X288308Y34714D01*
X288336Y34798D01*
X288358Y34887D01*
X288363Y34981D01*
Y34986D01*
Y35003D01*
X288352Y35031D01*
X288341Y35064D01*
X288319Y35103D01*
X288291Y35142D01*
X288247Y35186D01*
X288186Y35225D01*
X288180Y35231D01*
X288158Y35242D01*
X288130Y35253D01*
X288091Y35275D01*
X288047Y35292D01*
X287992Y35303D01*
X287942Y35314D01*
X287886Y35319D01*
X287853D01*
X287814Y35314D01*
X287770Y35308D01*
X287714Y35292D01*
X287647Y35275D01*
X287586Y35247D01*
X287520Y35208D01*
X287220Y34970D01*
X287215D01*
X287204Y34959D01*
X287187Y34948D01*
X287165Y34936D01*
X287115Y34914D01*
X287092Y34909D01*
X287070Y34903D01*
X287059D01*
X287037Y34909D01*
X287004Y34914D01*
X286965Y34925D01*
X286926Y34948D01*
X286893Y34975D01*
X286870Y35020D01*
X286859Y35075D01*
Y35081D01*
Y35092D01*
X286865Y35109D01*
X286870Y35131D01*
X286893Y35186D01*
X286909Y35214D01*
X286937Y35242D01*
X286943Y35247D01*
X286948Y35253D01*
X286976Y35280D01*
X287026Y35319D01*
X287081Y35369D01*
X287148Y35425D01*
X287220Y35480D01*
X287292Y35530D01*
X287364Y35575D01*
X287370D01*
X287375Y35580D01*
X287409Y35597D01*
X287459Y35625D01*
X287525Y35652D01*
X287603Y35675D01*
X287692Y35702D01*
X287786Y35719D01*
X287886Y35724D01*
X287942D01*
X287975Y35719D01*
D02*
G37*
G36*
X294973Y35697D02*
X295007D01*
X295051Y35691D01*
X295157Y35680D01*
X295273Y35652D01*
X295390Y35619D01*
X295506Y35569D01*
X295612Y35503D01*
X295617D01*
X295623Y35491D01*
X295656Y35464D01*
X295701Y35414D01*
X295756Y35347D01*
X295812Y35258D01*
X295856Y35153D01*
X295889Y35031D01*
X295895Y34964D01*
X295900Y34892D01*
Y34887D01*
Y34870D01*
Y34848D01*
X295895Y34814D01*
X295889Y34776D01*
X295878Y34725D01*
X295850Y34626D01*
X295828Y34570D01*
X295800Y34515D01*
X295773Y34459D01*
X295734Y34409D01*
X295684Y34359D01*
X295634Y34309D01*
X295573Y34270D01*
X295501Y34237D01*
X295495D01*
X295479Y34232D01*
X295451Y34220D01*
X295417Y34209D01*
X295423D01*
X295428Y34204D01*
X295462Y34193D01*
X295512Y34165D01*
X295573Y34132D01*
X295639Y34093D01*
X295712Y34037D01*
X295778Y33976D01*
X295834Y33904D01*
X295839Y33893D01*
X295856Y33865D01*
X295878Y33821D01*
X295906Y33765D01*
X295934Y33688D01*
X295956Y33604D01*
X295972Y33505D01*
X295978Y33393D01*
Y33388D01*
Y33377D01*
Y33355D01*
X295972Y33327D01*
X295967Y33288D01*
X295961Y33249D01*
X295939Y33149D01*
X295906Y33038D01*
X295856Y32922D01*
X295823Y32861D01*
X295784Y32800D01*
X295734Y32744D01*
X295684Y32689D01*
X295678Y32683D01*
X295673Y32678D01*
X295656Y32661D01*
X295634Y32644D01*
X295601Y32622D01*
X295567Y32600D01*
X295484Y32550D01*
X295379Y32495D01*
X295256Y32450D01*
X295118Y32417D01*
X295046Y32411D01*
X294968Y32406D01*
X294912D01*
X294857Y32411D01*
X294779Y32422D01*
X294690Y32439D01*
X294596Y32461D01*
X294496Y32489D01*
X294402Y32533D01*
X294396D01*
X294391Y32539D01*
X294357Y32561D01*
X294307Y32600D01*
X294246Y32644D01*
X294185Y32705D01*
X294119Y32783D01*
X294063Y32866D01*
X294019Y32966D01*
Y32972D01*
X294013Y32988D01*
X294008Y33011D01*
Y33038D01*
Y33044D01*
Y33055D01*
X294013Y33088D01*
X294036Y33133D01*
X294047Y33155D01*
X294069Y33177D01*
X294074Y33183D01*
X294080Y33188D01*
X294113Y33210D01*
X294158Y33227D01*
X294191Y33238D01*
X294235D01*
X294269Y33227D01*
X294313Y33205D01*
X294341Y33188D01*
X294363Y33160D01*
X294457Y33011D01*
X294463Y33005D01*
X294474Y32994D01*
X294491Y32977D01*
X294513Y32955D01*
X294541Y32933D01*
X294579Y32905D01*
X294663Y32861D01*
X294668D01*
X294685Y32855D01*
X294713Y32844D01*
X294752Y32838D01*
X294796Y32827D01*
X294846Y32816D01*
X294901Y32811D01*
X295007D01*
X295051Y32816D01*
X295107Y32827D01*
X295168Y32844D01*
X295240Y32872D01*
X295306Y32905D01*
X295373Y32950D01*
X295379Y32955D01*
X295401Y32977D01*
X295428Y33011D01*
X295467Y33055D01*
X295501Y33105D01*
X295529Y33172D01*
X295551Y33244D01*
X295556Y33321D01*
Y33327D01*
Y33338D01*
Y33349D01*
X295551Y33371D01*
X295545Y33432D01*
X295529Y33499D01*
X295501Y33582D01*
X295456Y33665D01*
X295401Y33743D01*
X295323Y33821D01*
X295312Y33826D01*
X295284Y33849D01*
X295240Y33876D01*
X295179Y33910D01*
X295101Y33943D01*
X295007Y33976D01*
X294896Y34004D01*
X294774Y34021D01*
X294763D01*
X294740Y34026D01*
X294702Y34037D01*
X294663Y34054D01*
X294618Y34076D01*
X294579Y34110D01*
X294557Y34154D01*
X294546Y34209D01*
Y34215D01*
X294552Y34232D01*
X294557Y34254D01*
X294568Y34282D01*
X294590Y34309D01*
X294624Y34343D01*
X294663Y34370D01*
X294724Y34398D01*
X295229Y34520D01*
X295234D01*
X295251Y34531D01*
X295279Y34542D01*
X295312Y34559D01*
X295379Y34603D01*
X295417Y34631D01*
X295445Y34664D01*
X295451Y34670D01*
X295456Y34681D01*
X295467Y34698D01*
X295484Y34725D01*
X295495Y34759D01*
X295506Y34792D01*
X295517Y34837D01*
X295523Y34881D01*
Y34887D01*
Y34914D01*
X295517Y34948D01*
X295506Y34986D01*
X295490Y35031D01*
X295462Y35081D01*
X295428Y35131D01*
X295379Y35175D01*
X295373Y35181D01*
X295351Y35192D01*
X295318Y35214D01*
X295268Y35236D01*
X295207Y35258D01*
X295129Y35280D01*
X295046Y35292D01*
X294946Y35297D01*
X294923D01*
X294896Y35292D01*
X294857Y35286D01*
X294812Y35280D01*
X294768Y35269D01*
X294718Y35247D01*
X294668Y35225D01*
X294430Y35075D01*
X294418Y35070D01*
X294391Y35059D01*
X294357Y35042D01*
X294319Y35036D01*
X294307D01*
X294269Y35042D01*
X294224Y35064D01*
X294197Y35075D01*
X294174Y35097D01*
Y35103D01*
X294163Y35109D01*
X294146Y35142D01*
X294130Y35186D01*
X294119Y35242D01*
Y35247D01*
X294124Y35269D01*
X294135Y35303D01*
X294158Y35347D01*
X294197Y35392D01*
X294224Y35419D01*
X294252Y35447D01*
X294291Y35475D01*
X294330Y35508D01*
X294380Y35536D01*
X294435Y35564D01*
X294441D01*
X294446Y35569D01*
X294485Y35586D01*
X294535Y35608D01*
X294602Y35636D01*
X294674Y35658D01*
X294752Y35680D01*
X294824Y35697D01*
X294896Y35702D01*
X294940D01*
X294973Y35697D01*
D02*
G37*
G36*
X283085Y35758D02*
X283124D01*
X283169Y35747D01*
X283224Y35741D01*
X283280Y35724D01*
X283346Y35702D01*
X283413Y35680D01*
X283485Y35647D01*
X283557Y35608D01*
X283629Y35564D01*
X283696Y35508D01*
X283768Y35447D01*
X283829Y35375D01*
X283890Y35292D01*
X283896Y35286D01*
X283901Y35275D01*
X283918Y35253D01*
X283934Y35219D01*
X283951Y35181D01*
X283979Y35131D01*
X284001Y35075D01*
X284029Y35014D01*
X284051Y34942D01*
X284079Y34870D01*
X284101Y34787D01*
X284118Y34698D01*
X284151Y34509D01*
X284156Y34404D01*
X284162Y34298D01*
Y34287D01*
Y34259D01*
Y34209D01*
X284156Y34143D01*
X284151Y34065D01*
X284145Y33976D01*
X284140Y33876D01*
X284123Y33765D01*
X284090Y33538D01*
X284034Y33305D01*
X284001Y33188D01*
X283962Y33077D01*
X283918Y32977D01*
X283862Y32883D01*
X283857Y32877D01*
X283851Y32861D01*
X283829Y32838D01*
X283807Y32811D01*
X283773Y32778D01*
X283735Y32733D01*
X283690Y32694D01*
X283640Y32650D01*
X283579Y32605D01*
X283513Y32567D01*
X283440Y32528D01*
X283357Y32489D01*
X283274Y32461D01*
X283180Y32439D01*
X283074Y32422D01*
X282969Y32417D01*
X282941D01*
X282908Y32422D01*
X282863Y32428D01*
X282813Y32433D01*
X282752Y32450D01*
X282686Y32467D01*
X282614Y32489D01*
X282536Y32522D01*
X282458Y32561D01*
X282381Y32605D01*
X282308Y32661D01*
X282231Y32728D01*
X282158Y32805D01*
X282097Y32900D01*
X282036Y33000D01*
Y33005D01*
X282025Y33022D01*
X282014Y33044D01*
X282003Y33083D01*
X281986Y33127D01*
X281964Y33177D01*
X281948Y33244D01*
X281925Y33316D01*
X281903Y33393D01*
X281887Y33482D01*
X281864Y33577D01*
X281848Y33682D01*
X281837Y33793D01*
X281825Y33910D01*
X281814Y34032D01*
Y34165D01*
Y34170D01*
Y34193D01*
Y34226D01*
X281820Y34270D01*
X281825Y34320D01*
X281831Y34381D01*
X281837Y34454D01*
X281853Y34526D01*
X281887Y34692D01*
X281937Y34870D01*
X281970Y34964D01*
X282009Y35053D01*
X282053Y35142D01*
X282103Y35231D01*
X282109Y35236D01*
X282120Y35253D01*
X282136Y35280D01*
X282164Y35314D01*
X282197Y35353D01*
X282242Y35397D01*
X282292Y35447D01*
X282347Y35497D01*
X282408Y35547D01*
X282480Y35597D01*
X282553Y35641D01*
X282636Y35680D01*
X282725Y35713D01*
X282819Y35741D01*
X282924Y35758D01*
X283030Y35763D01*
X283052D01*
X283085Y35758D01*
D02*
G37*
G36*
X287934Y43191D02*
X287962Y43186D01*
X287990Y43175D01*
X288018Y43147D01*
X288051Y43113D01*
X288073Y43069D01*
X288090Y43003D01*
Y42997D01*
X288095Y42975D01*
X288101Y42936D01*
X288112Y42886D01*
X288118Y42825D01*
X288123Y42753D01*
X288128Y42675D01*
Y42586D01*
Y42581D01*
Y42570D01*
Y42553D01*
X288123Y42536D01*
X288106Y42481D01*
X288079Y42431D01*
Y42425D01*
X288068Y42420D01*
X288040Y42392D01*
X287990Y42364D01*
X287957Y42359D01*
X287918Y42353D01*
X287895D01*
X287873Y42364D01*
X287845Y42375D01*
X287812Y42392D01*
X287779Y42420D01*
X287746Y42459D01*
X287718Y42509D01*
Y42514D01*
X287707Y42531D01*
X287696Y42553D01*
X287679Y42581D01*
X287646Y42631D01*
X287624Y42653D01*
X287607Y42669D01*
X287596Y42675D01*
X287585Y42681D01*
X287562Y42686D01*
X287535D01*
X287496Y42692D01*
X287452Y42697D01*
X287379D01*
X287363Y42692D01*
X287335D01*
X287307Y42681D01*
X287274Y42675D01*
X287191Y42642D01*
X287141Y42614D01*
X287091Y42586D01*
X287035Y42547D01*
X286974Y42503D01*
X286913Y42448D01*
X286852Y42386D01*
X286780Y42314D01*
X286713Y42231D01*
X286708Y42226D01*
X286691Y42203D01*
X286669Y42170D01*
X286636Y42126D01*
X286597Y42070D01*
X286558Y42004D01*
X286508Y41931D01*
X286463Y41848D01*
X286419Y41759D01*
X286375Y41665D01*
X286330Y41571D01*
X286292Y41471D01*
X286258Y41365D01*
X286236Y41260D01*
X286219Y41154D01*
X286214Y41049D01*
Y41043D01*
Y41038D01*
X286219Y41005D01*
X286225Y40955D01*
X286236Y40888D01*
X286258Y40816D01*
X286286Y40738D01*
X286330Y40660D01*
X286386Y40583D01*
X286391Y40572D01*
X286419Y40549D01*
X286458Y40522D01*
X286508Y40483D01*
X286569Y40444D01*
X286641Y40416D01*
X286724Y40394D01*
X286813Y40383D01*
X286852D01*
X286891Y40389D01*
X286952Y40400D01*
X287013Y40411D01*
X287091Y40427D01*
X287168Y40455D01*
X287252Y40494D01*
X287257Y40499D01*
X287274Y40505D01*
X287302Y40522D01*
X287340Y40549D01*
X287396Y40583D01*
X287457Y40627D01*
X287535Y40677D01*
X287624Y40744D01*
X287629Y40749D01*
X287640Y40760D01*
X287662Y40771D01*
X287690Y40788D01*
X287746Y40821D01*
X287773Y40827D01*
X287801Y40832D01*
X287818D01*
X287834Y40827D01*
X287857Y40821D01*
X287907Y40805D01*
X287934Y40782D01*
X287957Y40760D01*
X287962Y40755D01*
X287968Y40749D01*
X287990Y40716D01*
X288006Y40672D01*
X288018Y40638D01*
Y40611D01*
Y40605D01*
Y40594D01*
X288012Y40577D01*
X288006Y40555D01*
X287995Y40527D01*
X287984Y40499D01*
X287962Y40472D01*
X287934Y40444D01*
X287929Y40439D01*
X287912Y40422D01*
X287879Y40400D01*
X287840Y40366D01*
X287790Y40327D01*
X287729Y40289D01*
X287662Y40244D01*
X287585Y40200D01*
X287507Y40150D01*
X287418Y40106D01*
X287324Y40067D01*
X287229Y40028D01*
X287130Y39994D01*
X287024Y39972D01*
X286919Y39956D01*
X286813Y39950D01*
X286769D01*
X286741Y39956D01*
X286702Y39961D01*
X286663Y39967D01*
X286558Y39994D01*
X286447Y40033D01*
X286386Y40061D01*
X286319Y40089D01*
X286258Y40128D01*
X286197Y40172D01*
X286136Y40222D01*
X286081Y40283D01*
X286075Y40289D01*
X286069Y40300D01*
X286053Y40316D01*
X286036Y40339D01*
X286014Y40372D01*
X285992Y40411D01*
X285964Y40450D01*
X285936Y40499D01*
X285881Y40611D01*
X285836Y40738D01*
X285803Y40883D01*
X285798Y40960D01*
X285792Y41043D01*
Y41054D01*
Y41077D01*
X285798Y41116D01*
X285803Y41166D01*
X285809Y41232D01*
X285825Y41310D01*
X285842Y41399D01*
X285864Y41493D01*
X285897Y41598D01*
X285936Y41715D01*
X285986Y41837D01*
X286042Y41959D01*
X286108Y42092D01*
X286192Y42226D01*
X286280Y42364D01*
X286386Y42503D01*
X286391Y42509D01*
X286408Y42531D01*
X286436Y42559D01*
X286475Y42603D01*
X286519Y42647D01*
X286569Y42703D01*
X286630Y42758D01*
X286697Y42819D01*
X286774Y42875D01*
X286852Y42930D01*
X286935Y42986D01*
X287019Y43030D01*
X287113Y43075D01*
X287202Y43102D01*
X287296Y43125D01*
X287390Y43130D01*
X287452D01*
X287512Y43125D01*
X287574Y43119D01*
X287590D01*
X287624Y43113D01*
X287668Y43102D01*
X287718Y43086D01*
X287723Y43091D01*
X287729Y43102D01*
X287746Y43119D01*
X287768Y43141D01*
X287796Y43163D01*
X287829Y43180D01*
X287868Y43191D01*
X287912Y43197D01*
X287918D01*
X287934Y43191D01*
D02*
G37*
G36*
X279433Y35902D02*
X279478Y35886D01*
X279528Y35852D01*
X279533D01*
X279539Y35841D01*
X279561Y35819D01*
X279578Y35780D01*
X279589Y35758D01*
Y35730D01*
Y35719D01*
X279583Y35697D01*
X279578Y35658D01*
X279561Y35614D01*
X279328Y35042D01*
Y35036D01*
X279322Y35025D01*
X279311Y35003D01*
X279300Y34975D01*
X279289Y34936D01*
X279273Y34892D01*
X279250Y34842D01*
X279228Y34787D01*
X279200Y34720D01*
X279167Y34653D01*
X279100Y34498D01*
X279023Y34326D01*
X278928Y34143D01*
X278468Y33277D01*
X278085Y32439D01*
Y32433D01*
X278074Y32417D01*
X278063Y32400D01*
X278046Y32378D01*
X278018Y32350D01*
X277991Y32333D01*
X277957Y32317D01*
X277918Y32311D01*
X277907D01*
X277874Y32317D01*
X277830Y32333D01*
X277780Y32367D01*
X277768Y32378D01*
X277752Y32400D01*
X277735Y32445D01*
X277724Y32495D01*
Y32500D01*
Y32511D01*
X277730Y32533D01*
X277735Y32561D01*
Y32567D01*
X277741Y32583D01*
X277752Y32611D01*
X277768Y32644D01*
X277785Y32694D01*
X277813Y32750D01*
X277841Y32816D01*
X277874Y32894D01*
X277913Y32983D01*
X277957Y33077D01*
X278007Y33188D01*
X278068Y33305D01*
X278129Y33432D01*
X278196Y33566D01*
X278268Y33710D01*
X278351Y33865D01*
X278357Y33876D01*
X278373Y33904D01*
X278396Y33949D01*
X278423Y34004D01*
X278462Y34076D01*
X278507Y34159D01*
X278551Y34248D01*
X278601Y34348D01*
X278701Y34559D01*
X278806Y34776D01*
X278856Y34881D01*
X278901Y34981D01*
X278940Y35081D01*
X278973Y35170D01*
X278978Y35181D01*
X278984Y35203D01*
X279001Y35236D01*
X279017Y35286D01*
X279039Y35342D01*
X279067Y35408D01*
X279128Y35541D01*
X279195Y35680D01*
X279234Y35741D01*
X279267Y35802D01*
X279300Y35847D01*
X279334Y35886D01*
X279361Y35908D01*
X279389Y35913D01*
X279400D01*
X279433Y35902D01*
D02*
G37*
G36*
X286199D02*
X286243Y35886D01*
X286293Y35852D01*
X286299D01*
X286304Y35841D01*
X286327Y35819D01*
X286343Y35780D01*
X286354Y35758D01*
Y35730D01*
Y35719D01*
X286349Y35697D01*
X286343Y35658D01*
X286327Y35614D01*
X286093Y35042D01*
Y35036D01*
X286088Y35025D01*
X286077Y35003D01*
X286066Y34975D01*
X286055Y34936D01*
X286038Y34892D01*
X286016Y34842D01*
X285994Y34787D01*
X285966Y34720D01*
X285932Y34653D01*
X285866Y34498D01*
X285788Y34326D01*
X285694Y34143D01*
X285233Y33277D01*
X284850Y32439D01*
Y32433D01*
X284839Y32417D01*
X284828Y32400D01*
X284811Y32378D01*
X284784Y32350D01*
X284756Y32333D01*
X284723Y32317D01*
X284684Y32311D01*
X284673D01*
X284639Y32317D01*
X284595Y32333D01*
X284545Y32367D01*
X284534Y32378D01*
X284517Y32400D01*
X284501Y32445D01*
X284489Y32495D01*
Y32500D01*
Y32511D01*
X284495Y32533D01*
X284501Y32561D01*
Y32567D01*
X284506Y32583D01*
X284517Y32611D01*
X284534Y32644D01*
X284551Y32694D01*
X284578Y32750D01*
X284606Y32816D01*
X284639Y32894D01*
X284678Y32983D01*
X284723Y33077D01*
X284773Y33188D01*
X284834Y33305D01*
X284895Y33432D01*
X284961Y33566D01*
X285033Y33710D01*
X285117Y33865D01*
X285122Y33876D01*
X285139Y33904D01*
X285161Y33949D01*
X285189Y34004D01*
X285228Y34076D01*
X285272Y34159D01*
X285316Y34248D01*
X285366Y34348D01*
X285466Y34559D01*
X285572Y34776D01*
X285622Y34881D01*
X285666Y34981D01*
X285705Y35081D01*
X285738Y35170D01*
X285744Y35181D01*
X285749Y35203D01*
X285766Y35236D01*
X285783Y35286D01*
X285805Y35342D01*
X285833Y35408D01*
X285894Y35541D01*
X285960Y35680D01*
X285999Y35741D01*
X286032Y35802D01*
X286066Y35847D01*
X286099Y35886D01*
X286127Y35908D01*
X286155Y35913D01*
X286166D01*
X286199Y35902D01*
D02*
G37*
G36*
X273310Y42187D02*
X273360Y42181D01*
X273421Y42170D01*
X273488Y42148D01*
X273565Y42126D01*
X273649Y42092D01*
X273654D01*
X273660Y42087D01*
X273693Y42070D01*
X273737Y42048D01*
X273793Y42015D01*
X273843Y41970D01*
X273887Y41926D01*
X273921Y41870D01*
X273926Y41843D01*
X273932Y41809D01*
Y41798D01*
X273926Y41776D01*
X273915Y41743D01*
X273893Y41709D01*
Y41704D01*
X273887Y41693D01*
Y41676D01*
X273882Y41648D01*
X273876Y41609D01*
X273871Y41565D01*
X273865Y41515D01*
X273860Y41449D01*
Y41443D01*
Y41415D01*
X273854Y41376D01*
Y41321D01*
Y41254D01*
X273848Y41177D01*
Y41082D01*
Y40982D01*
Y40977D01*
Y40971D01*
Y40938D01*
Y40894D01*
Y40832D01*
X273854Y40766D01*
X273860Y40699D01*
X273871Y40627D01*
X273882Y40566D01*
Y40561D01*
X273887Y40549D01*
X273893Y40522D01*
X273909Y40488D01*
X273926Y40439D01*
X273948Y40372D01*
X273976Y40294D01*
X274015Y40200D01*
Y40194D01*
X274026Y40172D01*
X274037Y40139D01*
X274059Y40089D01*
X274076Y40050D01*
Y40044D01*
Y40039D01*
X274070Y40005D01*
X274048Y39961D01*
X274037Y39939D01*
X274015Y39917D01*
X274004Y39906D01*
X273976Y39889D01*
X273932Y39872D01*
X273876Y39861D01*
X273871D01*
X273843Y39872D01*
X273826Y39883D01*
X273798Y39900D01*
X273771Y39922D01*
X273732Y39956D01*
X273726Y39961D01*
X273715Y39972D01*
X273698Y39983D01*
X273682Y40005D01*
X273632Y40056D01*
X273593Y40111D01*
X273582Y40106D01*
X273560Y40094D01*
X273521Y40072D01*
X273477Y40050D01*
X273421Y40022D01*
X273360Y39994D01*
X273238Y39944D01*
X273232D01*
X273210Y39933D01*
X273182Y39928D01*
X273149Y39917D01*
X273066Y39900D01*
X272983Y39889D01*
X272938D01*
X272905Y39895D01*
X272861Y39900D01*
X272816Y39906D01*
X272711Y39922D01*
X272588Y39956D01*
X272472Y40005D01*
X272416Y40033D01*
X272361Y40072D01*
X272311Y40111D01*
X272267Y40161D01*
Y40167D01*
X272255Y40172D01*
X272250Y40189D01*
X272233Y40211D01*
X272217Y40239D01*
X272200Y40272D01*
X272183Y40311D01*
X272161Y40361D01*
X272139Y40411D01*
X272122Y40472D01*
X272106Y40538D01*
X272089Y40611D01*
X272078Y40688D01*
X272067Y40771D01*
X272056Y40860D01*
Y40960D01*
Y40966D01*
Y40982D01*
Y41010D01*
X272061Y41043D01*
X272067Y41088D01*
X272072Y41138D01*
X272083Y41193D01*
X272100Y41260D01*
X272139Y41393D01*
X272172Y41465D01*
X272206Y41537D01*
X272245Y41609D01*
X272289Y41687D01*
X272344Y41759D01*
X272405Y41826D01*
X272411Y41831D01*
X272422Y41843D01*
X272439Y41859D01*
X272466Y41881D01*
X272500Y41909D01*
X272544Y41943D01*
X272588Y41976D01*
X272639Y42009D01*
X272699Y42042D01*
X272761Y42076D01*
X272905Y42137D01*
X272983Y42159D01*
X273066Y42176D01*
X273149Y42187D01*
X273238Y42192D01*
X273271D01*
X273310Y42187D01*
D02*
G37*
G36*
X261200Y42170D02*
X261233Y42164D01*
X261272Y42153D01*
X261366Y42126D01*
X261416Y42109D01*
X261472Y42081D01*
X261522Y42048D01*
X261577Y42015D01*
X261627Y41965D01*
X261677Y41915D01*
X261722Y41854D01*
X261766Y41787D01*
Y41781D01*
X261772Y41770D01*
X261783Y41754D01*
X261794Y41732D01*
X261805Y41704D01*
X261822Y41665D01*
X261838Y41626D01*
X261849Y41576D01*
X261883Y41471D01*
X261910Y41343D01*
X261927Y41199D01*
X261932Y41043D01*
Y41038D01*
Y41021D01*
Y40999D01*
X261927Y40966D01*
X261922Y40927D01*
X261916Y40877D01*
X261910Y40827D01*
X261899Y40771D01*
X261866Y40644D01*
X261827Y40511D01*
X261766Y40377D01*
X261688Y40250D01*
X261683Y40244D01*
X261677Y40233D01*
X261661Y40216D01*
X261638Y40194D01*
X261611Y40161D01*
X261577Y40133D01*
X261500Y40067D01*
X261394Y39994D01*
X261272Y39939D01*
X261206Y39911D01*
X261133Y39895D01*
X261056Y39883D01*
X260972Y39878D01*
X260939D01*
X260911Y39883D01*
X260884D01*
X260850Y39889D01*
X260767Y39911D01*
X260673Y39939D01*
X260567Y39983D01*
X260467Y40050D01*
X260417Y40089D01*
X260367Y40133D01*
X260362Y40139D01*
X260356Y40144D01*
X260340Y40161D01*
X260323Y40189D01*
X260301Y40216D01*
X260279Y40250D01*
X260251Y40294D01*
X260223Y40339D01*
X260195Y40394D01*
X260173Y40450D01*
X260123Y40583D01*
X260090Y40738D01*
X260079Y40821D01*
X260073Y40910D01*
Y40916D01*
Y40932D01*
Y40955D01*
Y40988D01*
X260079Y41032D01*
X260084Y41082D01*
X260090Y41132D01*
X260096Y41193D01*
X260123Y41326D01*
X260168Y41465D01*
X260229Y41609D01*
X260267Y41682D01*
X260312Y41748D01*
X260317Y41754D01*
X260323Y41765D01*
X260345Y41787D01*
X260367Y41815D01*
X260395Y41848D01*
X260434Y41881D01*
X260473Y41920D01*
X260523Y41965D01*
X260578Y42004D01*
X260639Y42042D01*
X260706Y42076D01*
X260778Y42109D01*
X260861Y42137D01*
X260945Y42159D01*
X261033Y42170D01*
X261128Y42176D01*
X261167D01*
X261200Y42170D01*
D02*
G37*
G36*
X245382Y43297D02*
X245416D01*
X245455Y43291D01*
X245549Y43269D01*
X245654Y43241D01*
X245777Y43197D01*
X245904Y43130D01*
X245965Y43091D01*
X246032Y43047D01*
X246037Y43041D01*
X246048Y43036D01*
X246071Y43019D01*
X246093Y42997D01*
X246121Y42969D01*
X246154Y42936D01*
X246232Y42847D01*
X246304Y42747D01*
X246365Y42625D01*
X246387Y42559D01*
X246409Y42486D01*
X246420Y42409D01*
X246426Y42331D01*
Y42325D01*
Y42309D01*
Y42281D01*
X246420Y42242D01*
X246415Y42198D01*
X246404Y42142D01*
X246392Y42087D01*
X246376Y42026D01*
X246354Y41959D01*
X246320Y41887D01*
X246287Y41815D01*
X246248Y41748D01*
X246198Y41676D01*
X246143Y41609D01*
X246076Y41543D01*
X246004Y41482D01*
X246010D01*
X246015Y41476D01*
X246032Y41471D01*
X246054Y41460D01*
X246110Y41432D01*
X246182Y41393D01*
X246254Y41349D01*
X246332Y41293D01*
X246404Y41238D01*
X246470Y41177D01*
X246476Y41171D01*
X246498Y41149D01*
X246520Y41116D01*
X246553Y41071D01*
X246581Y41021D01*
X246609Y40960D01*
X246626Y40894D01*
X246631Y40821D01*
Y40810D01*
X246626Y40777D01*
X246615Y40733D01*
X246598Y40666D01*
X246565Y40594D01*
X246515Y40511D01*
X246481Y40466D01*
X246448Y40422D01*
X246404Y40377D01*
X246354Y40333D01*
X246343Y40327D01*
X246320Y40305D01*
X246282Y40277D01*
X246232Y40239D01*
X246176Y40200D01*
X246104Y40155D01*
X246032Y40117D01*
X245954Y40083D01*
X245949D01*
X245932Y40078D01*
X245904Y40067D01*
X245871Y40056D01*
X245821Y40039D01*
X245765Y40028D01*
X245699Y40011D01*
X245627Y39994D01*
X245543Y39972D01*
X245455Y39956D01*
X245355Y39944D01*
X245249Y39928D01*
X245133Y39917D01*
X245011Y39906D01*
X244883Y39900D01*
X244733D01*
X244716Y39906D01*
X244694Y39911D01*
X244667Y39922D01*
X244639Y39933D01*
X244611Y39956D01*
X244578Y39983D01*
X244572Y39989D01*
X244567Y40000D01*
X244555Y40017D01*
X244539Y40039D01*
X244511Y40089D01*
X244506Y40122D01*
X244500Y40155D01*
Y40771D01*
Y40777D01*
Y40788D01*
Y40805D01*
Y40827D01*
Y40860D01*
Y40894D01*
X244506Y40938D01*
Y40993D01*
Y41049D01*
Y41110D01*
X244511Y41182D01*
X244517Y41260D01*
Y41343D01*
X244522Y41432D01*
X244528Y41526D01*
X244533Y41626D01*
Y41632D01*
Y41654D01*
X244539Y41682D01*
Y41726D01*
X244544Y41776D01*
X244550Y41831D01*
Y41892D01*
X244555Y41959D01*
X244567Y42103D01*
X244572Y42248D01*
X244578Y42381D01*
Y42442D01*
Y42498D01*
Y42509D01*
Y42536D01*
Y42581D01*
X244583Y42642D01*
Y42725D01*
X244589Y42825D01*
X244594Y42941D01*
X244605Y43075D01*
Y43080D01*
X244611Y43091D01*
Y43108D01*
X244617Y43130D01*
X244639Y43180D01*
X244655Y43197D01*
X244672Y43213D01*
X244678D01*
X244683Y43219D01*
X244700Y43224D01*
X244722Y43230D01*
X244783Y43241D01*
X244861Y43258D01*
X244955Y43275D01*
X245066Y43291D01*
X245188Y43297D01*
X245321Y43302D01*
X245360D01*
X245382Y43297D01*
D02*
G37*
G36*
X250522Y42187D02*
X250572Y42181D01*
X250633Y42170D01*
X250699Y42148D01*
X250777Y42126D01*
X250860Y42092D01*
X250866D01*
X250871Y42087D01*
X250905Y42070D01*
X250949Y42048D01*
X251005Y42015D01*
X251055Y41970D01*
X251099Y41926D01*
X251132Y41870D01*
X251138Y41843D01*
X251143Y41809D01*
Y41798D01*
X251138Y41776D01*
X251127Y41743D01*
X251104Y41709D01*
Y41704D01*
X251099Y41693D01*
Y41676D01*
X251093Y41648D01*
X251088Y41609D01*
X251082Y41565D01*
X251077Y41515D01*
X251071Y41449D01*
Y41443D01*
Y41415D01*
X251066Y41376D01*
Y41321D01*
Y41254D01*
X251060Y41177D01*
Y41082D01*
Y40982D01*
Y40977D01*
Y40971D01*
Y40938D01*
Y40894D01*
Y40832D01*
X251066Y40766D01*
X251071Y40699D01*
X251082Y40627D01*
X251093Y40566D01*
Y40561D01*
X251099Y40549D01*
X251104Y40522D01*
X251121Y40488D01*
X251138Y40439D01*
X251160Y40372D01*
X251188Y40294D01*
X251227Y40200D01*
Y40194D01*
X251238Y40172D01*
X251249Y40139D01*
X251271Y40089D01*
X251288Y40050D01*
Y40044D01*
Y40039D01*
X251282Y40005D01*
X251260Y39961D01*
X251249Y39939D01*
X251227Y39917D01*
X251216Y39906D01*
X251188Y39889D01*
X251143Y39872D01*
X251088Y39861D01*
X251082D01*
X251055Y39872D01*
X251038Y39883D01*
X251010Y39900D01*
X250982Y39922D01*
X250944Y39956D01*
X250938Y39961D01*
X250927Y39972D01*
X250910Y39983D01*
X250894Y40005D01*
X250844Y40056D01*
X250805Y40111D01*
X250794Y40106D01*
X250771Y40094D01*
X250733Y40072D01*
X250688Y40050D01*
X250633Y40022D01*
X250572Y39994D01*
X250450Y39944D01*
X250444D01*
X250422Y39933D01*
X250394Y39928D01*
X250361Y39917D01*
X250278Y39900D01*
X250194Y39889D01*
X250150D01*
X250117Y39895D01*
X250072Y39900D01*
X250028Y39906D01*
X249922Y39922D01*
X249800Y39956D01*
X249684Y40005D01*
X249628Y40033D01*
X249573Y40072D01*
X249523Y40111D01*
X249478Y40161D01*
Y40167D01*
X249467Y40172D01*
X249462Y40189D01*
X249445Y40211D01*
X249428Y40239D01*
X249412Y40272D01*
X249395Y40311D01*
X249373Y40361D01*
X249351Y40411D01*
X249334Y40472D01*
X249317Y40538D01*
X249301Y40611D01*
X249290Y40688D01*
X249278Y40771D01*
X249268Y40860D01*
Y40960D01*
Y40966D01*
Y40982D01*
Y41010D01*
X249273Y41043D01*
X249278Y41088D01*
X249284Y41138D01*
X249295Y41193D01*
X249312Y41260D01*
X249351Y41393D01*
X249384Y41465D01*
X249417Y41537D01*
X249456Y41609D01*
X249501Y41687D01*
X249556Y41759D01*
X249617Y41826D01*
X249623Y41831D01*
X249634Y41843D01*
X249650Y41859D01*
X249678Y41881D01*
X249711Y41909D01*
X249756Y41943D01*
X249800Y41976D01*
X249850Y42009D01*
X249911Y42042D01*
X249972Y42076D01*
X250117Y42137D01*
X250194Y42159D01*
X250278Y42176D01*
X250361Y42187D01*
X250450Y42192D01*
X250483D01*
X250522Y42187D01*
D02*
G37*
G36*
X252842Y42148D02*
X252892Y42142D01*
X252947Y42131D01*
X253003Y42115D01*
X253053Y42098D01*
X253058D01*
X253075Y42087D01*
X253097Y42076D01*
X253130Y42059D01*
X253197Y42015D01*
X253230Y41981D01*
X253258Y41948D01*
X253269D01*
X253291Y41943D01*
X253330Y41931D01*
X253374Y41915D01*
X253413Y41887D01*
X253452Y41843D01*
X253474Y41781D01*
X253485Y41743D01*
Y41698D01*
Y41693D01*
Y41671D01*
Y41637D01*
X253480Y41593D01*
X253474Y41537D01*
X253469Y41465D01*
X253458Y41388D01*
X253441Y41299D01*
Y41293D01*
Y41288D01*
X253435Y41254D01*
X253424Y41204D01*
X253413Y41143D01*
X253408Y41077D01*
X253397Y41010D01*
X253391Y40955D01*
X253386Y40905D01*
X253336Y40200D01*
Y40194D01*
Y40183D01*
Y40161D01*
Y40133D01*
X253330Y40094D01*
Y40056D01*
X253319Y39961D01*
X253308Y39850D01*
X253291Y39739D01*
X253274Y39623D01*
X253247Y39517D01*
Y39512D01*
X253241Y39500D01*
X253236Y39484D01*
X253230Y39462D01*
X253208Y39401D01*
X253175Y39328D01*
X253130Y39245D01*
X253080Y39162D01*
X253019Y39084D01*
X252947Y39018D01*
X252942D01*
X252936Y39007D01*
X252919Y39001D01*
X252903Y38984D01*
X252875Y38973D01*
X252842Y38957D01*
X252803Y38934D01*
X252758Y38918D01*
X252708Y38901D01*
X252659Y38879D01*
X252531Y38851D01*
X252381Y38829D01*
X252215Y38818D01*
X252115D01*
X252048Y38823D01*
X251976Y38829D01*
X251898Y38835D01*
X251815Y38846D01*
X251743Y38857D01*
X251732Y38862D01*
X251704Y38868D01*
X251659Y38884D01*
X251615Y38907D01*
X251565Y38934D01*
X251521Y38973D01*
X251493Y39018D01*
X251487Y39045D01*
X251482Y39073D01*
Y39079D01*
X251487Y39101D01*
X251493Y39134D01*
X251504Y39167D01*
X251526Y39201D01*
X251560Y39234D01*
X251604Y39256D01*
X251665Y39262D01*
X251698D01*
X251726Y39256D01*
X251759D01*
X251804Y39251D01*
X251854Y39240D01*
X251915Y39229D01*
X251920D01*
X251948Y39223D01*
X251981Y39217D01*
X252031Y39212D01*
X252087Y39201D01*
X252153Y39195D01*
X252231Y39190D01*
X252326D01*
X252348Y39195D01*
X252376D01*
X252409Y39206D01*
X252442Y39217D01*
X252531Y39245D01*
X252575Y39267D01*
X252620Y39295D01*
X252664Y39328D01*
X252714Y39373D01*
X252753Y39417D01*
X252797Y39473D01*
X252831Y39534D01*
X252864Y39606D01*
Y39612D01*
X252869Y39617D01*
X252875Y39634D01*
X252881Y39656D01*
X252886Y39684D01*
X252897Y39722D01*
X252908Y39761D01*
X252914Y39811D01*
X252925Y39867D01*
X252936Y39928D01*
X252947Y39994D01*
X252953Y40072D01*
X252958Y40155D01*
X252969Y40244D01*
Y40339D01*
X252975Y40439D01*
X252969Y40427D01*
X252953Y40400D01*
X252930Y40355D01*
X252897Y40300D01*
X252858Y40244D01*
X252814Y40183D01*
X252758Y40122D01*
X252703Y40072D01*
X252697Y40067D01*
X252675Y40056D01*
X252642Y40033D01*
X252597Y40011D01*
X252548Y39989D01*
X252486Y39967D01*
X252414Y39956D01*
X252342Y39950D01*
X252303D01*
X252281Y39956D01*
X252248D01*
X252209Y39961D01*
X252126Y39983D01*
X252026Y40011D01*
X251926Y40056D01*
X251820Y40122D01*
X251770Y40161D01*
X251726Y40205D01*
Y40211D01*
X251715Y40216D01*
X251704Y40233D01*
X251687Y40255D01*
X251648Y40311D01*
X251609Y40389D01*
X251565Y40483D01*
X251526Y40599D01*
X251499Y40733D01*
X251493Y40805D01*
X251487Y40883D01*
Y40888D01*
Y40910D01*
Y40938D01*
X251493Y40977D01*
X251499Y41027D01*
X251504Y41082D01*
X251515Y41143D01*
X251526Y41210D01*
X251565Y41354D01*
X251593Y41432D01*
X251626Y41504D01*
X251659Y41582D01*
X251704Y41654D01*
X251754Y41726D01*
X251809Y41793D01*
X251815Y41798D01*
X251826Y41809D01*
X251843Y41826D01*
X251870Y41848D01*
X251904Y41876D01*
X251948Y41909D01*
X251998Y41937D01*
X252053Y41976D01*
X252115Y42009D01*
X252181Y42037D01*
X252259Y42070D01*
X252337Y42098D01*
X252425Y42120D01*
X252520Y42137D01*
X252620Y42148D01*
X252725Y42153D01*
X252797D01*
X252842Y42148D01*
D02*
G37*
G36*
X294800Y40322D02*
X294822Y40316D01*
X294883Y40294D01*
X294916Y40277D01*
X294944Y40250D01*
X294950Y40244D01*
X294955Y40239D01*
X294966Y40222D01*
X294983Y40200D01*
X295011Y40139D01*
X295016Y40106D01*
X295022Y40067D01*
Y40061D01*
Y40050D01*
X295016Y40028D01*
X295011Y40005D01*
X294988Y39944D01*
X294972Y39911D01*
X294944Y39883D01*
X294938Y39878D01*
X294933Y39872D01*
X294916Y39861D01*
X294894Y39845D01*
X294833Y39817D01*
X294800Y39811D01*
X294761Y39806D01*
X294744D01*
X294722Y39811D01*
X294694Y39817D01*
X294633Y39839D01*
X294605Y39856D01*
X294572Y39883D01*
X294567Y39889D01*
X294561Y39900D01*
X294550Y39911D01*
X294539Y39933D01*
X294511Y39994D01*
X294506Y40028D01*
X294500Y40067D01*
Y40072D01*
Y40083D01*
X294506Y40106D01*
X294511Y40128D01*
X294533Y40189D01*
X294550Y40222D01*
X294572Y40250D01*
X294578Y40255D01*
X294589Y40261D01*
X294605Y40272D01*
X294628Y40289D01*
X294683Y40316D01*
X294722Y40322D01*
X294761Y40327D01*
X294777D01*
X294800Y40322D01*
D02*
G37*
G36*
X262704Y42292D02*
X262732Y42281D01*
X262771Y42264D01*
X262809Y42231D01*
X262843Y42181D01*
X262854Y42148D01*
X262871Y42115D01*
X262876Y42070D01*
X262882Y42020D01*
X262893Y41776D01*
X262898Y41781D01*
X262909Y41798D01*
X262926Y41820D01*
X262954Y41848D01*
X262987Y41887D01*
X263020Y41926D01*
X263115Y42015D01*
X263220Y42098D01*
X263342Y42176D01*
X263409Y42203D01*
X263475Y42226D01*
X263548Y42242D01*
X263614Y42248D01*
X263648D01*
X263670Y42242D01*
X263731Y42231D01*
X263803Y42209D01*
X263881Y42176D01*
X263958Y42120D01*
X263992Y42087D01*
X264025Y42048D01*
X264058Y42004D01*
X264086Y41948D01*
X264091Y41937D01*
X264103Y41909D01*
X264114Y41865D01*
X264130Y41798D01*
X264147Y41721D01*
X264164Y41621D01*
X264180Y41499D01*
X264186Y41365D01*
Y41149D01*
X264180Y40955D01*
Y40949D01*
Y40921D01*
Y40888D01*
X264186Y40832D01*
X264191Y40771D01*
X264197Y40694D01*
X264208Y40605D01*
X264225Y40505D01*
Y40499D01*
Y40494D01*
X264230Y40461D01*
X264241Y40411D01*
X264247Y40344D01*
X264258Y40272D01*
X264264Y40200D01*
X264269Y40122D01*
Y40056D01*
Y40050D01*
Y40039D01*
X264264Y40005D01*
X264241Y39956D01*
X264230Y39933D01*
X264208Y39911D01*
X264197Y39900D01*
X264164Y39883D01*
X264119Y39861D01*
X264086Y39856D01*
X264053Y39850D01*
X264047D01*
X264025Y39856D01*
X263997Y39861D01*
X263964Y39872D01*
X263925Y39900D01*
X263892Y39933D01*
X263870Y39978D01*
X263853Y40044D01*
X263797Y40505D01*
Y40511D01*
Y40516D01*
X263792Y40549D01*
X263786Y40594D01*
Y40655D01*
X263781Y40727D01*
X263775Y40805D01*
X263770Y40966D01*
Y40971D01*
Y40977D01*
Y40993D01*
Y41016D01*
Y41043D01*
Y41077D01*
X263775Y41116D01*
Y41166D01*
Y41171D01*
Y41188D01*
Y41215D01*
X263781Y41243D01*
Y41315D01*
Y41343D01*
Y41371D01*
Y41376D01*
Y41393D01*
Y41415D01*
Y41443D01*
X263770Y41515D01*
X263758Y41598D01*
X263742Y41682D01*
X263709Y41754D01*
X263692Y41781D01*
X263670Y41809D01*
X263642Y41820D01*
X263614Y41826D01*
X263603D01*
X263575Y41820D01*
X263531Y41809D01*
X263470Y41793D01*
X263403Y41759D01*
X263326Y41709D01*
X263287Y41676D01*
X263248Y41637D01*
X263204Y41593D01*
X263165Y41543D01*
Y41537D01*
X263159Y41532D01*
X263148Y41515D01*
X263131Y41499D01*
X263098Y41443D01*
X263059Y41365D01*
X263009Y41271D01*
X262959Y41166D01*
X262909Y41038D01*
X262865Y40899D01*
Y40894D01*
Y40883D01*
Y40866D01*
X262859Y40844D01*
Y40810D01*
X262854Y40777D01*
X262848Y40694D01*
Y40688D01*
Y40677D01*
X262843Y40655D01*
Y40627D01*
X262837Y40561D01*
Y40488D01*
Y40477D01*
Y40461D01*
Y40444D01*
X262843Y40416D01*
Y40383D01*
Y40344D01*
X262848Y40300D01*
Y40294D01*
Y40277D01*
X262854Y40255D01*
Y40228D01*
X262859Y40167D01*
Y40139D01*
Y40111D01*
Y40106D01*
Y40094D01*
X262854Y40078D01*
Y40056D01*
X262832Y40005D01*
X262821Y39983D01*
X262798Y39961D01*
X262787Y39950D01*
X262759Y39933D01*
X262715Y39911D01*
X262687Y39906D01*
X262654Y39900D01*
X262637D01*
X262621Y39906D01*
X262598D01*
X262549Y39928D01*
X262521Y39939D01*
X262499Y39961D01*
X262488Y39972D01*
X262471Y40000D01*
X262454Y40050D01*
X262443Y40111D01*
Y40117D01*
Y40122D01*
Y40139D01*
Y40155D01*
Y40183D01*
X262438Y40216D01*
Y40255D01*
X262432Y40300D01*
Y40305D01*
Y40322D01*
X262426Y40344D01*
Y40372D01*
X262421Y40433D01*
Y40461D01*
Y40488D01*
Y40499D01*
Y40527D01*
Y40577D01*
X262426Y40644D01*
Y40733D01*
X262432Y40832D01*
X262438Y40955D01*
X262449Y41088D01*
Y41093D01*
Y41105D01*
Y41127D01*
X262454Y41149D01*
Y41182D01*
X262460Y41221D01*
X262465Y41304D01*
Y41404D01*
X262471Y41504D01*
X262476Y41598D01*
Y41687D01*
Y41693D01*
Y41698D01*
Y41715D01*
Y41737D01*
Y41765D01*
X262471Y41798D01*
Y41843D01*
X262465Y41887D01*
Y41892D01*
Y41909D01*
Y41931D01*
Y41965D01*
X262460Y42026D01*
Y42059D01*
Y42087D01*
Y42092D01*
Y42103D01*
X262465Y42120D01*
Y42142D01*
X262488Y42192D01*
X262499Y42214D01*
X262521Y42237D01*
X262526Y42242D01*
X262532Y42248D01*
X262565Y42270D01*
X262610Y42287D01*
X262637Y42298D01*
X262682D01*
X262704Y42292D01*
D02*
G37*
G36*
X265745Y42187D02*
X265829Y42176D01*
X265917Y42164D01*
X266012Y42142D01*
X266106Y42109D01*
X266195Y42070D01*
X266200D01*
X266206Y42065D01*
X266239Y42042D01*
X266284Y42009D01*
X266334Y41959D01*
X266384Y41898D01*
X266423Y41826D01*
X266456Y41737D01*
X266461Y41687D01*
X266467Y41632D01*
Y41621D01*
X266461Y41598D01*
X266456Y41554D01*
X266439Y41504D01*
X266411Y41443D01*
X266367Y41382D01*
X266306Y41315D01*
X266273Y41282D01*
X266228Y41249D01*
X266223Y41243D01*
X266206Y41232D01*
X266178Y41215D01*
X266134Y41193D01*
X266073Y41160D01*
X265995Y41116D01*
X265901Y41071D01*
X265784Y41016D01*
X264985Y40638D01*
X264991Y40633D01*
X265007Y40611D01*
X265029Y40577D01*
X265063Y40538D01*
X265107Y40494D01*
X265157Y40450D01*
X265213Y40411D01*
X265274Y40372D01*
X265279Y40366D01*
X265307Y40361D01*
X265340Y40344D01*
X265390Y40333D01*
X265451Y40316D01*
X265523Y40300D01*
X265601Y40294D01*
X265684Y40289D01*
X265712D01*
X265740Y40294D01*
X265779D01*
X265829Y40300D01*
X265890Y40311D01*
X265951Y40322D01*
X266023Y40339D01*
X266028D01*
X266034Y40344D01*
X266062Y40350D01*
X266106Y40366D01*
X266156Y40389D01*
X266206Y40416D01*
X266262Y40444D01*
X266306Y40483D01*
X266339Y40522D01*
X266345Y40527D01*
X266350Y40538D01*
X266384Y40583D01*
X266434Y40622D01*
X266467Y40633D01*
X266495Y40638D01*
X266506D01*
X266539Y40633D01*
X266578Y40611D01*
X266600Y40599D01*
X266622Y40577D01*
X266628D01*
X266633Y40566D01*
X266656Y40538D01*
X266672Y40499D01*
X266683Y40477D01*
Y40450D01*
Y40439D01*
X266678Y40411D01*
X266661Y40366D01*
X266639Y40311D01*
X266589Y40250D01*
X266561Y40216D01*
X266522Y40183D01*
X266484Y40144D01*
X266428Y40111D01*
X266373Y40078D01*
X266306Y40044D01*
X266300D01*
X266289Y40039D01*
X266273Y40033D01*
X266250Y40022D01*
X266223Y40011D01*
X266189Y40000D01*
X266106Y39978D01*
X266012Y39950D01*
X265906Y39928D01*
X265795Y39911D01*
X265679Y39906D01*
X265634D01*
X265601Y39911D01*
X265562D01*
X265512Y39917D01*
X265407Y39933D01*
X265285Y39961D01*
X265157Y40005D01*
X265029Y40061D01*
X264913Y40139D01*
X264907Y40144D01*
X264902Y40150D01*
X264885Y40167D01*
X264863Y40189D01*
X264841Y40216D01*
X264813Y40244D01*
X264785Y40283D01*
X264757Y40327D01*
X264697Y40433D01*
X264647Y40561D01*
X264624Y40627D01*
X264608Y40705D01*
X264602Y40788D01*
X264597Y40871D01*
Y40877D01*
Y40894D01*
Y40927D01*
X264602Y40966D01*
Y41010D01*
X264613Y41066D01*
X264619Y41127D01*
X264630Y41193D01*
X264663Y41337D01*
X264707Y41487D01*
X264774Y41643D01*
X264813Y41715D01*
X264857Y41787D01*
X264863Y41793D01*
X264868Y41804D01*
X264885Y41826D01*
X264913Y41848D01*
X264941Y41881D01*
X264974Y41915D01*
X265013Y41954D01*
X265063Y41993D01*
X265113Y42026D01*
X265174Y42065D01*
X265301Y42131D01*
X265373Y42153D01*
X265451Y42176D01*
X265534Y42187D01*
X265623Y42192D01*
X265684D01*
X265745Y42187D01*
D02*
G37*
G36*
X254312Y43374D02*
X254346Y43369D01*
X254384Y43352D01*
X254423Y43330D01*
X254457Y43291D01*
X254479Y43241D01*
X254490Y43169D01*
Y43163D01*
Y43152D01*
Y43136D01*
Y43108D01*
Y43080D01*
Y43041D01*
Y42997D01*
Y42947D01*
Y42836D01*
X254485Y42708D01*
Y42564D01*
X254479Y42409D01*
Y42403D01*
Y42392D01*
Y42370D01*
Y42336D01*
Y42298D01*
X254473Y42259D01*
Y42153D01*
Y42037D01*
X254468Y41909D01*
Y41776D01*
Y41648D01*
X254434Y40605D01*
Y40599D01*
Y40572D01*
Y40533D01*
Y40483D01*
X254429Y40411D01*
Y40327D01*
X254423Y40228D01*
X254418Y40117D01*
Y40106D01*
X254412Y40083D01*
X254401Y40050D01*
X254384Y40017D01*
X254357Y39978D01*
X254324Y39944D01*
X254274Y39922D01*
X254212Y39911D01*
X254201D01*
X254179Y39917D01*
X254146Y39922D01*
X254113Y39939D01*
X254074Y39961D01*
X254041Y40000D01*
X254018Y40050D01*
X254007Y40122D01*
Y40128D01*
Y40133D01*
Y40150D01*
Y40172D01*
Y40194D01*
Y40228D01*
Y40266D01*
X254013Y40311D01*
Y40366D01*
Y40422D01*
Y40483D01*
X254018Y40549D01*
Y40627D01*
X254024Y40705D01*
Y40788D01*
X254029Y40883D01*
Y40888D01*
Y40905D01*
Y40932D01*
X254035Y40966D01*
Y41010D01*
Y41060D01*
X254041Y41171D01*
X254046Y41293D01*
Y41421D01*
X254051Y41543D01*
Y41598D01*
Y41648D01*
Y41654D01*
Y41665D01*
Y41682D01*
Y41709D01*
Y41737D01*
Y41776D01*
Y41820D01*
Y41870D01*
X254057Y41981D01*
Y42109D01*
Y42253D01*
X254063Y42409D01*
Y42414D01*
Y42425D01*
Y42453D01*
Y42481D01*
Y42520D01*
X254068Y42564D01*
Y42664D01*
Y42781D01*
X254074Y42908D01*
Y43041D01*
Y43169D01*
Y43180D01*
X254079Y43202D01*
X254085Y43236D01*
X254101Y43275D01*
X254124Y43313D01*
X254163Y43347D01*
X254212Y43369D01*
X254279Y43380D01*
X254290D01*
X254312Y43374D01*
D02*
G37*
G36*
X271440D02*
X271473Y43369D01*
X271512Y43352D01*
X271551Y43330D01*
X271584Y43291D01*
X271606Y43241D01*
X271617Y43169D01*
Y43163D01*
Y43152D01*
Y43136D01*
Y43108D01*
Y43080D01*
Y43041D01*
Y42997D01*
Y42947D01*
Y42836D01*
X271612Y42708D01*
Y42564D01*
X271606Y42409D01*
Y42403D01*
Y42392D01*
Y42370D01*
Y42336D01*
Y42298D01*
X271601Y42259D01*
Y42153D01*
Y42037D01*
X271595Y41909D01*
Y41776D01*
Y41648D01*
X271562Y40605D01*
Y40599D01*
Y40572D01*
Y40533D01*
Y40483D01*
X271556Y40411D01*
Y40327D01*
X271551Y40228D01*
X271545Y40117D01*
Y40106D01*
X271540Y40083D01*
X271529Y40050D01*
X271512Y40017D01*
X271484Y39978D01*
X271451Y39944D01*
X271401Y39922D01*
X271340Y39911D01*
X271329D01*
X271306Y39917D01*
X271273Y39922D01*
X271240Y39939D01*
X271201Y39961D01*
X271168Y40000D01*
X271146Y40050D01*
X271134Y40122D01*
Y40128D01*
Y40133D01*
Y40150D01*
Y40172D01*
Y40194D01*
Y40228D01*
Y40266D01*
X271140Y40311D01*
Y40366D01*
Y40422D01*
Y40483D01*
X271146Y40549D01*
Y40627D01*
X271151Y40705D01*
Y40788D01*
X271157Y40883D01*
Y40888D01*
Y40905D01*
Y40932D01*
X271162Y40966D01*
Y41010D01*
Y41060D01*
X271168Y41171D01*
X271173Y41293D01*
Y41421D01*
X271179Y41543D01*
Y41598D01*
Y41648D01*
Y41654D01*
Y41665D01*
Y41682D01*
Y41709D01*
Y41737D01*
Y41776D01*
Y41820D01*
Y41870D01*
X271184Y41981D01*
Y42109D01*
Y42253D01*
X271190Y42409D01*
Y42414D01*
Y42425D01*
Y42453D01*
Y42481D01*
Y42520D01*
X271196Y42564D01*
Y42664D01*
Y42781D01*
X271201Y42908D01*
Y43041D01*
Y43169D01*
Y43180D01*
X271207Y43202D01*
X271212Y43236D01*
X271229Y43275D01*
X271251Y43313D01*
X271290Y43347D01*
X271340Y43369D01*
X271406Y43380D01*
X271417D01*
X271440Y43374D01*
D02*
G37*
G36*
X256155Y42187D02*
X256238Y42176D01*
X256327Y42164D01*
X256421Y42142D01*
X256516Y42109D01*
X256605Y42070D01*
X256610D01*
X256616Y42065D01*
X256649Y42042D01*
X256693Y42009D01*
X256743Y41959D01*
X256793Y41898D01*
X256832Y41826D01*
X256865Y41737D01*
X256871Y41687D01*
X256876Y41632D01*
Y41621D01*
X256871Y41598D01*
X256865Y41554D01*
X256849Y41504D01*
X256821Y41443D01*
X256777Y41382D01*
X256715Y41315D01*
X256682Y41282D01*
X256638Y41249D01*
X256632Y41243D01*
X256616Y41232D01*
X256588Y41215D01*
X256543Y41193D01*
X256483Y41160D01*
X256405Y41116D01*
X256310Y41071D01*
X256194Y41016D01*
X255395Y40638D01*
X255400Y40633D01*
X255417Y40611D01*
X255439Y40577D01*
X255472Y40538D01*
X255517Y40494D01*
X255567Y40450D01*
X255622Y40411D01*
X255683Y40372D01*
X255689Y40366D01*
X255717Y40361D01*
X255750Y40344D01*
X255800Y40333D01*
X255861Y40316D01*
X255933Y40300D01*
X256011Y40294D01*
X256094Y40289D01*
X256122D01*
X256149Y40294D01*
X256188D01*
X256238Y40300D01*
X256299Y40311D01*
X256360Y40322D01*
X256433Y40339D01*
X256438D01*
X256444Y40344D01*
X256471Y40350D01*
X256516Y40366D01*
X256566Y40389D01*
X256616Y40416D01*
X256671Y40444D01*
X256715Y40483D01*
X256749Y40522D01*
X256754Y40527D01*
X256760Y40538D01*
X256793Y40583D01*
X256843Y40622D01*
X256876Y40633D01*
X256904Y40638D01*
X256915D01*
X256949Y40633D01*
X256988Y40611D01*
X257010Y40599D01*
X257032Y40577D01*
X257037D01*
X257043Y40566D01*
X257065Y40538D01*
X257082Y40499D01*
X257093Y40477D01*
Y40450D01*
Y40439D01*
X257087Y40411D01*
X257071Y40366D01*
X257049Y40311D01*
X256999Y40250D01*
X256971Y40216D01*
X256932Y40183D01*
X256893Y40144D01*
X256838Y40111D01*
X256782Y40078D01*
X256715Y40044D01*
X256710D01*
X256699Y40039D01*
X256682Y40033D01*
X256660Y40022D01*
X256632Y40011D01*
X256599Y40000D01*
X256516Y39978D01*
X256421Y39950D01*
X256316Y39928D01*
X256205Y39911D01*
X256088Y39906D01*
X256044D01*
X256011Y39911D01*
X255972D01*
X255922Y39917D01*
X255816Y39933D01*
X255694Y39961D01*
X255567Y40005D01*
X255439Y40061D01*
X255323Y40139D01*
X255317Y40144D01*
X255311Y40150D01*
X255295Y40167D01*
X255273Y40189D01*
X255250Y40216D01*
X255223Y40244D01*
X255195Y40283D01*
X255167Y40327D01*
X255106Y40433D01*
X255056Y40561D01*
X255034Y40627D01*
X255017Y40705D01*
X255012Y40788D01*
X255006Y40871D01*
Y40877D01*
Y40894D01*
Y40927D01*
X255012Y40966D01*
Y41010D01*
X255023Y41066D01*
X255028Y41127D01*
X255039Y41193D01*
X255073Y41337D01*
X255117Y41487D01*
X255184Y41643D01*
X255223Y41715D01*
X255267Y41787D01*
X255273Y41793D01*
X255278Y41804D01*
X255295Y41826D01*
X255323Y41848D01*
X255350Y41881D01*
X255384Y41915D01*
X255422Y41954D01*
X255472Y41993D01*
X255522Y42026D01*
X255583Y42065D01*
X255711Y42131D01*
X255783Y42153D01*
X255861Y42176D01*
X255944Y42187D01*
X256033Y42192D01*
X256094D01*
X256155Y42187D01*
D02*
G37*
G36*
X258475Y43297D02*
X258508D01*
X258547Y43291D01*
X258641Y43269D01*
X258747Y43241D01*
X258869Y43197D01*
X258997Y43130D01*
X259058Y43091D01*
X259124Y43047D01*
X259130Y43041D01*
X259141Y43036D01*
X259163Y43019D01*
X259185Y42997D01*
X259213Y42969D01*
X259246Y42936D01*
X259324Y42847D01*
X259396Y42747D01*
X259457Y42625D01*
X259479Y42559D01*
X259502Y42486D01*
X259513Y42409D01*
X259518Y42331D01*
Y42325D01*
Y42309D01*
Y42281D01*
X259513Y42242D01*
X259507Y42198D01*
X259496Y42142D01*
X259485Y42087D01*
X259468Y42026D01*
X259446Y41959D01*
X259413Y41887D01*
X259380Y41815D01*
X259341Y41748D01*
X259291Y41676D01*
X259235Y41609D01*
X259169Y41543D01*
X259097Y41482D01*
X259102D01*
X259108Y41476D01*
X259124Y41471D01*
X259146Y41460D01*
X259202Y41432D01*
X259274Y41393D01*
X259346Y41349D01*
X259424Y41293D01*
X259496Y41238D01*
X259563Y41177D01*
X259568Y41171D01*
X259591Y41149D01*
X259613Y41116D01*
X259646Y41071D01*
X259674Y41021D01*
X259701Y40960D01*
X259718Y40894D01*
X259724Y40821D01*
Y40810D01*
X259718Y40777D01*
X259707Y40733D01*
X259690Y40666D01*
X259657Y40594D01*
X259607Y40511D01*
X259574Y40466D01*
X259541Y40422D01*
X259496Y40377D01*
X259446Y40333D01*
X259435Y40327D01*
X259413Y40305D01*
X259374Y40277D01*
X259324Y40239D01*
X259269Y40200D01*
X259196Y40155D01*
X259124Y40117D01*
X259047Y40083D01*
X259041D01*
X259024Y40078D01*
X258997Y40067D01*
X258963Y40056D01*
X258913Y40039D01*
X258858Y40028D01*
X258791Y40011D01*
X258719Y39994D01*
X258636Y39972D01*
X258547Y39956D01*
X258447Y39944D01*
X258342Y39928D01*
X258225Y39917D01*
X258103Y39906D01*
X257975Y39900D01*
X257826D01*
X257809Y39906D01*
X257787Y39911D01*
X257759Y39922D01*
X257731Y39933D01*
X257703Y39956D01*
X257670Y39983D01*
X257665Y39989D01*
X257659Y40000D01*
X257648Y40017D01*
X257631Y40039D01*
X257604Y40089D01*
X257598Y40122D01*
X257593Y40155D01*
Y40771D01*
Y40777D01*
Y40788D01*
Y40805D01*
Y40827D01*
Y40860D01*
Y40894D01*
X257598Y40938D01*
Y40993D01*
Y41049D01*
Y41110D01*
X257604Y41182D01*
X257609Y41260D01*
Y41343D01*
X257615Y41432D01*
X257620Y41526D01*
X257626Y41626D01*
Y41632D01*
Y41654D01*
X257631Y41682D01*
Y41726D01*
X257637Y41776D01*
X257642Y41831D01*
Y41892D01*
X257648Y41959D01*
X257659Y42103D01*
X257665Y42248D01*
X257670Y42381D01*
Y42442D01*
Y42498D01*
Y42509D01*
Y42536D01*
Y42581D01*
X257676Y42642D01*
Y42725D01*
X257681Y42825D01*
X257687Y42941D01*
X257698Y43075D01*
Y43080D01*
X257703Y43091D01*
Y43108D01*
X257709Y43130D01*
X257731Y43180D01*
X257748Y43197D01*
X257765Y43213D01*
X257770D01*
X257776Y43219D01*
X257792Y43224D01*
X257814Y43230D01*
X257875Y43241D01*
X257953Y43258D01*
X258048Y43275D01*
X258159Y43291D01*
X258281Y43297D01*
X258414Y43302D01*
X258453D01*
X258475Y43297D01*
D02*
G37*
G36*
X269353D02*
X269386D01*
X269425Y43291D01*
X269519Y43269D01*
X269625Y43241D01*
X269747Y43197D01*
X269875Y43130D01*
X269936Y43091D01*
X270002Y43047D01*
X270008Y43041D01*
X270019Y43036D01*
X270041Y43019D01*
X270063Y42997D01*
X270091Y42969D01*
X270124Y42936D01*
X270202Y42847D01*
X270274Y42747D01*
X270335Y42625D01*
X270357Y42559D01*
X270380Y42486D01*
X270391Y42409D01*
X270396Y42331D01*
Y42325D01*
Y42309D01*
Y42281D01*
X270391Y42242D01*
X270385Y42198D01*
X270374Y42142D01*
X270363Y42087D01*
X270346Y42026D01*
X270324Y41959D01*
X270291Y41887D01*
X270257Y41815D01*
X270219Y41748D01*
X270169Y41676D01*
X270113Y41609D01*
X270047Y41543D01*
X269974Y41482D01*
X269980D01*
X269986Y41476D01*
X270002Y41471D01*
X270024Y41460D01*
X270080Y41432D01*
X270152Y41393D01*
X270224Y41349D01*
X270302Y41293D01*
X270374Y41238D01*
X270441Y41177D01*
X270446Y41171D01*
X270468Y41149D01*
X270491Y41116D01*
X270524Y41071D01*
X270552Y41021D01*
X270579Y40960D01*
X270596Y40894D01*
X270602Y40821D01*
Y40810D01*
X270596Y40777D01*
X270585Y40733D01*
X270568Y40666D01*
X270535Y40594D01*
X270485Y40511D01*
X270452Y40466D01*
X270419Y40422D01*
X270374Y40377D01*
X270324Y40333D01*
X270313Y40327D01*
X270291Y40305D01*
X270252Y40277D01*
X270202Y40239D01*
X270146Y40200D01*
X270074Y40155D01*
X270002Y40117D01*
X269924Y40083D01*
X269919D01*
X269902Y40078D01*
X269875Y40067D01*
X269841Y40056D01*
X269791Y40039D01*
X269736Y40028D01*
X269669Y40011D01*
X269597Y39994D01*
X269514Y39972D01*
X269425Y39956D01*
X269325Y39944D01*
X269220Y39928D01*
X269103Y39917D01*
X268981Y39906D01*
X268853Y39900D01*
X268704D01*
X268687Y39906D01*
X268665Y39911D01*
X268637Y39922D01*
X268609Y39933D01*
X268581Y39956D01*
X268548Y39983D01*
X268543Y39989D01*
X268537Y40000D01*
X268526Y40017D01*
X268509Y40039D01*
X268482Y40089D01*
X268476Y40122D01*
X268470Y40155D01*
Y40771D01*
Y40777D01*
Y40788D01*
Y40805D01*
Y40827D01*
Y40860D01*
Y40894D01*
X268476Y40938D01*
Y40993D01*
Y41049D01*
Y41110D01*
X268482Y41182D01*
X268487Y41260D01*
Y41343D01*
X268493Y41432D01*
X268498Y41526D01*
X268504Y41626D01*
Y41632D01*
Y41654D01*
X268509Y41682D01*
Y41726D01*
X268515Y41776D01*
X268520Y41831D01*
Y41892D01*
X268526Y41959D01*
X268537Y42103D01*
X268543Y42248D01*
X268548Y42381D01*
Y42442D01*
Y42498D01*
Y42509D01*
Y42536D01*
Y42581D01*
X268554Y42642D01*
Y42725D01*
X268559Y42825D01*
X268565Y42941D01*
X268576Y43075D01*
Y43080D01*
X268581Y43091D01*
Y43108D01*
X268587Y43130D01*
X268609Y43180D01*
X268626Y43197D01*
X268642Y43213D01*
X268648D01*
X268654Y43219D01*
X268670Y43224D01*
X268692Y43230D01*
X268754Y43241D01*
X268831Y43258D01*
X268926Y43275D01*
X269037Y43291D01*
X269159Y43297D01*
X269292Y43302D01*
X269331D01*
X269353Y43297D01*
D02*
G37*
G36*
X248135Y42187D02*
X248218Y42176D01*
X248307Y42164D01*
X248402Y42142D01*
X248496Y42109D01*
X248585Y42070D01*
X248590D01*
X248596Y42065D01*
X248629Y42042D01*
X248674Y42009D01*
X248724Y41959D01*
X248774Y41898D01*
X248812Y41826D01*
X248846Y41737D01*
X248851Y41687D01*
X248857Y41632D01*
Y41621D01*
X248851Y41598D01*
X248846Y41554D01*
X248829Y41504D01*
X248801Y41443D01*
X248757Y41382D01*
X248696Y41315D01*
X248662Y41282D01*
X248618Y41249D01*
X248613Y41243D01*
X248596Y41232D01*
X248568Y41215D01*
X248524Y41193D01*
X248463Y41160D01*
X248385Y41116D01*
X248291Y41071D01*
X248174Y41016D01*
X247375Y40638D01*
X247380Y40633D01*
X247397Y40611D01*
X247419Y40577D01*
X247453Y40538D01*
X247497Y40494D01*
X247547Y40450D01*
X247602Y40411D01*
X247663Y40372D01*
X247669Y40366D01*
X247697Y40361D01*
X247730Y40344D01*
X247780Y40333D01*
X247841Y40316D01*
X247913Y40300D01*
X247991Y40294D01*
X248074Y40289D01*
X248102D01*
X248130Y40294D01*
X248169D01*
X248218Y40300D01*
X248280Y40311D01*
X248341Y40322D01*
X248413Y40339D01*
X248418D01*
X248424Y40344D01*
X248452Y40350D01*
X248496Y40366D01*
X248546Y40389D01*
X248596Y40416D01*
X248651Y40444D01*
X248696Y40483D01*
X248729Y40522D01*
X248735Y40527D01*
X248740Y40538D01*
X248774Y40583D01*
X248823Y40622D01*
X248857Y40633D01*
X248885Y40638D01*
X248896D01*
X248929Y40633D01*
X248968Y40611D01*
X248990Y40599D01*
X249012Y40577D01*
X249018D01*
X249023Y40566D01*
X249045Y40538D01*
X249062Y40499D01*
X249073Y40477D01*
Y40450D01*
Y40439D01*
X249068Y40411D01*
X249051Y40366D01*
X249029Y40311D01*
X248979Y40250D01*
X248951Y40216D01*
X248912Y40183D01*
X248873Y40144D01*
X248818Y40111D01*
X248762Y40078D01*
X248696Y40044D01*
X248690D01*
X248679Y40039D01*
X248662Y40033D01*
X248640Y40022D01*
X248613Y40011D01*
X248579Y40000D01*
X248496Y39978D01*
X248402Y39950D01*
X248296Y39928D01*
X248185Y39911D01*
X248069Y39906D01*
X248024D01*
X247991Y39911D01*
X247952D01*
X247902Y39917D01*
X247797Y39933D01*
X247675Y39961D01*
X247547Y40005D01*
X247419Y40061D01*
X247303Y40139D01*
X247297Y40144D01*
X247292Y40150D01*
X247275Y40167D01*
X247253Y40189D01*
X247231Y40216D01*
X247203Y40244D01*
X247175Y40283D01*
X247147Y40327D01*
X247086Y40433D01*
X247036Y40561D01*
X247014Y40627D01*
X246997Y40705D01*
X246992Y40788D01*
X246986Y40871D01*
Y40877D01*
Y40894D01*
Y40927D01*
X246992Y40966D01*
Y41010D01*
X247003Y41066D01*
X247009Y41127D01*
X247020Y41193D01*
X247053Y41337D01*
X247097Y41487D01*
X247164Y41643D01*
X247203Y41715D01*
X247247Y41787D01*
X247253Y41793D01*
X247258Y41804D01*
X247275Y41826D01*
X247303Y41848D01*
X247330Y41881D01*
X247364Y41915D01*
X247403Y41954D01*
X247453Y41993D01*
X247503Y42026D01*
X247564Y42065D01*
X247691Y42131D01*
X247763Y42153D01*
X247841Y42176D01*
X247924Y42187D01*
X248013Y42192D01*
X248074D01*
X248135Y42187D01*
D02*
G37*
G36*
X274899Y35763D02*
X274927Y35752D01*
X274955Y35736D01*
X274977Y35702D01*
X274993Y35664D01*
X274999Y35608D01*
Y35602D01*
Y35575D01*
X274993Y35530D01*
X274982Y35464D01*
Y35458D01*
Y35447D01*
X274977Y35414D01*
X274971Y35364D01*
Y35325D01*
Y35319D01*
Y35314D01*
Y35297D01*
Y35269D01*
Y35242D01*
Y35203D01*
X274977Y35158D01*
Y35109D01*
Y35103D01*
Y35086D01*
X274982Y35059D01*
Y35031D01*
X274988Y34964D01*
Y34931D01*
Y34903D01*
Y34892D01*
Y34875D01*
Y34859D01*
Y34831D01*
Y34803D01*
X274982Y34764D01*
Y34725D01*
X274977Y34676D01*
Y34626D01*
X274971Y34565D01*
X274966Y34498D01*
X274960Y34431D01*
X274955Y34354D01*
X274949Y34276D01*
X274938Y34187D01*
Y34182D01*
Y34165D01*
X274932Y34143D01*
Y34110D01*
X274927Y34071D01*
Y34026D01*
X274916Y33921D01*
X274910Y33804D01*
X274899Y33688D01*
X274894Y33577D01*
Y33477D01*
Y33471D01*
Y33455D01*
Y33427D01*
Y33393D01*
X274899Y33349D01*
Y33299D01*
Y33244D01*
X274905Y33183D01*
Y33177D01*
X274910Y33155D01*
Y33122D01*
X274916Y33083D01*
X274921Y32988D01*
X274927Y32944D01*
Y32900D01*
X275160D01*
X275193Y32894D01*
X275243Y32872D01*
X275265Y32861D01*
X275288Y32838D01*
X275293D01*
X275299Y32827D01*
X275321Y32800D01*
X275338Y32755D01*
X275349Y32728D01*
Y32700D01*
Y32694D01*
Y32683D01*
X275343Y32650D01*
X275321Y32600D01*
X275310Y32578D01*
X275288Y32555D01*
X275276Y32544D01*
X275249Y32528D01*
X275204Y32511D01*
X275143Y32500D01*
X274228D01*
X274161Y32506D01*
X274128Y32511D01*
X274106Y32517D01*
X274100D01*
X274089Y32522D01*
X274072Y32533D01*
X274056Y32550D01*
X274033Y32572D01*
X274017Y32600D01*
X274006Y32633D01*
X274000Y32678D01*
Y32689D01*
X274006Y32711D01*
X274017Y32744D01*
X274039Y32789D01*
X274078Y32827D01*
X274106Y32844D01*
X274139Y32861D01*
X274178Y32872D01*
X274222Y32883D01*
X274272Y32894D01*
X274327D01*
X274427Y32888D01*
X274516D01*
Y32894D01*
Y32905D01*
Y32933D01*
Y32961D01*
X274511Y33005D01*
Y33055D01*
X274505Y33116D01*
X274500Y33183D01*
Y33194D01*
Y33216D01*
X274494Y33249D01*
Y33294D01*
X274488Y33393D01*
X274483Y33438D01*
Y33477D01*
Y33482D01*
Y33488D01*
Y33505D01*
Y33527D01*
Y33555D01*
Y33588D01*
X274488Y33632D01*
Y33677D01*
Y33732D01*
X274494Y33793D01*
X274500Y33860D01*
Y33932D01*
X274505Y34010D01*
X274511Y34098D01*
X274522Y34187D01*
X274527Y34287D01*
Y34293D01*
Y34309D01*
X274533Y34337D01*
Y34376D01*
X274538Y34420D01*
X274544Y34470D01*
Y34531D01*
X274549Y34592D01*
X274561Y34725D01*
X274566Y34859D01*
X274572Y34986D01*
Y35047D01*
Y35103D01*
X274566D01*
X274561Y35092D01*
X274527Y35070D01*
X274477Y35036D01*
X274422Y34997D01*
X274361Y34953D01*
X274300Y34920D01*
X274250Y34898D01*
X274211Y34887D01*
X274200D01*
X274161Y34892D01*
X274117Y34914D01*
X274089Y34925D01*
X274067Y34948D01*
Y34953D01*
X274056Y34959D01*
X274039Y34986D01*
X274017Y35036D01*
X274011Y35064D01*
X274006Y35092D01*
Y35097D01*
X274011Y35109D01*
X274017Y35131D01*
X274028Y35158D01*
X274050Y35192D01*
X274083Y35236D01*
X274122Y35280D01*
X274183Y35331D01*
X274189Y35336D01*
X274205Y35347D01*
X274228Y35364D01*
X274266Y35392D01*
X274311Y35425D01*
X274366Y35469D01*
X274433Y35525D01*
X274505Y35586D01*
X274516Y35591D01*
X274538Y35614D01*
X274572Y35647D01*
X274616Y35680D01*
X274672Y35713D01*
X274733Y35747D01*
X274794Y35769D01*
X274855Y35774D01*
X274877D01*
X274899Y35763D01*
D02*
G37*
G36*
X283322Y72176D02*
X283455Y72021D01*
X283589Y71865D01*
X283767Y71621D01*
X283878Y71421D01*
X283944Y71287D01*
X283966Y71176D01*
Y71087D01*
X283944Y71065D01*
Y71043D01*
X283855Y70998D01*
X283744Y70954D01*
X283655Y70932D01*
X283633Y70910D01*
X283611D01*
X283455Y70865D01*
X283300Y70843D01*
X283144D01*
X282989Y70887D01*
X282900Y70932D01*
X282878Y70998D01*
X282856Y71021D01*
Y71087D01*
Y71176D01*
X282878Y71265D01*
Y71287D01*
X282922Y71465D01*
X282989Y71621D01*
X283011Y71732D01*
X283033Y71754D01*
Y71776D01*
X283100Y71932D01*
X283122Y72043D01*
X283144Y72087D01*
Y72109D01*
X283189Y72332D01*
X283322Y72176D01*
D02*
G37*
G36*
X296721Y72065D02*
X296810Y71998D01*
X296876Y71954D01*
X296899Y71932D01*
X297032Y71776D01*
X297143Y71598D01*
X297210Y71465D01*
X297232Y71421D01*
Y71398D01*
X297321Y71154D01*
X297365Y70954D01*
X297387Y70798D01*
Y70776D01*
Y70754D01*
X297365Y70576D01*
X297299Y70465D01*
X297210Y70398D01*
X297187Y70376D01*
X297076Y70354D01*
X296965D01*
X296876Y70376D01*
X296832D01*
X296743Y70398D01*
X296654D01*
X296610Y70376D01*
X296587D01*
X296499Y70354D01*
X296432D01*
X296388Y70376D01*
X296365D01*
X296299Y70443D01*
X296254Y70532D01*
X296232Y70598D01*
Y70621D01*
Y70887D01*
X296254Y71154D01*
X296276Y71265D01*
X296299Y71354D01*
X296321Y71398D01*
Y71421D01*
X296365Y71576D01*
X296432Y71709D01*
X296454Y71820D01*
X296499Y71887D01*
X296521Y71998D01*
X296543Y72021D01*
X296587Y72065D01*
X296610Y72087D01*
X296654D01*
X296721Y72065D01*
D02*
G37*
G36*
X291810Y74731D02*
X291899Y74709D01*
X291944Y74687D01*
X291966Y74665D01*
X292121Y74576D01*
X292299Y74420D01*
X292455Y74243D01*
X292632Y74065D01*
X292766Y73865D01*
X292877Y73731D01*
X292966Y73620D01*
X292988Y73576D01*
X293277Y73109D01*
X293521Y72665D01*
X293699Y72265D01*
X293832Y71909D01*
X293943Y71621D01*
X294010Y71398D01*
X294032Y71310D01*
X294054Y71243D01*
Y71221D01*
Y71198D01*
X294099Y70954D01*
X294121Y70710D01*
Y70487D01*
X294099Y70287D01*
Y70132D01*
X294077Y70021D01*
X294054Y69932D01*
Y69910D01*
X293966Y69665D01*
X293877Y69443D01*
X293765Y69265D01*
X293677Y69087D01*
X293566Y68954D01*
X293477Y68865D01*
X293432Y68799D01*
X293410Y68776D01*
X293277Y68665D01*
X293166Y68576D01*
X293055Y68510D01*
X292966Y68465D01*
X292810Y68399D01*
X292321D01*
X292188Y68421D01*
X292166Y68443D01*
X292144D01*
X291988Y68510D01*
X291832Y68599D01*
X291610Y68821D01*
X291521Y68932D01*
X291455Y69021D01*
X291432Y69087D01*
X291410Y69110D01*
X291299Y69354D01*
X291210Y69643D01*
X291077Y70221D01*
X290988Y70821D01*
X290944Y71421D01*
X290921Y71687D01*
Y71932D01*
Y72176D01*
Y72376D01*
Y72532D01*
Y72643D01*
Y72732D01*
Y72754D01*
X290966Y73176D01*
X291033Y73554D01*
X291121Y73865D01*
X291210Y74131D01*
X291299Y74331D01*
X291388Y74465D01*
X291432Y74554D01*
X291455Y74576D01*
X291544Y74687D01*
X291632Y74731D01*
X291721Y74754D01*
X291743D01*
X291810Y74731D01*
D02*
G37*
G36*
Y76909D02*
X291832Y76887D01*
X291877Y76864D01*
Y76842D01*
X292010Y76709D01*
X292032Y76642D01*
X292055Y76620D01*
X292121Y76531D01*
X292188Y76442D01*
X292210Y76376D01*
X292232Y76353D01*
X292277Y76265D01*
X292299Y76242D01*
Y76220D01*
X292388Y76065D01*
X292432Y75931D01*
Y75842D01*
Y75776D01*
X292388Y75709D01*
X292366Y75687D01*
X292232Y75665D01*
X292166Y75642D01*
X291877D01*
X291832Y75620D01*
X291810Y75598D01*
X291788Y75576D01*
X291677Y75509D01*
X291655Y75487D01*
X291521D01*
X291499Y75576D01*
Y75598D01*
Y75620D01*
X291521Y75753D01*
Y75798D01*
Y75820D01*
X291544Y75909D01*
Y75998D01*
X291566Y76042D01*
Y76065D01*
X291588Y76176D01*
X291610Y76265D01*
X291632Y76353D01*
Y76376D01*
X291677Y76509D01*
X291699Y76598D01*
X291721Y76665D01*
Y76687D01*
X291743Y76820D01*
X291766Y76887D01*
X291788Y76931D01*
X291810Y76909D01*
D02*
G37*
G36*
X282217Y50852D02*
X282250Y50841D01*
X282289Y50819D01*
X282322Y50786D01*
X282350Y50736D01*
X282366Y50675D01*
Y50664D01*
X282372Y50641D01*
X282377Y50602D01*
X282383Y50552D01*
X282388Y50497D01*
X282394Y50436D01*
X282400Y50308D01*
Y50297D01*
Y50270D01*
Y50225D01*
Y50169D01*
X282394Y50103D01*
Y50025D01*
X282388Y49942D01*
X282383Y49853D01*
Y49842D01*
Y49814D01*
X282377Y49770D01*
Y49709D01*
Y49642D01*
X282372Y49565D01*
Y49481D01*
Y49393D01*
X282377Y49209D01*
X282383Y49220D01*
X282405Y49248D01*
X282444Y49287D01*
X282488Y49337D01*
X282544Y49393D01*
X282605Y49448D01*
X282672Y49504D01*
X282744Y49553D01*
X282755Y49559D01*
X282777Y49570D01*
X282816Y49592D01*
X282871Y49615D01*
X282932Y49631D01*
X282999Y49653D01*
X283077Y49665D01*
X283160Y49670D01*
X283193D01*
X283215Y49665D01*
X283277Y49659D01*
X283354Y49642D01*
X283432Y49615D01*
X283510Y49576D01*
X283582Y49520D01*
X283643Y49442D01*
X283648Y49437D01*
X283660Y49409D01*
X283671Y49370D01*
X283687Y49315D01*
X283710Y49243D01*
X283726Y49148D01*
X283737Y49037D01*
X283748Y48904D01*
X283759Y48499D01*
X283804Y48066D01*
Y48055D01*
X283809Y48022D01*
X283815Y47977D01*
X283820Y47916D01*
X283832Y47850D01*
X283843Y47778D01*
X283859Y47705D01*
X283870Y47633D01*
Y47628D01*
X283876Y47611D01*
X283881Y47589D01*
Y47572D01*
Y47567D01*
Y47561D01*
X283876Y47522D01*
X283854Y47478D01*
X283837Y47456D01*
X283815Y47433D01*
X283804Y47422D01*
X283776Y47406D01*
X283726Y47383D01*
X283698Y47378D01*
X283665Y47372D01*
X283643D01*
X283615Y47383D01*
X283587Y47394D01*
X283554Y47411D01*
X283521Y47439D01*
X283493Y47478D01*
X283471Y47528D01*
Y47533D01*
X283465Y47561D01*
X283454Y47600D01*
X283443Y47655D01*
X283426Y47722D01*
X283410Y47805D01*
X283399Y47905D01*
X283382Y48016D01*
Y48022D01*
Y48027D01*
X283377Y48044D01*
Y48066D01*
X283371Y48122D01*
X283365Y48194D01*
X283360Y48271D01*
X283354Y48360D01*
X283349Y48443D01*
Y48521D01*
Y48532D01*
Y48560D01*
Y48610D01*
X283354Y48643D01*
Y48682D01*
Y48688D01*
Y48699D01*
Y48721D01*
X283360Y48749D01*
Y48804D01*
Y48826D01*
Y48849D01*
Y48854D01*
Y48865D01*
Y48888D01*
X283354Y48910D01*
X283349Y48976D01*
X283338Y49049D01*
X283310Y49121D01*
X283277Y49187D01*
X283254Y49209D01*
X283227Y49232D01*
X283193Y49243D01*
X283160Y49248D01*
X283149D01*
X283116Y49243D01*
X283066Y49237D01*
X282999Y49220D01*
X282927Y49187D01*
X282849Y49143D01*
X282766Y49087D01*
X282721Y49049D01*
X282683Y49004D01*
X282677Y48998D01*
X282666Y48976D01*
X282638Y48943D01*
X282605Y48899D01*
X282566Y48832D01*
X282516Y48749D01*
X282461Y48649D01*
X282394Y48532D01*
Y48521D01*
Y48499D01*
Y48455D01*
Y48405D01*
Y48344D01*
X282388Y48271D01*
Y48194D01*
Y48110D01*
X282377Y47949D01*
X282372Y47866D01*
X282366Y47794D01*
X282361Y47722D01*
X282350Y47666D01*
X282339Y47617D01*
X282328Y47583D01*
Y47578D01*
X282316Y47561D01*
X282300Y47544D01*
X282283Y47522D01*
X282255Y47495D01*
X282222Y47478D01*
X282183Y47461D01*
X282139Y47456D01*
X282122D01*
X282105Y47461D01*
X282089D01*
X282033Y47478D01*
X281983Y47511D01*
Y47517D01*
X281972Y47522D01*
X281956Y47550D01*
X281933Y47600D01*
X281928Y47628D01*
X281922Y47655D01*
Y47661D01*
Y47678D01*
X281928Y47705D01*
X281939Y47744D01*
Y47750D01*
X281944Y47755D01*
Y47778D01*
X281950Y47805D01*
Y47844D01*
X281956Y47900D01*
X281961Y47966D01*
Y48055D01*
X281967Y48366D01*
X281978Y49903D01*
Y49909D01*
Y49914D01*
Y49948D01*
X281983Y49992D01*
Y50047D01*
Y50103D01*
X281989Y50164D01*
Y50214D01*
Y50258D01*
Y50264D01*
Y50275D01*
Y50297D01*
Y50325D01*
X281978Y50386D01*
X281967Y50458D01*
Y50464D01*
Y50475D01*
X281961Y50491D01*
Y50519D01*
X281956Y50580D01*
X281950Y50658D01*
Y50664D01*
Y50675D01*
X281956Y50708D01*
X281978Y50758D01*
X281989Y50780D01*
X282011Y50802D01*
X282017Y50808D01*
X282022Y50813D01*
X282055Y50836D01*
X282100Y50852D01*
X282128Y50863D01*
X282189D01*
X282217Y50852D01*
D02*
G37*
G36*
X287988Y76687D02*
X288166Y76487D01*
X288277Y76287D01*
X288322Y76220D01*
X288344Y76153D01*
X288366Y76109D01*
Y76087D01*
X288388Y75909D01*
X288366Y75776D01*
X288344Y75665D01*
X288322Y75642D01*
X288233Y75554D01*
X288099Y75487D01*
X287988Y75465D01*
X287811D01*
X287700Y75487D01*
X287611D01*
X287499Y75531D01*
X287433Y75576D01*
X287366Y75620D01*
X287322Y75642D01*
X287299Y75709D01*
Y75731D01*
X287322Y75865D01*
X287366Y76020D01*
X287499Y76265D01*
X287566Y76376D01*
X287633Y76464D01*
X287677Y76509D01*
X287700Y76531D01*
X287922Y76731D01*
X287988Y76687D01*
D02*
G37*
G36*
X290832Y64932D02*
X290966Y64910D01*
X290988Y64888D01*
X291010D01*
X291277Y64799D01*
X291521Y64666D01*
X291743Y64532D01*
X291966Y64377D01*
X292144Y64244D01*
X292277Y64155D01*
X292366Y64066D01*
X292388Y64043D01*
X292566Y63866D01*
X292721Y63666D01*
X292788Y63577D01*
X292832Y63510D01*
X292877Y63466D01*
Y63444D01*
X293010Y63266D01*
X293166Y63088D01*
X293343Y62910D01*
X293521Y62777D01*
X293699Y62644D01*
X293832Y62555D01*
X293921Y62488D01*
X293943Y62466D01*
X294210Y62310D01*
X294410Y62155D01*
X294566Y62044D01*
X294699Y61955D01*
X294788Y61888D01*
X294832Y61844D01*
X294877Y61799D01*
X295099Y61599D01*
X295321Y61422D01*
X295565Y61288D01*
X295788Y61155D01*
X295965Y61066D01*
X296143Y60999D01*
X296232Y60955D01*
X296276Y60933D01*
X296343D01*
X296432Y60910D01*
X296499Y60888D01*
X296543D01*
X296721Y60866D01*
X296854Y60822D01*
X296943Y60777D01*
X296965Y60755D01*
X297143Y60644D01*
X297254Y60555D01*
X297299Y60488D01*
X297321Y60466D01*
X297387Y60355D01*
X297432Y60244D01*
X297476Y60155D01*
Y60133D01*
X297521Y60022D01*
X297543Y59955D01*
X297565Y59911D01*
Y59888D01*
X297676Y59688D01*
X297765Y59488D01*
X297854Y59311D01*
X297899Y59133D01*
X297943Y59000D01*
X297965Y58866D01*
X297987Y58800D01*
Y58777D01*
X298010Y58622D01*
X298032Y58489D01*
Y58289D01*
X298010Y58178D01*
Y58133D01*
X297943Y58000D01*
X297854Y57866D01*
X297787Y57778D01*
X297743Y57733D01*
X297521Y57555D01*
X297254Y57400D01*
X297010Y57289D01*
X296743Y57178D01*
X296521Y57089D01*
X296343Y57022D01*
X296210Y57000D01*
X296187Y56978D01*
X296165D01*
X295921Y56933D01*
X295676Y56911D01*
X295121D01*
X294543Y57266D01*
X294165Y57511D01*
X293988Y57600D01*
X293854Y57689D01*
X293721Y57733D01*
X293632Y57778D01*
X293588Y57822D01*
X293566D01*
X293321Y57933D01*
X293099Y58044D01*
X292899Y58111D01*
X292721Y58178D01*
X292566Y58200D01*
X292455Y58222D01*
X292388Y58244D01*
X292366D01*
X292032Y58289D01*
X291766D01*
X291677Y58266D01*
X291610D01*
X291566Y58244D01*
X291544D01*
X291277Y58178D01*
X291010Y58066D01*
X290899Y58022D01*
X290810Y58000D01*
X290744Y57955D01*
X290721D01*
X290521Y57866D01*
X290344Y57778D01*
X290188Y57689D01*
X290077Y57600D01*
X289966Y57533D01*
X289899Y57489D01*
X289855Y57466D01*
X289833Y57444D01*
X289522Y57222D01*
X289255Y56978D01*
X289144Y56867D01*
X289055Y56800D01*
X288988Y56733D01*
X288966Y56711D01*
X288810Y56555D01*
X288677Y56422D01*
X288566Y56311D01*
X288477Y56244D01*
X288366Y56133D01*
X288322Y56111D01*
X288122Y55978D01*
X287922Y55867D01*
X287744Y55800D01*
X287611Y55733D01*
X287477Y55711D01*
X287388Y55689D01*
X287344Y55667D01*
X287055D01*
X286811Y55711D01*
X286700Y55756D01*
X286633Y55778D01*
X286589Y55800D01*
X286566D01*
X286388Y55911D01*
X286211Y56067D01*
X286077Y56200D01*
X285966Y56355D01*
X285855Y56489D01*
X285789Y56600D01*
X285766Y56689D01*
X285744Y56711D01*
X285611Y57000D01*
X285544Y57266D01*
X285522Y57377D01*
X285500Y57466D01*
Y57511D01*
Y57533D01*
Y57689D01*
X285522Y57844D01*
X285566Y57955D01*
X285589Y58044D01*
X285655Y58155D01*
X285678Y58200D01*
X285744Y58311D01*
X285833Y58422D01*
X285900Y58511D01*
X285922Y58555D01*
X286033Y58666D01*
X286166Y58777D01*
X286277Y58889D01*
X286300Y58933D01*
X286322D01*
X286544Y59177D01*
X286766Y59422D01*
X286855Y59533D01*
X286900Y59622D01*
X286944Y59666D01*
X286966Y59688D01*
X287100Y59888D01*
X287233Y60088D01*
X287366Y60288D01*
X287477Y60488D01*
X287566Y60644D01*
X287655Y60799D01*
X287700Y60888D01*
X287722Y60910D01*
X287922Y61310D01*
X288099Y61688D01*
X288233Y62021D01*
X288366Y62310D01*
X288455Y62533D01*
X288522Y62710D01*
X288566Y62821D01*
X288588Y62866D01*
X288699Y63155D01*
X288788Y63399D01*
X288855Y63599D01*
X288899Y63755D01*
X288944Y63866D01*
X288966Y63932D01*
X288988Y63977D01*
Y63999D01*
X289077Y64199D01*
X289144Y64355D01*
X289210Y64443D01*
X289233Y64466D01*
X289477Y64666D01*
X289699Y64799D01*
X289766Y64843D01*
X289833Y64888D01*
X289877Y64910D01*
X289899D01*
X290055Y64932D01*
X290210Y64955D01*
X290633D01*
X290832Y64932D01*
D02*
G37*
G36*
X291307Y49670D02*
X291341Y49665D01*
X291380Y49653D01*
X291474Y49626D01*
X291524Y49609D01*
X291579Y49581D01*
X291629Y49548D01*
X291685Y49515D01*
X291735Y49465D01*
X291785Y49415D01*
X291829Y49354D01*
X291874Y49287D01*
Y49281D01*
X291879Y49270D01*
X291890Y49254D01*
X291901Y49232D01*
X291912Y49204D01*
X291929Y49165D01*
X291946Y49126D01*
X291957Y49076D01*
X291990Y48971D01*
X292018Y48843D01*
X292035Y48699D01*
X292040Y48543D01*
Y48538D01*
Y48521D01*
Y48499D01*
X292035Y48466D01*
X292029Y48427D01*
X292023Y48377D01*
X292018Y48327D01*
X292007Y48271D01*
X291973Y48144D01*
X291934Y48011D01*
X291874Y47877D01*
X291796Y47750D01*
X291790Y47744D01*
X291785Y47733D01*
X291768Y47716D01*
X291746Y47694D01*
X291718Y47661D01*
X291685Y47633D01*
X291607Y47567D01*
X291502Y47495D01*
X291380Y47439D01*
X291313Y47411D01*
X291241Y47394D01*
X291163Y47383D01*
X291080Y47378D01*
X291047D01*
X291019Y47383D01*
X290991D01*
X290958Y47389D01*
X290875Y47411D01*
X290780Y47439D01*
X290675Y47483D01*
X290575Y47550D01*
X290525Y47589D01*
X290475Y47633D01*
X290469Y47639D01*
X290464Y47644D01*
X290447Y47661D01*
X290430Y47689D01*
X290408Y47716D01*
X290386Y47750D01*
X290358Y47794D01*
X290331Y47839D01*
X290303Y47894D01*
X290281Y47949D01*
X290231Y48083D01*
X290197Y48238D01*
X290186Y48321D01*
X290181Y48410D01*
Y48416D01*
Y48432D01*
Y48455D01*
Y48488D01*
X290186Y48532D01*
X290192Y48582D01*
X290197Y48632D01*
X290203Y48693D01*
X290231Y48826D01*
X290275Y48965D01*
X290336Y49110D01*
X290375Y49182D01*
X290419Y49248D01*
X290425Y49254D01*
X290430Y49265D01*
X290453Y49287D01*
X290475Y49315D01*
X290503Y49348D01*
X290542Y49382D01*
X290580Y49420D01*
X290630Y49465D01*
X290686Y49504D01*
X290747Y49542D01*
X290813Y49576D01*
X290886Y49609D01*
X290969Y49637D01*
X291052Y49659D01*
X291141Y49670D01*
X291235Y49676D01*
X291274D01*
X291307Y49670D01*
D02*
G37*
G36*
X278237Y50597D02*
X278265Y50591D01*
X278298Y50575D01*
X278337Y50547D01*
X278376Y50503D01*
X278409Y50447D01*
X278437Y50369D01*
X278565Y49665D01*
X278881Y48205D01*
X279003Y47872D01*
X279009Y47866D01*
X279014Y47844D01*
X279025Y47816D01*
X279036Y47783D01*
X279053Y47711D01*
X279064Y47678D01*
Y47650D01*
Y47644D01*
Y47633D01*
X279059Y47617D01*
Y47594D01*
X279036Y47544D01*
X279020Y47522D01*
X278997Y47500D01*
X278992D01*
X278986Y47489D01*
X278953Y47472D01*
X278909Y47450D01*
X278875Y47444D01*
X278848Y47439D01*
X278836D01*
X278814Y47444D01*
X278781Y47467D01*
X278759Y47478D01*
X278731Y47500D01*
X278709Y47528D01*
X278681Y47561D01*
X278653Y47600D01*
X278626Y47644D01*
X278592Y47700D01*
X278565Y47766D01*
X278537Y47844D01*
X278509Y47927D01*
Y47938D01*
X278498Y47966D01*
X278487Y48011D01*
X278470Y48083D01*
X278459Y48122D01*
X278454Y48172D01*
X278437Y48227D01*
X278426Y48288D01*
X278415Y48349D01*
X278398Y48427D01*
X278387Y48505D01*
X278370Y48588D01*
X278359D01*
X278331Y48582D01*
X278287Y48577D01*
X278221Y48566D01*
X278143Y48549D01*
X278048Y48532D01*
X277937Y48516D01*
X277815Y48488D01*
X277260Y48371D01*
Y48366D01*
X277255Y48360D01*
X277249Y48344D01*
X277238Y48321D01*
X277227Y48294D01*
X277216Y48255D01*
X277194Y48216D01*
X277177Y48166D01*
X277149Y48110D01*
X277127Y48055D01*
X277094Y47988D01*
X277061Y47916D01*
X277027Y47839D01*
X276983Y47755D01*
X276944Y47661D01*
X276894Y47567D01*
X276888Y47561D01*
X276883Y47550D01*
X276866Y47528D01*
X276844Y47511D01*
X276789Y47467D01*
X276750Y47456D01*
X276711Y47450D01*
X276700D01*
X276661Y47456D01*
X276611Y47472D01*
X276561Y47506D01*
Y47511D01*
X276550Y47517D01*
X276533Y47550D01*
X276511Y47594D01*
X276505Y47628D01*
X276500Y47661D01*
Y47666D01*
X276505Y47689D01*
X276511Y47705D01*
X276517Y47728D01*
X276528Y47755D01*
X276539Y47794D01*
X276555Y47839D01*
X276578Y47894D01*
X276606Y47955D01*
X276633Y48027D01*
X276672Y48110D01*
X276711Y48205D01*
X276761Y48310D01*
X276816Y48427D01*
X276811Y48438D01*
X276800Y48466D01*
X276783Y48505D01*
X276778Y48555D01*
Y48560D01*
X276783Y48582D01*
X276789Y48610D01*
X276805Y48643D01*
X276827Y48682D01*
X276866Y48715D01*
X276916Y48749D01*
X276983Y48771D01*
X276988Y48777D01*
X276994Y48793D01*
X277005Y48815D01*
X277027Y48849D01*
X277049Y48893D01*
X277077Y48943D01*
X277111Y49004D01*
X277149Y49071D01*
X277188Y49143D01*
X277238Y49220D01*
X277288Y49304D01*
X277338Y49398D01*
X277455Y49592D01*
X277588Y49803D01*
X277593Y49814D01*
X277610Y49837D01*
X277632Y49875D01*
X277665Y49931D01*
X277710Y49986D01*
X277754Y50059D01*
X277854Y50203D01*
X277960Y50347D01*
X278010Y50419D01*
X278060Y50480D01*
X278110Y50530D01*
X278148Y50569D01*
X278182Y50591D01*
X278209Y50602D01*
X278215D01*
X278237Y50597D01*
D02*
G37*
G36*
X287855Y74754D02*
X288011Y74709D01*
X288277Y74576D01*
X288366Y74487D01*
X288455Y74420D01*
X288499Y74376D01*
X288522Y74354D01*
X288588Y74265D01*
X288677Y74154D01*
X288833Y73931D01*
X288899Y73820D01*
X288966Y73754D01*
X288988Y73687D01*
X289011Y73665D01*
X289233Y73331D01*
X289321Y73198D01*
X289388Y73087D01*
X289433Y72998D01*
X289477Y72931D01*
X289499Y72887D01*
Y72865D01*
X289655Y72532D01*
X289766Y72176D01*
X289855Y71820D01*
X289921Y71509D01*
X289944Y71221D01*
X289966Y70998D01*
X289988Y70910D01*
Y70843D01*
Y70821D01*
Y70798D01*
Y70376D01*
X289966Y69976D01*
X289921Y69621D01*
X289877Y69310D01*
X289810Y69043D01*
X289744Y68843D01*
X289721Y68710D01*
X289699Y68687D01*
Y68665D01*
X289633Y68465D01*
X289544Y68288D01*
X289388Y67999D01*
X289210Y67799D01*
X289055Y67643D01*
X288922Y67554D01*
X288810Y67488D01*
X288744Y67465D01*
X288722D01*
X288455Y67421D01*
X287988D01*
X287744Y67465D01*
X287522Y67554D01*
X287433Y67599D01*
X287366Y67643D01*
X287344Y67688D01*
X287322D01*
X287211Y67799D01*
X287122Y67932D01*
X286966Y68177D01*
X286900Y68288D01*
X286877Y68376D01*
X286833Y68443D01*
Y68465D01*
X286677Y69065D01*
X286544Y69621D01*
X286455Y70132D01*
X286411Y70576D01*
X286388Y70776D01*
Y70954D01*
X286366Y71109D01*
Y71243D01*
Y71354D01*
Y71421D01*
Y71465D01*
Y71487D01*
Y71732D01*
X286388Y71976D01*
Y72176D01*
X286411Y72354D01*
X286433Y72665D01*
X286455Y72909D01*
X286477Y73065D01*
X286500Y73176D01*
X286522Y73220D01*
Y73243D01*
X286611Y73509D01*
X286700Y73754D01*
X286789Y73954D01*
X286877Y74131D01*
X286988Y74265D01*
X287077Y74398D01*
X287277Y74576D01*
X287433Y74687D01*
X287566Y74754D01*
X287677Y74776D01*
X287700D01*
X287855Y74754D01*
D02*
G37*
G36*
X296788Y69176D02*
X296943Y69110D01*
X297098Y68999D01*
X297232Y68910D01*
X297321Y68799D01*
X297410Y68710D01*
X297454Y68643D01*
X297476Y68621D01*
X297565Y68510D01*
X297632Y68443D01*
X297654Y68399D01*
X297676D01*
X297765Y68310D01*
X297832Y68199D01*
X297987Y67976D01*
X298054Y67865D01*
X298098Y67777D01*
X298121Y67710D01*
X298143Y67688D01*
X298276Y67399D01*
X298365Y67110D01*
X298454Y66821D01*
X298498Y66554D01*
X298543Y66310D01*
Y66132D01*
X298565Y66021D01*
Y65999D01*
Y65977D01*
Y65643D01*
X298543Y65310D01*
X298498Y65021D01*
X298454Y64777D01*
X298410Y64555D01*
X298365Y64399D01*
X298343Y64310D01*
X298321Y64266D01*
X298210Y64021D01*
X298098Y63821D01*
X298010Y63688D01*
X297987Y63666D01*
X297965Y63644D01*
X297787Y63488D01*
X297632Y63399D01*
X297521Y63377D01*
X297498Y63355D01*
X296943D01*
X296743Y63399D01*
X296610Y63444D01*
X296521Y63466D01*
X296499Y63488D01*
X296321Y63644D01*
X296143Y63799D01*
X296010Y63999D01*
X295921Y64199D01*
X295832Y64377D01*
X295765Y64510D01*
X295743Y64599D01*
X295721Y64644D01*
X295676Y64888D01*
X295632Y65154D01*
X295610Y65421D01*
X295588Y65666D01*
X295565Y65888D01*
Y66066D01*
Y66177D01*
Y66221D01*
X295588Y66643D01*
X295632Y67021D01*
X295676Y67377D01*
X295743Y67710D01*
X295810Y67976D01*
X295854Y68177D01*
X295876Y68310D01*
X295899Y68354D01*
X295965Y68554D01*
X296054Y68710D01*
X296121Y68821D01*
X296187Y68932D01*
X296232Y68999D01*
X296276Y69043D01*
X296321Y69087D01*
X296432Y69154D01*
X296521Y69176D01*
X296587Y69199D01*
X296610D01*
X296788Y69176D01*
D02*
G37*
G36*
X283789Y69710D02*
X283855Y69687D01*
X283878Y69665D01*
X284122Y69532D01*
X284322Y69421D01*
X284500Y69310D01*
X284633Y69221D01*
X284744Y69132D01*
X284811Y69065D01*
X284833Y69043D01*
X284855Y69021D01*
X285033Y68865D01*
X285166Y68732D01*
X285255Y68599D01*
X285278Y68576D01*
Y68554D01*
X285389Y68354D01*
X285477Y68199D01*
X285522Y68088D01*
X285544Y68065D01*
Y68043D01*
X285611Y67843D01*
X285655Y67643D01*
X285678Y67554D01*
X285700Y67465D01*
Y67421D01*
Y67399D01*
X285744Y67132D01*
X285766Y66954D01*
Y66865D01*
Y66821D01*
Y66732D01*
X285789Y66643D01*
Y66399D01*
Y66288D01*
Y66199D01*
Y66132D01*
Y66110D01*
Y65932D01*
X285811Y65799D01*
Y65688D01*
Y65621D01*
Y65577D01*
Y65532D01*
Y65510D01*
Y65355D01*
X285789Y65199D01*
X285766Y65066D01*
X285744Y65043D01*
Y65021D01*
X285700Y64843D01*
X285678Y64710D01*
X285655Y64621D01*
X285633Y64599D01*
X285589Y64466D01*
X285522Y64310D01*
X285477Y64199D01*
X285455Y64177D01*
Y64155D01*
X285411Y63999D01*
X285366Y63888D01*
X285344Y63844D01*
Y63821D01*
X285255Y63599D01*
X285144Y63421D01*
X285033Y63288D01*
X284900Y63199D01*
X284811Y63110D01*
X284722Y63066D01*
X284655Y63044D01*
X284633D01*
X284455Y63021D01*
X284278Y63066D01*
X284122Y63133D01*
X283966Y63199D01*
X283855Y63288D01*
X283767Y63377D01*
X283722Y63421D01*
X283700Y63444D01*
X283367Y63955D01*
X283100Y64488D01*
X282878Y65043D01*
X282744Y65554D01*
X282678Y65799D01*
X282633Y66021D01*
X282589Y66221D01*
X282567Y66399D01*
X282544Y66532D01*
X282522Y66643D01*
Y66710D01*
Y66732D01*
X282478Y67243D01*
X282522Y67576D01*
X282589Y68065D01*
X282700Y68465D01*
X282811Y68799D01*
X282944Y69065D01*
X283055Y69288D01*
X283144Y69421D01*
X283211Y69510D01*
X283233Y69532D01*
X283389Y69643D01*
X283500Y69710D01*
X283589Y69732D01*
X283722D01*
X283789Y69710D01*
D02*
G37*
G36*
X295997Y49648D02*
X296047Y49642D01*
X296103Y49631D01*
X296158Y49615D01*
X296208Y49598D01*
X296214D01*
X296230Y49587D01*
X296252Y49576D01*
X296286Y49559D01*
X296352Y49515D01*
X296386Y49481D01*
X296413Y49448D01*
X296425D01*
X296447Y49442D01*
X296486Y49431D01*
X296530Y49415D01*
X296569Y49387D01*
X296608Y49343D01*
X296630Y49281D01*
X296641Y49243D01*
Y49198D01*
Y49193D01*
Y49171D01*
Y49137D01*
X296635Y49093D01*
X296630Y49037D01*
X296624Y48965D01*
X296613Y48888D01*
X296597Y48799D01*
Y48793D01*
Y48788D01*
X296591Y48754D01*
X296580Y48704D01*
X296569Y48643D01*
X296563Y48577D01*
X296552Y48510D01*
X296547Y48455D01*
X296541Y48405D01*
X296491Y47700D01*
Y47694D01*
Y47683D01*
Y47661D01*
Y47633D01*
X296486Y47594D01*
Y47556D01*
X296474Y47461D01*
X296463Y47350D01*
X296447Y47239D01*
X296430Y47123D01*
X296402Y47017D01*
Y47012D01*
X296397Y47001D01*
X296391Y46984D01*
X296386Y46962D01*
X296363Y46901D01*
X296330Y46828D01*
X296286Y46745D01*
X296236Y46662D01*
X296175Y46584D01*
X296103Y46518D01*
X296097D01*
X296092Y46507D01*
X296075Y46501D01*
X296058Y46484D01*
X296030Y46473D01*
X295997Y46457D01*
X295958Y46434D01*
X295914Y46418D01*
X295864Y46401D01*
X295814Y46379D01*
X295686Y46351D01*
X295536Y46329D01*
X295370Y46318D01*
X295270D01*
X295203Y46323D01*
X295131Y46329D01*
X295054Y46334D01*
X294970Y46346D01*
X294898Y46357D01*
X294887Y46362D01*
X294859Y46368D01*
X294815Y46384D01*
X294771Y46407D01*
X294721Y46434D01*
X294676Y46473D01*
X294649Y46518D01*
X294643Y46545D01*
X294637Y46573D01*
Y46579D01*
X294643Y46601D01*
X294649Y46634D01*
X294660Y46668D01*
X294682Y46701D01*
X294715Y46734D01*
X294759Y46756D01*
X294821Y46762D01*
X294854D01*
X294882Y46756D01*
X294915D01*
X294959Y46751D01*
X295009Y46740D01*
X295070Y46729D01*
X295076D01*
X295104Y46723D01*
X295137Y46718D01*
X295187Y46712D01*
X295242Y46701D01*
X295309Y46695D01*
X295387Y46690D01*
X295481D01*
X295503Y46695D01*
X295531D01*
X295564Y46706D01*
X295598Y46718D01*
X295686Y46745D01*
X295731Y46767D01*
X295775Y46795D01*
X295819Y46828D01*
X295869Y46873D01*
X295908Y46917D01*
X295953Y46973D01*
X295986Y47034D01*
X296019Y47106D01*
Y47111D01*
X296025Y47117D01*
X296030Y47134D01*
X296036Y47156D01*
X296042Y47184D01*
X296053Y47223D01*
X296064Y47261D01*
X296069Y47311D01*
X296080Y47367D01*
X296092Y47428D01*
X296103Y47495D01*
X296108Y47572D01*
X296114Y47655D01*
X296125Y47744D01*
Y47839D01*
X296130Y47938D01*
X296125Y47927D01*
X296108Y47900D01*
X296086Y47855D01*
X296053Y47800D01*
X296014Y47744D01*
X295969Y47683D01*
X295914Y47622D01*
X295858Y47572D01*
X295853Y47567D01*
X295831Y47556D01*
X295797Y47533D01*
X295753Y47511D01*
X295703Y47489D01*
X295642Y47467D01*
X295570Y47456D01*
X295498Y47450D01*
X295459D01*
X295437Y47456D01*
X295403D01*
X295364Y47461D01*
X295281Y47483D01*
X295181Y47511D01*
X295081Y47556D01*
X294976Y47622D01*
X294926Y47661D01*
X294882Y47705D01*
Y47711D01*
X294870Y47716D01*
X294859Y47733D01*
X294843Y47755D01*
X294804Y47811D01*
X294765Y47888D01*
X294721Y47983D01*
X294682Y48099D01*
X294654Y48233D01*
X294649Y48305D01*
X294643Y48382D01*
Y48388D01*
Y48410D01*
Y48438D01*
X294649Y48477D01*
X294654Y48527D01*
X294660Y48582D01*
X294671Y48643D01*
X294682Y48710D01*
X294721Y48854D01*
X294748Y48932D01*
X294782Y49004D01*
X294815Y49082D01*
X294859Y49154D01*
X294909Y49226D01*
X294965Y49293D01*
X294970Y49298D01*
X294982Y49309D01*
X294998Y49326D01*
X295026Y49348D01*
X295059Y49376D01*
X295104Y49409D01*
X295153Y49437D01*
X295209Y49476D01*
X295270Y49509D01*
X295337Y49537D01*
X295414Y49570D01*
X295492Y49598D01*
X295581Y49620D01*
X295675Y49637D01*
X295775Y49648D01*
X295881Y49653D01*
X295953D01*
X295997Y49648D01*
D02*
G37*
G36*
X285941Y50736D02*
X285957D01*
X286007Y50713D01*
X286035Y50697D01*
X286057Y50675D01*
X286063D01*
X286068Y50664D01*
X286090Y50636D01*
X286107Y50586D01*
X286118Y50558D01*
Y50525D01*
Y50519D01*
Y50514D01*
Y50497D01*
Y50469D01*
Y50441D01*
Y50408D01*
Y50325D01*
Y50220D01*
Y50097D01*
X286113Y49959D01*
Y49809D01*
X286107Y49648D01*
Y49476D01*
X286102Y49298D01*
X286096Y49115D01*
X286079Y48738D01*
X286063Y48366D01*
X286035Y48044D01*
Y48038D01*
Y48016D01*
X286029Y47983D01*
Y47944D01*
X286024Y47894D01*
Y47844D01*
Y47739D01*
X286124D01*
X286174Y47744D01*
X286240Y47750D01*
X286318Y47755D01*
X286401Y47766D01*
X286496Y47778D01*
X286601Y47794D01*
X286718Y47816D01*
X286840Y47844D01*
X286973Y47872D01*
X287112Y47905D01*
X287256Y47949D01*
X287411Y47994D01*
X287417D01*
X287434Y48000D01*
X287456Y48005D01*
X287494D01*
X287511Y48000D01*
X287528Y47994D01*
X287578Y47977D01*
X287606Y47955D01*
X287628Y47933D01*
Y47927D01*
X287639Y47922D01*
X287655Y47888D01*
X287672Y47839D01*
X287683Y47778D01*
Y47772D01*
Y47755D01*
X287678Y47733D01*
X287667Y47705D01*
X287650Y47672D01*
X287622Y47639D01*
X287589Y47611D01*
X287544Y47583D01*
X287533Y47578D01*
X287522Y47572D01*
X287500Y47567D01*
X287472Y47556D01*
X287445Y47544D01*
X287406Y47533D01*
X287367Y47522D01*
X287317Y47506D01*
X287262Y47489D01*
X287200Y47472D01*
X287134Y47456D01*
X287062Y47439D01*
X286978Y47422D01*
X286895Y47406D01*
X286801Y47389D01*
X286795D01*
X286779Y47383D01*
X286756D01*
X286723Y47378D01*
X286684Y47372D01*
X286634Y47361D01*
X286529Y47350D01*
X286407Y47333D01*
X286279Y47317D01*
X286152Y47311D01*
X286035Y47306D01*
X286002D01*
X285963Y47311D01*
X285918Y47317D01*
X285818Y47333D01*
X285769Y47350D01*
X285730Y47372D01*
X285724Y47378D01*
X285713Y47389D01*
X285691Y47411D01*
X285669Y47444D01*
X285646Y47489D01*
X285624Y47544D01*
X285613Y47611D01*
X285608Y47694D01*
X285646Y48388D01*
Y48393D01*
Y48399D01*
Y48432D01*
X285652Y48482D01*
X285658Y48555D01*
Y48649D01*
X285663Y48754D01*
X285669Y48876D01*
X285674Y49015D01*
X285680Y49165D01*
X285685Y49332D01*
X285691Y49509D01*
Y49692D01*
X285696Y49892D01*
X285702Y50097D01*
Y50308D01*
Y50525D01*
Y50530D01*
Y50541D01*
X285707Y50558D01*
Y50575D01*
X285724Y50625D01*
X285757Y50675D01*
X285763Y50680D01*
X285769Y50686D01*
X285802Y50708D01*
X285846Y50730D01*
X285874Y50741D01*
X285924D01*
X285941Y50736D01*
D02*
G37*
G36*
X292992Y35763D02*
X293020Y35752D01*
X293048Y35736D01*
X293070Y35702D01*
X293087Y35664D01*
X293092Y35608D01*
Y35602D01*
Y35575D01*
X293087Y35530D01*
X293075Y35464D01*
Y35458D01*
Y35447D01*
X293070Y35414D01*
X293064Y35364D01*
Y35325D01*
Y35319D01*
Y35314D01*
Y35297D01*
Y35269D01*
Y35242D01*
Y35203D01*
X293070Y35158D01*
Y35109D01*
Y35103D01*
Y35086D01*
X293075Y35059D01*
Y35031D01*
X293081Y34964D01*
Y34931D01*
Y34903D01*
Y34892D01*
Y34875D01*
Y34859D01*
Y34831D01*
Y34803D01*
X293075Y34764D01*
Y34725D01*
X293070Y34676D01*
Y34626D01*
X293064Y34565D01*
X293059Y34498D01*
X293053Y34431D01*
X293048Y34354D01*
X293042Y34276D01*
X293031Y34187D01*
Y34182D01*
Y34165D01*
X293025Y34143D01*
Y34110D01*
X293020Y34071D01*
Y34026D01*
X293009Y33921D01*
X293003Y33804D01*
X292992Y33688D01*
X292986Y33577D01*
Y33477D01*
Y33471D01*
Y33455D01*
Y33427D01*
Y33393D01*
X292992Y33349D01*
Y33299D01*
Y33244D01*
X292998Y33183D01*
Y33177D01*
X293003Y33155D01*
Y33122D01*
X293009Y33083D01*
X293014Y32988D01*
X293020Y32944D01*
Y32900D01*
X293253D01*
X293286Y32894D01*
X293336Y32872D01*
X293358Y32861D01*
X293381Y32838D01*
X293386D01*
X293392Y32827D01*
X293414Y32800D01*
X293430Y32755D01*
X293442Y32728D01*
Y32700D01*
Y32694D01*
Y32683D01*
X293436Y32650D01*
X293414Y32600D01*
X293403Y32578D01*
X293381Y32555D01*
X293370Y32544D01*
X293342Y32528D01*
X293297Y32511D01*
X293236Y32500D01*
X292321D01*
X292254Y32506D01*
X292221Y32511D01*
X292198Y32517D01*
X292193D01*
X292182Y32522D01*
X292165Y32533D01*
X292148Y32550D01*
X292126Y32572D01*
X292110Y32600D01*
X292098Y32633D01*
X292093Y32678D01*
Y32689D01*
X292098Y32711D01*
X292110Y32744D01*
X292132Y32789D01*
X292171Y32827D01*
X292198Y32844D01*
X292232Y32861D01*
X292271Y32872D01*
X292315Y32883D01*
X292365Y32894D01*
X292420D01*
X292520Y32888D01*
X292609D01*
Y32894D01*
Y32905D01*
Y32933D01*
Y32961D01*
X292604Y33005D01*
Y33055D01*
X292598Y33116D01*
X292593Y33183D01*
Y33194D01*
Y33216D01*
X292587Y33249D01*
Y33294D01*
X292581Y33393D01*
X292576Y33438D01*
Y33477D01*
Y33482D01*
Y33488D01*
Y33505D01*
Y33527D01*
Y33555D01*
Y33588D01*
X292581Y33632D01*
Y33677D01*
Y33732D01*
X292587Y33793D01*
X292593Y33860D01*
Y33932D01*
X292598Y34010D01*
X292604Y34098D01*
X292615Y34187D01*
X292620Y34287D01*
Y34293D01*
Y34309D01*
X292626Y34337D01*
Y34376D01*
X292631Y34420D01*
X292637Y34470D01*
Y34531D01*
X292642Y34592D01*
X292653Y34725D01*
X292659Y34859D01*
X292665Y34986D01*
Y35047D01*
Y35103D01*
X292659D01*
X292653Y35092D01*
X292620Y35070D01*
X292570Y35036D01*
X292515Y34997D01*
X292454Y34953D01*
X292393Y34920D01*
X292343Y34898D01*
X292304Y34887D01*
X292293D01*
X292254Y34892D01*
X292210Y34914D01*
X292182Y34925D01*
X292160Y34948D01*
Y34953D01*
X292148Y34959D01*
X292132Y34986D01*
X292110Y35036D01*
X292104Y35064D01*
X292098Y35092D01*
Y35097D01*
X292104Y35109D01*
X292110Y35131D01*
X292121Y35158D01*
X292143Y35192D01*
X292176Y35236D01*
X292215Y35280D01*
X292276Y35331D01*
X292282Y35336D01*
X292298Y35347D01*
X292321Y35364D01*
X292359Y35392D01*
X292404Y35425D01*
X292459Y35469D01*
X292526Y35525D01*
X292598Y35586D01*
X292609Y35591D01*
X292631Y35614D01*
X292665Y35647D01*
X292709Y35680D01*
X292765Y35713D01*
X292826Y35747D01*
X292887Y35769D01*
X292948Y35774D01*
X292970D01*
X292992Y35763D01*
D02*
G37*
G36*
X276836D02*
X276864Y35752D01*
X276892Y35736D01*
X276914Y35702D01*
X276930Y35664D01*
X276936Y35608D01*
Y35602D01*
Y35575D01*
X276930Y35530D01*
X276919Y35464D01*
Y35458D01*
Y35447D01*
X276914Y35414D01*
X276908Y35364D01*
Y35325D01*
Y35319D01*
Y35314D01*
Y35297D01*
Y35269D01*
Y35242D01*
Y35203D01*
X276914Y35158D01*
Y35109D01*
Y35103D01*
Y35086D01*
X276919Y35059D01*
Y35031D01*
X276925Y34964D01*
Y34931D01*
Y34903D01*
Y34892D01*
Y34875D01*
Y34859D01*
Y34831D01*
Y34803D01*
X276919Y34764D01*
Y34725D01*
X276914Y34676D01*
Y34626D01*
X276908Y34565D01*
X276903Y34498D01*
X276897Y34431D01*
X276892Y34354D01*
X276886Y34276D01*
X276875Y34187D01*
Y34182D01*
Y34165D01*
X276869Y34143D01*
Y34110D01*
X276864Y34071D01*
Y34026D01*
X276853Y33921D01*
X276847Y33804D01*
X276836Y33688D01*
X276831Y33577D01*
Y33477D01*
Y33471D01*
Y33455D01*
Y33427D01*
Y33393D01*
X276836Y33349D01*
Y33299D01*
Y33244D01*
X276842Y33183D01*
Y33177D01*
X276847Y33155D01*
Y33122D01*
X276853Y33083D01*
X276858Y32988D01*
X276864Y32944D01*
Y32900D01*
X277097D01*
X277130Y32894D01*
X277180Y32872D01*
X277202Y32861D01*
X277224Y32838D01*
X277230D01*
X277236Y32827D01*
X277258Y32800D01*
X277274Y32755D01*
X277286Y32728D01*
Y32700D01*
Y32694D01*
Y32683D01*
X277280Y32650D01*
X277258Y32600D01*
X277247Y32578D01*
X277224Y32555D01*
X277214Y32544D01*
X277186Y32528D01*
X277141Y32511D01*
X277080Y32500D01*
X276165D01*
X276098Y32506D01*
X276065Y32511D01*
X276042Y32517D01*
X276037D01*
X276026Y32522D01*
X276009Y32533D01*
X275992Y32550D01*
X275970Y32572D01*
X275954Y32600D01*
X275942Y32633D01*
X275937Y32678D01*
Y32689D01*
X275942Y32711D01*
X275954Y32744D01*
X275976Y32789D01*
X276015Y32827D01*
X276042Y32844D01*
X276076Y32861D01*
X276115Y32872D01*
X276159Y32883D01*
X276209Y32894D01*
X276264D01*
X276364Y32888D01*
X276453D01*
Y32894D01*
Y32905D01*
Y32933D01*
Y32961D01*
X276448Y33005D01*
Y33055D01*
X276442Y33116D01*
X276436Y33183D01*
Y33194D01*
Y33216D01*
X276431Y33249D01*
Y33294D01*
X276425Y33393D01*
X276420Y33438D01*
Y33477D01*
Y33482D01*
Y33488D01*
Y33505D01*
Y33527D01*
Y33555D01*
Y33588D01*
X276425Y33632D01*
Y33677D01*
Y33732D01*
X276431Y33793D01*
X276436Y33860D01*
Y33932D01*
X276442Y34010D01*
X276448Y34098D01*
X276459Y34187D01*
X276464Y34287D01*
Y34293D01*
Y34309D01*
X276470Y34337D01*
Y34376D01*
X276475Y34420D01*
X276481Y34470D01*
Y34531D01*
X276486Y34592D01*
X276498Y34725D01*
X276503Y34859D01*
X276509Y34986D01*
Y35047D01*
Y35103D01*
X276503D01*
X276498Y35092D01*
X276464Y35070D01*
X276414Y35036D01*
X276359Y34997D01*
X276298Y34953D01*
X276237Y34920D01*
X276187Y34898D01*
X276148Y34887D01*
X276137D01*
X276098Y34892D01*
X276054Y34914D01*
X276026Y34925D01*
X276004Y34948D01*
Y34953D01*
X275992Y34959D01*
X275976Y34986D01*
X275954Y35036D01*
X275948Y35064D01*
X275942Y35092D01*
Y35097D01*
X275948Y35109D01*
X275954Y35131D01*
X275965Y35158D01*
X275987Y35192D01*
X276020Y35236D01*
X276059Y35280D01*
X276120Y35331D01*
X276126Y35336D01*
X276142Y35347D01*
X276165Y35364D01*
X276203Y35392D01*
X276248Y35425D01*
X276303Y35469D01*
X276370Y35525D01*
X276442Y35586D01*
X276453Y35591D01*
X276475Y35614D01*
X276509Y35647D01*
X276553Y35680D01*
X276608Y35713D01*
X276670Y35747D01*
X276731Y35769D01*
X276792Y35774D01*
X276814D01*
X276836Y35763D01*
D02*
G37*
G36*
X280976D02*
X281004Y35752D01*
X281032Y35736D01*
X281054Y35702D01*
X281071Y35664D01*
X281076Y35608D01*
Y35602D01*
Y35575D01*
X281071Y35530D01*
X281060Y35464D01*
Y35458D01*
Y35447D01*
X281054Y35414D01*
X281048Y35364D01*
Y35325D01*
Y35319D01*
Y35314D01*
Y35297D01*
Y35269D01*
Y35242D01*
Y35203D01*
X281054Y35158D01*
Y35109D01*
Y35103D01*
Y35086D01*
X281060Y35059D01*
Y35031D01*
X281065Y34964D01*
Y34931D01*
Y34903D01*
Y34892D01*
Y34875D01*
Y34859D01*
Y34831D01*
Y34803D01*
X281060Y34764D01*
Y34725D01*
X281054Y34676D01*
Y34626D01*
X281048Y34565D01*
X281043Y34498D01*
X281037Y34431D01*
X281032Y34354D01*
X281026Y34276D01*
X281015Y34187D01*
Y34182D01*
Y34165D01*
X281010Y34143D01*
Y34110D01*
X281004Y34071D01*
Y34026D01*
X280993Y33921D01*
X280987Y33804D01*
X280976Y33688D01*
X280971Y33577D01*
Y33477D01*
Y33471D01*
Y33455D01*
Y33427D01*
Y33393D01*
X280976Y33349D01*
Y33299D01*
Y33244D01*
X280982Y33183D01*
Y33177D01*
X280987Y33155D01*
Y33122D01*
X280993Y33083D01*
X280998Y32988D01*
X281004Y32944D01*
Y32900D01*
X281237D01*
X281271Y32894D01*
X281320Y32872D01*
X281343Y32861D01*
X281365Y32838D01*
X281370D01*
X281376Y32827D01*
X281398Y32800D01*
X281415Y32755D01*
X281426Y32728D01*
Y32700D01*
Y32694D01*
Y32683D01*
X281420Y32650D01*
X281398Y32600D01*
X281387Y32578D01*
X281365Y32555D01*
X281354Y32544D01*
X281326Y32528D01*
X281282Y32511D01*
X281221Y32500D01*
X280305D01*
X280238Y32506D01*
X280205Y32511D01*
X280183Y32517D01*
X280177D01*
X280166Y32522D01*
X280149Y32533D01*
X280133Y32550D01*
X280111Y32572D01*
X280094Y32600D01*
X280083Y32633D01*
X280077Y32678D01*
Y32689D01*
X280083Y32711D01*
X280094Y32744D01*
X280116Y32789D01*
X280155Y32827D01*
X280183Y32844D01*
X280216Y32861D01*
X280255Y32872D01*
X280299Y32883D01*
X280349Y32894D01*
X280405D01*
X280505Y32888D01*
X280593D01*
Y32894D01*
Y32905D01*
Y32933D01*
Y32961D01*
X280588Y33005D01*
Y33055D01*
X280582Y33116D01*
X280577Y33183D01*
Y33194D01*
Y33216D01*
X280571Y33249D01*
Y33294D01*
X280566Y33393D01*
X280560Y33438D01*
Y33477D01*
Y33482D01*
Y33488D01*
Y33505D01*
Y33527D01*
Y33555D01*
Y33588D01*
X280566Y33632D01*
Y33677D01*
Y33732D01*
X280571Y33793D01*
X280577Y33860D01*
Y33932D01*
X280582Y34010D01*
X280588Y34098D01*
X280599Y34187D01*
X280605Y34287D01*
Y34293D01*
Y34309D01*
X280610Y34337D01*
Y34376D01*
X280616Y34420D01*
X280621Y34470D01*
Y34531D01*
X280627Y34592D01*
X280638Y34725D01*
X280643Y34859D01*
X280649Y34986D01*
Y35047D01*
Y35103D01*
X280643D01*
X280638Y35092D01*
X280605Y35070D01*
X280555Y35036D01*
X280499Y34997D01*
X280438Y34953D01*
X280377Y34920D01*
X280327Y34898D01*
X280288Y34887D01*
X280277D01*
X280238Y34892D01*
X280194Y34914D01*
X280166Y34925D01*
X280144Y34948D01*
Y34953D01*
X280133Y34959D01*
X280116Y34986D01*
X280094Y35036D01*
X280088Y35064D01*
X280083Y35092D01*
Y35097D01*
X280088Y35109D01*
X280094Y35131D01*
X280105Y35158D01*
X280127Y35192D01*
X280160Y35236D01*
X280199Y35280D01*
X280260Y35331D01*
X280266Y35336D01*
X280283Y35347D01*
X280305Y35364D01*
X280344Y35392D01*
X280388Y35425D01*
X280444Y35469D01*
X280510Y35525D01*
X280582Y35586D01*
X280593Y35591D01*
X280616Y35614D01*
X280649Y35647D01*
X280693Y35680D01*
X280749Y35713D01*
X280810Y35747D01*
X280871Y35769D01*
X280932Y35774D01*
X280954D01*
X280976Y35763D01*
D02*
G37*
G36*
X77656Y28952D02*
X77684D01*
X77723Y28946D01*
X77817Y28929D01*
X77923Y28907D01*
X78039Y28868D01*
X78156Y28819D01*
X78272Y28752D01*
X78278D01*
X78284Y28741D01*
X78300Y28730D01*
X78322Y28713D01*
X78378Y28669D01*
X78450Y28608D01*
X78522Y28524D01*
X78606Y28425D01*
X78678Y28308D01*
X78744Y28175D01*
Y28169D01*
X78750Y28158D01*
X78761Y28136D01*
X78772Y28108D01*
X78783Y28069D01*
X78800Y28019D01*
X78811Y27964D01*
X78828Y27903D01*
X78844Y27831D01*
X78861Y27747D01*
X78872Y27659D01*
X78883Y27564D01*
X78894Y27459D01*
X78905Y27348D01*
X78911Y27226D01*
Y27098D01*
Y27092D01*
Y27065D01*
Y27026D01*
Y26976D01*
X78905Y26915D01*
Y26843D01*
X78900Y26759D01*
X78888Y26676D01*
X78872Y26487D01*
X78844Y26288D01*
X78805Y26099D01*
X78777Y26005D01*
X78750Y25921D01*
Y25916D01*
X78744Y25905D01*
X78733Y25883D01*
X78722Y25849D01*
X78705Y25816D01*
X78683Y25772D01*
X78628Y25677D01*
X78561Y25572D01*
X78483Y25461D01*
X78383Y25355D01*
X78272Y25261D01*
X78267D01*
X78256Y25250D01*
X78239Y25239D01*
X78217Y25228D01*
X78184Y25211D01*
X78150Y25189D01*
X78106Y25167D01*
X78062Y25150D01*
X77956Y25106D01*
X77829Y25067D01*
X77690Y25045D01*
X77534Y25033D01*
X77490D01*
X77462Y25039D01*
X77423D01*
X77379Y25045D01*
X77273Y25067D01*
X77157Y25095D01*
X77035Y25139D01*
X76913Y25200D01*
X76852Y25239D01*
X76796Y25283D01*
X76791Y25289D01*
X76785Y25294D01*
X76768Y25311D01*
X76752Y25328D01*
X76730Y25355D01*
X76702Y25389D01*
X76646Y25466D01*
X76591Y25566D01*
X76535Y25688D01*
X76491Y25827D01*
X76458Y25988D01*
X76913Y26027D01*
Y26021D01*
X76918Y26010D01*
Y25999D01*
X76924Y25977D01*
X76941Y25916D01*
X76963Y25849D01*
X76990Y25772D01*
X77029Y25694D01*
X77074Y25622D01*
X77129Y25561D01*
X77135Y25555D01*
X77157Y25539D01*
X77196Y25516D01*
X77240Y25494D01*
X77301Y25466D01*
X77373Y25444D01*
X77457Y25427D01*
X77545Y25422D01*
X77584D01*
X77623Y25427D01*
X77673Y25433D01*
X77734Y25444D01*
X77795Y25461D01*
X77862Y25483D01*
X77923Y25516D01*
X77928Y25522D01*
X77951Y25533D01*
X77984Y25555D01*
X78017Y25588D01*
X78062Y25627D01*
X78106Y25672D01*
X78150Y25722D01*
X78195Y25783D01*
X78200Y25788D01*
X78211Y25816D01*
X78234Y25855D01*
X78256Y25905D01*
X78284Y25971D01*
X78311Y26049D01*
X78339Y26138D01*
X78367Y26238D01*
Y26243D01*
X78372Y26249D01*
Y26265D01*
X78378Y26288D01*
X78389Y26343D01*
X78406Y26415D01*
X78417Y26504D01*
X78428Y26599D01*
X78434Y26704D01*
X78439Y26815D01*
Y26820D01*
Y26837D01*
Y26865D01*
Y26909D01*
X78434Y26898D01*
X78411Y26870D01*
X78378Y26832D01*
X78339Y26776D01*
X78284Y26721D01*
X78217Y26660D01*
X78139Y26599D01*
X78051Y26543D01*
X78039Y26537D01*
X78006Y26521D01*
X77956Y26499D01*
X77895Y26476D01*
X77812Y26449D01*
X77723Y26426D01*
X77623Y26410D01*
X77518Y26404D01*
X77473D01*
X77440Y26410D01*
X77396Y26415D01*
X77351Y26421D01*
X77296Y26432D01*
X77240Y26449D01*
X77113Y26487D01*
X77046Y26515D01*
X76979Y26549D01*
X76907Y26587D01*
X76841Y26637D01*
X76774Y26687D01*
X76713Y26748D01*
X76707Y26754D01*
X76696Y26765D01*
X76685Y26782D01*
X76663Y26809D01*
X76635Y26848D01*
X76608Y26887D01*
X76580Y26937D01*
X76552Y26992D01*
X76519Y27054D01*
X76491Y27120D01*
X76463Y27198D01*
X76436Y27276D01*
X76413Y27364D01*
X76402Y27459D01*
X76391Y27553D01*
X76385Y27659D01*
Y27664D01*
Y27686D01*
Y27714D01*
X76391Y27753D01*
X76397Y27803D01*
X76402Y27864D01*
X76413Y27925D01*
X76430Y27997D01*
X76469Y28141D01*
X76496Y28219D01*
X76530Y28302D01*
X76569Y28380D01*
X76619Y28452D01*
X76669Y28530D01*
X76730Y28596D01*
X76735Y28602D01*
X76746Y28613D01*
X76763Y28630D01*
X76791Y28652D01*
X76824Y28680D01*
X76868Y28713D01*
X76913Y28741D01*
X76968Y28780D01*
X77024Y28813D01*
X77090Y28841D01*
X77240Y28902D01*
X77318Y28924D01*
X77407Y28941D01*
X77495Y28952D01*
X77590Y28957D01*
X77629D01*
X77656Y28952D01*
D02*
G37*
G36*
X74660Y28935D02*
X74754Y28929D01*
X74854Y28924D01*
X74948Y28913D01*
X75031Y28902D01*
X75042D01*
X75081Y28891D01*
X75131Y28880D01*
X75198Y28863D01*
X75270Y28835D01*
X75348Y28802D01*
X75431Y28763D01*
X75503Y28719D01*
X75514Y28713D01*
X75536Y28696D01*
X75570Y28663D01*
X75614Y28624D01*
X75664Y28574D01*
X75714Y28508D01*
X75769Y28436D01*
X75814Y28352D01*
X75819Y28341D01*
X75831Y28313D01*
X75853Y28264D01*
X75875Y28197D01*
X75892Y28119D01*
X75914Y28030D01*
X75925Y27931D01*
X75930Y27825D01*
Y27819D01*
Y27803D01*
Y27781D01*
X75925Y27742D01*
X75919Y27703D01*
X75914Y27653D01*
X75903Y27597D01*
X75892Y27536D01*
X75853Y27409D01*
X75831Y27342D01*
X75797Y27270D01*
X75758Y27198D01*
X75719Y27131D01*
X75670Y27065D01*
X75614Y26998D01*
X75608Y26992D01*
X75597Y26981D01*
X75581Y26965D01*
X75553Y26948D01*
X75520Y26920D01*
X75475Y26893D01*
X75420Y26859D01*
X75359Y26832D01*
X75287Y26798D01*
X75203Y26765D01*
X75115Y26737D01*
X75009Y26715D01*
X74898Y26693D01*
X74776Y26676D01*
X74637Y26665D01*
X74493Y26660D01*
X73511D01*
Y25100D01*
X73000D01*
Y28941D01*
X74576D01*
X74660Y28935D01*
D02*
G37*
G36*
X292811Y49792D02*
X292839Y49781D01*
X292878Y49764D01*
X292917Y49731D01*
X292950Y49681D01*
X292961Y49648D01*
X292978Y49615D01*
X292984Y49570D01*
X292989Y49520D01*
X293000Y49276D01*
X293006Y49281D01*
X293017Y49298D01*
X293033Y49320D01*
X293061Y49348D01*
X293094Y49387D01*
X293128Y49426D01*
X293222Y49515D01*
X293328Y49598D01*
X293450Y49676D01*
X293516Y49703D01*
X293583Y49725D01*
X293655Y49742D01*
X293722Y49748D01*
X293755D01*
X293777Y49742D01*
X293838Y49731D01*
X293910Y49709D01*
X293988Y49676D01*
X294066Y49620D01*
X294099Y49587D01*
X294132Y49548D01*
X294166Y49504D01*
X294193Y49448D01*
X294199Y49437D01*
X294210Y49409D01*
X294221Y49365D01*
X294238Y49298D01*
X294254Y49220D01*
X294271Y49121D01*
X294288Y48998D01*
X294293Y48865D01*
Y48649D01*
X294288Y48455D01*
Y48449D01*
Y48421D01*
Y48388D01*
X294293Y48333D01*
X294299Y48271D01*
X294304Y48194D01*
X294316Y48105D01*
X294332Y48005D01*
Y48000D01*
Y47994D01*
X294338Y47961D01*
X294349Y47911D01*
X294354Y47844D01*
X294366Y47772D01*
X294371Y47700D01*
X294376Y47622D01*
Y47556D01*
Y47550D01*
Y47539D01*
X294371Y47506D01*
X294349Y47456D01*
X294338Y47433D01*
X294316Y47411D01*
X294304Y47400D01*
X294271Y47383D01*
X294227Y47361D01*
X294193Y47356D01*
X294160Y47350D01*
X294155D01*
X294132Y47356D01*
X294105Y47361D01*
X294071Y47372D01*
X294033Y47400D01*
X293999Y47433D01*
X293977Y47478D01*
X293960Y47544D01*
X293905Y48005D01*
Y48011D01*
Y48016D01*
X293899Y48050D01*
X293894Y48094D01*
Y48155D01*
X293888Y48227D01*
X293883Y48305D01*
X293877Y48466D01*
Y48471D01*
Y48477D01*
Y48493D01*
Y48516D01*
Y48543D01*
Y48577D01*
X293883Y48616D01*
Y48665D01*
Y48671D01*
Y48688D01*
Y48715D01*
X293888Y48743D01*
Y48815D01*
Y48843D01*
Y48871D01*
Y48876D01*
Y48893D01*
Y48915D01*
Y48943D01*
X293877Y49015D01*
X293866Y49098D01*
X293849Y49182D01*
X293816Y49254D01*
X293799Y49281D01*
X293777Y49309D01*
X293749Y49320D01*
X293722Y49326D01*
X293711D01*
X293683Y49320D01*
X293638Y49309D01*
X293577Y49293D01*
X293511Y49259D01*
X293433Y49209D01*
X293394Y49176D01*
X293355Y49137D01*
X293311Y49093D01*
X293272Y49043D01*
Y49037D01*
X293267Y49032D01*
X293255Y49015D01*
X293239Y48998D01*
X293205Y48943D01*
X293167Y48865D01*
X293117Y48771D01*
X293067Y48665D01*
X293017Y48538D01*
X292972Y48399D01*
Y48393D01*
Y48382D01*
Y48366D01*
X292967Y48344D01*
Y48310D01*
X292961Y48277D01*
X292956Y48194D01*
Y48188D01*
Y48177D01*
X292950Y48155D01*
Y48127D01*
X292945Y48061D01*
Y47988D01*
Y47977D01*
Y47961D01*
Y47944D01*
X292950Y47916D01*
Y47883D01*
Y47844D01*
X292956Y47800D01*
Y47794D01*
Y47778D01*
X292961Y47755D01*
Y47728D01*
X292967Y47666D01*
Y47639D01*
Y47611D01*
Y47605D01*
Y47594D01*
X292961Y47578D01*
Y47556D01*
X292939Y47506D01*
X292928Y47483D01*
X292906Y47461D01*
X292895Y47450D01*
X292867Y47433D01*
X292823Y47411D01*
X292795Y47406D01*
X292761Y47400D01*
X292745D01*
X292728Y47406D01*
X292706D01*
X292656Y47428D01*
X292628Y47439D01*
X292606Y47461D01*
X292595Y47472D01*
X292578Y47500D01*
X292562Y47550D01*
X292551Y47611D01*
Y47617D01*
Y47622D01*
Y47639D01*
Y47655D01*
Y47683D01*
X292545Y47716D01*
Y47755D01*
X292540Y47800D01*
Y47805D01*
Y47822D01*
X292534Y47844D01*
Y47872D01*
X292528Y47933D01*
Y47961D01*
Y47988D01*
Y48000D01*
Y48027D01*
Y48077D01*
X292534Y48144D01*
Y48233D01*
X292540Y48333D01*
X292545Y48455D01*
X292556Y48588D01*
Y48593D01*
Y48605D01*
Y48627D01*
X292562Y48649D01*
Y48682D01*
X292567Y48721D01*
X292573Y48804D01*
Y48904D01*
X292578Y49004D01*
X292584Y49098D01*
Y49187D01*
Y49193D01*
Y49198D01*
Y49215D01*
Y49237D01*
Y49265D01*
X292578Y49298D01*
Y49343D01*
X292573Y49387D01*
Y49393D01*
Y49409D01*
Y49431D01*
Y49465D01*
X292567Y49526D01*
Y49559D01*
Y49587D01*
Y49592D01*
Y49603D01*
X292573Y49620D01*
Y49642D01*
X292595Y49692D01*
X292606Y49714D01*
X292628Y49737D01*
X292634Y49742D01*
X292639Y49748D01*
X292673Y49770D01*
X292717Y49787D01*
X292745Y49798D01*
X292789D01*
X292811Y49792D01*
D02*
G37*
G36*
X288283Y49731D02*
X288305D01*
X288355Y49709D01*
X288383Y49698D01*
X288405Y49676D01*
X288410D01*
X288416Y49665D01*
X288438Y49637D01*
X288455Y49587D01*
X288466Y49559D01*
Y49526D01*
Y49520D01*
Y49509D01*
Y49487D01*
X288460Y49454D01*
Y49409D01*
X288455Y49359D01*
X288449Y49293D01*
X288438Y49220D01*
Y49209D01*
X288433Y49187D01*
X288427Y49148D01*
Y49104D01*
X288416Y48998D01*
X288410Y48943D01*
Y48899D01*
Y48893D01*
Y48882D01*
Y48865D01*
Y48838D01*
Y48810D01*
Y48777D01*
X288416Y48693D01*
Y48599D01*
X288421Y48499D01*
X288427Y48399D01*
X288433Y48299D01*
Y48288D01*
X288438Y48260D01*
X288444Y48210D01*
X288449Y48155D01*
X288460Y48088D01*
X288471Y48022D01*
X288482Y47955D01*
X288499Y47894D01*
X288505D01*
X288510Y47888D01*
X288544Y47877D01*
X288582Y47855D01*
X288632Y47839D01*
X288643D01*
X288677Y47833D01*
X288716Y47827D01*
X288766Y47822D01*
X288815D01*
X288871Y47827D01*
X288949Y47833D01*
X289037Y47844D01*
X289137Y47861D01*
X289248Y47883D01*
X289365Y47911D01*
X289359Y48338D01*
X289354Y48743D01*
Y48749D01*
Y48765D01*
Y48788D01*
Y48821D01*
Y48860D01*
Y48904D01*
X289359Y48954D01*
Y49015D01*
X289365Y49137D01*
X289370Y49270D01*
X289382Y49404D01*
X289398Y49531D01*
Y49542D01*
X289404Y49565D01*
X289415Y49592D01*
X289432Y49631D01*
X289459Y49665D01*
X289493Y49698D01*
X289537Y49720D01*
X289598Y49725D01*
X289615D01*
X289648Y49720D01*
X289698Y49698D01*
X289720Y49687D01*
X289742Y49665D01*
X289748D01*
X289753Y49653D01*
X289776Y49626D01*
X289792Y49576D01*
X289803Y49548D01*
Y49515D01*
X289770Y48726D01*
Y48721D01*
Y48699D01*
Y48660D01*
Y48610D01*
Y48543D01*
Y48466D01*
Y48371D01*
Y48266D01*
Y48260D01*
Y48255D01*
Y48238D01*
Y48216D01*
Y48166D01*
Y48099D01*
Y48027D01*
Y47949D01*
Y47877D01*
Y47816D01*
Y47811D01*
Y47783D01*
Y47739D01*
X289776Y47678D01*
Y47672D01*
Y47661D01*
X289781Y47628D01*
X289787Y47578D01*
Y47539D01*
Y47533D01*
Y47522D01*
X289781Y47489D01*
X289759Y47439D01*
X289748Y47417D01*
X289726Y47394D01*
X289715Y47383D01*
X289687Y47367D01*
X289637Y47345D01*
X289609Y47339D01*
X289576Y47333D01*
X289570D01*
X289548Y47339D01*
X289520Y47345D01*
X289487Y47356D01*
X289454Y47383D01*
X289420Y47417D01*
X289393Y47461D01*
X289370Y47528D01*
X289365D01*
X289359Y47522D01*
X289343Y47517D01*
X289326Y47506D01*
X289271Y47483D01*
X289193Y47461D01*
X289104Y47439D01*
X288999Y47417D01*
X288888Y47400D01*
X288760Y47394D01*
X288716D01*
X288666Y47400D01*
X288599Y47411D01*
X288527Y47422D01*
X288455Y47444D01*
X288377Y47472D01*
X288305Y47511D01*
X288294Y47517D01*
X288271Y47539D01*
X288238Y47567D01*
X288199Y47611D01*
X288161Y47666D01*
X288122Y47739D01*
X288094Y47816D01*
X288072Y47905D01*
Y47911D01*
X288066Y47927D01*
Y47961D01*
X288061Y48000D01*
X288055Y48050D01*
X288050Y48105D01*
X288038Y48166D01*
X288033Y48238D01*
X288016Y48393D01*
X288005Y48560D01*
X288000Y48732D01*
X287994Y48899D01*
Y48904D01*
Y48910D01*
Y48926D01*
Y48949D01*
X288000Y49010D01*
Y49087D01*
X288011Y49182D01*
X288022Y49293D01*
X288033Y49420D01*
X288055Y49553D01*
Y49559D01*
X288061Y49581D01*
X288072Y49609D01*
X288088Y49648D01*
X288116Y49681D01*
X288149Y49709D01*
X288194Y49731D01*
X288249Y49737D01*
X288266D01*
X288283Y49731D01*
D02*
G37*
G36*
X279913Y49792D02*
X279941Y49781D01*
X279980Y49764D01*
X280019Y49731D01*
X280052Y49681D01*
X280063Y49648D01*
X280080Y49615D01*
X280085Y49570D01*
X280091Y49520D01*
X280102Y49276D01*
X280107Y49281D01*
X280119Y49298D01*
X280135Y49320D01*
X280163Y49348D01*
X280196Y49387D01*
X280230Y49426D01*
X280324Y49515D01*
X280429Y49598D01*
X280552Y49676D01*
X280618Y49703D01*
X280685Y49725D01*
X280757Y49742D01*
X280823Y49748D01*
X280857D01*
X280879Y49742D01*
X280940Y49731D01*
X281012Y49709D01*
X281090Y49676D01*
X281168Y49620D01*
X281201Y49587D01*
X281234Y49548D01*
X281267Y49504D01*
X281295Y49448D01*
X281301Y49437D01*
X281312Y49409D01*
X281323Y49365D01*
X281340Y49298D01*
X281356Y49220D01*
X281373Y49121D01*
X281390Y48998D01*
X281395Y48865D01*
Y48649D01*
X281390Y48455D01*
Y48449D01*
Y48421D01*
Y48388D01*
X281395Y48333D01*
X281401Y48271D01*
X281406Y48194D01*
X281417Y48105D01*
X281434Y48005D01*
Y48000D01*
Y47994D01*
X281439Y47961D01*
X281451Y47911D01*
X281456Y47844D01*
X281467Y47772D01*
X281473Y47700D01*
X281478Y47622D01*
Y47556D01*
Y47550D01*
Y47539D01*
X281473Y47506D01*
X281451Y47456D01*
X281439Y47433D01*
X281417Y47411D01*
X281406Y47400D01*
X281373Y47383D01*
X281329Y47361D01*
X281295Y47356D01*
X281262Y47350D01*
X281256D01*
X281234Y47356D01*
X281206Y47361D01*
X281173Y47372D01*
X281134Y47400D01*
X281101Y47433D01*
X281079Y47478D01*
X281062Y47544D01*
X281007Y48005D01*
Y48011D01*
Y48016D01*
X281001Y48050D01*
X280995Y48094D01*
Y48155D01*
X280990Y48227D01*
X280984Y48305D01*
X280979Y48466D01*
Y48471D01*
Y48477D01*
Y48493D01*
Y48516D01*
Y48543D01*
Y48577D01*
X280984Y48616D01*
Y48665D01*
Y48671D01*
Y48688D01*
Y48715D01*
X280990Y48743D01*
Y48815D01*
Y48843D01*
Y48871D01*
Y48876D01*
Y48893D01*
Y48915D01*
Y48943D01*
X280979Y49015D01*
X280968Y49098D01*
X280951Y49182D01*
X280918Y49254D01*
X280901Y49281D01*
X280879Y49309D01*
X280851Y49320D01*
X280823Y49326D01*
X280812D01*
X280785Y49320D01*
X280740Y49309D01*
X280679Y49293D01*
X280613Y49259D01*
X280535Y49209D01*
X280496Y49176D01*
X280457Y49137D01*
X280413Y49093D01*
X280374Y49043D01*
Y49037D01*
X280368Y49032D01*
X280357Y49015D01*
X280341Y48998D01*
X280307Y48943D01*
X280268Y48865D01*
X280219Y48771D01*
X280169Y48665D01*
X280119Y48538D01*
X280074Y48399D01*
Y48393D01*
Y48382D01*
Y48366D01*
X280069Y48344D01*
Y48310D01*
X280063Y48277D01*
X280058Y48194D01*
Y48188D01*
Y48177D01*
X280052Y48155D01*
Y48127D01*
X280047Y48061D01*
Y47988D01*
Y47977D01*
Y47961D01*
Y47944D01*
X280052Y47916D01*
Y47883D01*
Y47844D01*
X280058Y47800D01*
Y47794D01*
Y47778D01*
X280063Y47755D01*
Y47728D01*
X280069Y47666D01*
Y47639D01*
Y47611D01*
Y47605D01*
Y47594D01*
X280063Y47578D01*
Y47556D01*
X280041Y47506D01*
X280030Y47483D01*
X280008Y47461D01*
X279996Y47450D01*
X279969Y47433D01*
X279924Y47411D01*
X279897Y47406D01*
X279863Y47400D01*
X279847D01*
X279830Y47406D01*
X279808D01*
X279758Y47428D01*
X279730Y47439D01*
X279708Y47461D01*
X279697Y47472D01*
X279680Y47500D01*
X279663Y47550D01*
X279652Y47611D01*
Y47617D01*
Y47622D01*
Y47639D01*
Y47655D01*
Y47683D01*
X279647Y47716D01*
Y47755D01*
X279641Y47800D01*
Y47805D01*
Y47822D01*
X279636Y47844D01*
Y47872D01*
X279630Y47933D01*
Y47961D01*
Y47988D01*
Y48000D01*
Y48027D01*
Y48077D01*
X279636Y48144D01*
Y48233D01*
X279641Y48333D01*
X279647Y48455D01*
X279658Y48588D01*
Y48593D01*
Y48605D01*
Y48627D01*
X279663Y48649D01*
Y48682D01*
X279669Y48721D01*
X279675Y48804D01*
Y48904D01*
X279680Y49004D01*
X279686Y49098D01*
Y49187D01*
Y49193D01*
Y49198D01*
Y49215D01*
Y49237D01*
Y49265D01*
X279680Y49298D01*
Y49343D01*
X279675Y49387D01*
Y49393D01*
Y49409D01*
Y49431D01*
Y49465D01*
X279669Y49526D01*
Y49559D01*
Y49587D01*
Y49592D01*
Y49603D01*
X279675Y49620D01*
Y49642D01*
X279697Y49692D01*
X279708Y49714D01*
X279730Y49737D01*
X279736Y49742D01*
X279741Y49748D01*
X279774Y49770D01*
X279819Y49787D01*
X279847Y49798D01*
X279891D01*
X279913Y49792D01*
D02*
G37*
%LPC*%
G36*
X291213Y49248D02*
X291185D01*
X291163Y49243D01*
X291108Y49232D01*
X291035Y49209D01*
X290958Y49176D01*
X290880Y49126D01*
X290841Y49093D01*
X290802Y49054D01*
X290763Y49004D01*
X290730Y48954D01*
X290725Y48943D01*
X290708Y48910D01*
X290686Y48865D01*
X290664Y48799D01*
X290641Y48715D01*
X290619Y48627D01*
X290603Y48521D01*
X290597Y48410D01*
Y48405D01*
Y48399D01*
Y48382D01*
Y48360D01*
X290608Y48305D01*
X290619Y48238D01*
X290636Y48160D01*
X290664Y48083D01*
X290702Y48005D01*
X290758Y47938D01*
X290763Y47933D01*
X290780Y47916D01*
X290813Y47894D01*
X290852Y47872D01*
X290897Y47844D01*
X290952Y47822D01*
X291019Y47805D01*
X291085Y47800D01*
X291124D01*
X291163Y47811D01*
X291213Y47822D01*
X291274Y47839D01*
X291335Y47866D01*
X291402Y47905D01*
X291463Y47955D01*
X291468Y47966D01*
X291491Y47988D01*
X291518Y48027D01*
X291552Y48083D01*
X291585Y48149D01*
X291618Y48233D01*
X291640Y48327D01*
X291652Y48432D01*
Y48443D01*
Y48466D01*
Y48510D01*
Y48560D01*
X291646Y48621D01*
X291635Y48688D01*
X291607Y48838D01*
X291585Y48915D01*
X291557Y48987D01*
X291524Y49054D01*
X291479Y49121D01*
X291429Y49171D01*
X291368Y49209D01*
X291296Y49237D01*
X291213Y49248D01*
D02*
G37*
G36*
X77706Y28569D02*
X77618D01*
X77595Y28563D01*
X77534Y28558D01*
X77462Y28535D01*
X77373Y28508D01*
X77279Y28458D01*
X77185Y28397D01*
X77140Y28352D01*
X77096Y28308D01*
Y28302D01*
X77085Y28297D01*
X77074Y28280D01*
X77063Y28264D01*
X77024Y28208D01*
X76985Y28130D01*
X76941Y28036D01*
X76902Y27919D01*
X76879Y27786D01*
X76868Y27642D01*
Y27636D01*
Y27625D01*
Y27609D01*
X76874Y27581D01*
Y27548D01*
X76879Y27514D01*
X76896Y27431D01*
X76924Y27337D01*
X76957Y27237D01*
X77013Y27137D01*
X77085Y27048D01*
X77096Y27037D01*
X77124Y27015D01*
X77174Y26976D01*
X77235Y26937D01*
X77318Y26893D01*
X77412Y26854D01*
X77518Y26832D01*
X77634Y26820D01*
X77668D01*
X77690Y26826D01*
X77751Y26832D01*
X77823Y26848D01*
X77912Y26876D01*
X78000Y26915D01*
X78089Y26970D01*
X78173Y27048D01*
X78184Y27059D01*
X78206Y27092D01*
X78239Y27142D01*
X78284Y27215D01*
X78322Y27303D01*
X78356Y27409D01*
X78378Y27536D01*
X78389Y27681D01*
Y27686D01*
Y27697D01*
Y27720D01*
X78383Y27747D01*
Y27786D01*
X78378Y27825D01*
X78361Y27914D01*
X78339Y28019D01*
X78300Y28130D01*
X78245Y28236D01*
X78173Y28330D01*
Y28336D01*
X78162Y28341D01*
X78134Y28369D01*
X78089Y28408D01*
X78028Y28452D01*
X77951Y28491D01*
X77862Y28530D01*
X77762Y28558D01*
X77706Y28569D01*
D02*
G37*
G36*
X74610Y28486D02*
X73511D01*
Y27115D01*
X74543D01*
X74582Y27120D01*
X74621D01*
X74665Y27126D01*
X74770Y27137D01*
X74887Y27159D01*
X75003Y27192D01*
X75109Y27237D01*
X75159Y27264D01*
X75198Y27298D01*
X75209Y27309D01*
X75231Y27331D01*
X75264Y27376D01*
X75303Y27431D01*
X75342Y27503D01*
X75375Y27592D01*
X75398Y27692D01*
X75409Y27808D01*
Y27814D01*
Y27819D01*
Y27847D01*
X75403Y27897D01*
X75392Y27953D01*
X75381Y28014D01*
X75359Y28086D01*
X75326Y28152D01*
X75287Y28219D01*
X75281Y28225D01*
X75264Y28247D01*
X75237Y28275D01*
X75203Y28313D01*
X75153Y28352D01*
X75098Y28386D01*
X75037Y28419D01*
X74965Y28447D01*
X74959D01*
X74937Y28452D01*
X74904Y28458D01*
X74859Y28469D01*
X74793Y28474D01*
X74709Y28480D01*
X74610Y28486D01*
D02*
G37*
G36*
X293010Y62666D02*
X291232D01*
Y61622D01*
X291566D01*
Y60222D01*
X290521D01*
Y61622D01*
X290877D01*
Y62666D01*
X289122D01*
Y61622D01*
X289455D01*
Y60533D01*
Y59866D01*
X290166Y59155D01*
X291921D01*
X292654Y59866D01*
Y61622D01*
X293010D01*
Y62666D01*
D02*
G37*
G36*
X278104Y49831D02*
X277505Y48865D01*
X277510D01*
X277516Y48871D01*
X277532D01*
X277554Y48876D01*
X277582Y48882D01*
X277610Y48893D01*
X277654Y48899D01*
X277699Y48910D01*
X277749Y48921D01*
X277804Y48932D01*
X277871Y48949D01*
X277937Y48960D01*
X278015Y48976D01*
X278093Y48993D01*
X278182Y49010D01*
X278276Y49026D01*
X278104Y49831D01*
D02*
G37*
G36*
X295864Y49232D02*
X295825D01*
X295797Y49226D01*
X295764D01*
X295725Y49220D01*
X295636Y49198D01*
X295536Y49171D01*
X295431Y49126D01*
X295331Y49065D01*
X295287Y49026D01*
X295242Y48982D01*
X295237Y48971D01*
X295215Y48943D01*
X295181Y48893D01*
X295148Y48826D01*
X295109Y48749D01*
X295081Y48649D01*
X295059Y48538D01*
X295048Y48416D01*
Y48410D01*
Y48405D01*
Y48371D01*
X295054Y48321D01*
X295065Y48260D01*
X295076Y48194D01*
X295093Y48127D01*
X295120Y48061D01*
X295159Y48005D01*
X295165Y48000D01*
X295181Y47983D01*
X295209Y47961D01*
X295248Y47938D01*
X295298Y47916D01*
X295353Y47894D01*
X295426Y47877D01*
X295509Y47872D01*
X295520D01*
X295548Y47877D01*
X295586Y47883D01*
X295642Y47900D01*
X295703Y47922D01*
X295775Y47961D01*
X295847Y48011D01*
X295925Y48083D01*
X295931Y48094D01*
X295953Y48116D01*
X295986Y48155D01*
X296019Y48205D01*
X296058Y48266D01*
X296092Y48333D01*
X296114Y48405D01*
X296130Y48477D01*
Y48488D01*
X296136Y48516D01*
X296147Y48566D01*
X296158Y48632D01*
X296175Y48721D01*
X296191Y48832D01*
X296208Y48960D01*
X296219Y49037D01*
X296230Y49115D01*
X296225D01*
X296214Y49126D01*
X296197Y49132D01*
X296175Y49148D01*
X296114Y49176D01*
X296047Y49198D01*
X296042D01*
X296030Y49204D01*
X296014Y49209D01*
X295992Y49215D01*
X295931Y49226D01*
X295864Y49232D01*
D02*
G37*
G36*
X280692Y42775D02*
X280708Y42520D01*
Y42514D01*
X280714Y42492D01*
Y42464D01*
X280719Y42431D01*
X280725Y42348D01*
Y42264D01*
Y42259D01*
Y42237D01*
Y42198D01*
X280719Y42148D01*
Y42092D01*
X280714Y42020D01*
X280708Y41937D01*
X280697Y41848D01*
X280658Y41432D01*
X280930D01*
X280975Y41438D01*
X281025D01*
X281141Y41449D01*
X281269Y41465D01*
X281402Y41493D01*
X281524Y41526D01*
X281585Y41548D01*
X281635Y41571D01*
X281641Y41576D01*
X281657Y41582D01*
X281679Y41598D01*
X281707Y41615D01*
X281779Y41671D01*
X281857Y41743D01*
X281863Y41748D01*
X281874Y41765D01*
X281890Y41781D01*
X281913Y41809D01*
X281951Y41876D01*
X281962Y41909D01*
X281968Y41937D01*
Y41943D01*
Y41948D01*
Y41965D01*
X281962Y41987D01*
X281951Y42042D01*
X281929Y42115D01*
X281885Y42198D01*
X281863Y42242D01*
X281829Y42292D01*
X281790Y42336D01*
X281746Y42386D01*
X281696Y42437D01*
X281635Y42481D01*
X281629Y42486D01*
X281624Y42492D01*
X281607Y42503D01*
X281585Y42520D01*
X281519Y42559D01*
X281441Y42603D01*
X281347Y42647D01*
X281235Y42692D01*
X281119Y42725D01*
X280997Y42747D01*
X280692Y42775D01*
D02*
G37*
G36*
X245321Y42875D02*
X245199D01*
X245094Y42869D01*
X245044Y42864D01*
X245005Y42858D01*
X245000Y42486D01*
X244955Y41671D01*
X244966D01*
X245000Y41665D01*
X245049D01*
X245105Y41659D01*
X245160Y41654D01*
X245210Y41648D01*
X245288D01*
X245305Y41654D01*
X245327D01*
X245382Y41665D01*
X245455Y41682D01*
X245538Y41704D01*
X245627Y41737D01*
X245710Y41787D01*
X245793Y41843D01*
X245804Y41854D01*
X245827Y41876D01*
X245860Y41920D01*
X245904Y41976D01*
X245943Y42042D01*
X245976Y42131D01*
X245999Y42226D01*
X246010Y42331D01*
Y42342D01*
X246004Y42364D01*
X245999Y42403D01*
X245982Y42453D01*
X245954Y42509D01*
X245915Y42570D01*
X245860Y42636D01*
X245788Y42703D01*
X245777Y42708D01*
X245749Y42731D01*
X245704Y42758D01*
X245649Y42792D01*
X245577Y42819D01*
X245499Y42847D01*
X245410Y42869D01*
X245321Y42875D01*
D02*
G37*
G36*
X256038Y41815D02*
X256027D01*
X255994Y41809D01*
X255950Y41804D01*
X255889Y41793D01*
X255822Y41765D01*
X255750Y41732D01*
X255678Y41682D01*
X255611Y41615D01*
X255606Y41604D01*
X255583Y41576D01*
X255556Y41532D01*
X255517Y41465D01*
X255478Y41382D01*
X255434Y41282D01*
X255395Y41160D01*
X255361Y41021D01*
X256000Y41326D01*
X256005D01*
X256016Y41332D01*
X256038Y41343D01*
X256061Y41360D01*
X256127Y41393D01*
X256210Y41438D01*
X256299Y41482D01*
X256388Y41537D01*
X256471Y41593D01*
X256543Y41643D01*
X256538Y41648D01*
X256510Y41671D01*
X256471Y41698D01*
X256410Y41732D01*
X256338Y41759D01*
X256255Y41787D01*
X256155Y41809D01*
X256038Y41815D01*
D02*
G37*
G36*
X265629D02*
X265618D01*
X265584Y41809D01*
X265540Y41804D01*
X265479Y41793D01*
X265412Y41765D01*
X265340Y41732D01*
X265268Y41682D01*
X265201Y41615D01*
X265196Y41604D01*
X265174Y41576D01*
X265146Y41532D01*
X265107Y41465D01*
X265068Y41382D01*
X265024Y41282D01*
X264985Y41160D01*
X264952Y41021D01*
X265590Y41326D01*
X265596D01*
X265607Y41332D01*
X265629Y41343D01*
X265651Y41360D01*
X265718Y41393D01*
X265801Y41438D01*
X265890Y41482D01*
X265979Y41537D01*
X266062Y41593D01*
X266134Y41643D01*
X266128Y41648D01*
X266101Y41671D01*
X266062Y41698D01*
X266001Y41732D01*
X265929Y41759D01*
X265845Y41787D01*
X265745Y41809D01*
X265629Y41815D01*
D02*
G37*
G36*
X283030Y35358D02*
X282991D01*
X282963Y35353D01*
X282930Y35347D01*
X282891Y35336D01*
X282802Y35308D01*
X282758Y35286D01*
X282702Y35258D01*
X282652Y35231D01*
X282603Y35192D01*
X282553Y35142D01*
X282503Y35092D01*
X282453Y35031D01*
X282408Y34959D01*
Y34953D01*
X282403Y34942D01*
X282392Y34925D01*
X282381Y34898D01*
X282364Y34870D01*
X282347Y34831D01*
X282330Y34787D01*
X282314Y34742D01*
X282281Y34626D01*
X282247Y34498D01*
X282225Y34359D01*
X282220Y34204D01*
Y34198D01*
Y34176D01*
Y34137D01*
X282225Y34093D01*
Y34032D01*
X282231Y33965D01*
X282236Y33893D01*
X282242Y33815D01*
X282264Y33643D01*
X282297Y33471D01*
X282342Y33310D01*
X282369Y33233D01*
X282403Y33166D01*
Y33160D01*
X282414Y33149D01*
X282425Y33133D01*
X282436Y33110D01*
X282480Y33055D01*
X282541Y32994D01*
X282625Y32933D01*
X282719Y32877D01*
X282774Y32855D01*
X282830Y32838D01*
X282897Y32827D01*
X282963Y32822D01*
X282985D01*
X283008Y32827D01*
X283035D01*
X283074Y32838D01*
X283113Y32850D01*
X283163Y32866D01*
X283208Y32883D01*
X283263Y32911D01*
X283313Y32944D01*
X283368Y32988D01*
X283418Y33033D01*
X283468Y33094D01*
X283518Y33160D01*
X283563Y33238D01*
X283601Y33327D01*
Y33332D01*
X283607Y33344D01*
X283613Y33360D01*
X283624Y33388D01*
X283635Y33427D01*
X283646Y33466D01*
X283657Y33516D01*
X283674Y33571D01*
X283685Y33632D01*
X283696Y33699D01*
X283707Y33771D01*
X283718Y33854D01*
X283735Y34026D01*
X283740Y34220D01*
Y34226D01*
Y34248D01*
Y34276D01*
Y34315D01*
X283735Y34359D01*
X283729Y34415D01*
X283724Y34476D01*
X283718Y34537D01*
X283696Y34676D01*
X283668Y34820D01*
X283624Y34953D01*
X283596Y35014D01*
X283563Y35070D01*
Y35075D01*
X283557Y35081D01*
X283529Y35114D01*
X283490Y35158D01*
X283429Y35214D01*
X283357Y35269D01*
X283263Y35314D01*
X283157Y35347D01*
X283097Y35353D01*
X283030Y35358D01*
D02*
G37*
G36*
X290483D02*
X290445D01*
X290417Y35353D01*
X290384Y35347D01*
X290345Y35336D01*
X290256Y35308D01*
X290212Y35286D01*
X290156Y35258D01*
X290106Y35231D01*
X290056Y35192D01*
X290006Y35142D01*
X289956Y35092D01*
X289906Y35031D01*
X289862Y34959D01*
Y34953D01*
X289856Y34942D01*
X289845Y34925D01*
X289834Y34898D01*
X289818Y34870D01*
X289801Y34831D01*
X289784Y34787D01*
X289768Y34742D01*
X289734Y34626D01*
X289701Y34498D01*
X289679Y34359D01*
X289673Y34204D01*
Y34198D01*
Y34176D01*
Y34137D01*
X289679Y34093D01*
Y34032D01*
X289684Y33965D01*
X289690Y33893D01*
X289695Y33815D01*
X289718Y33643D01*
X289751Y33471D01*
X289795Y33310D01*
X289823Y33233D01*
X289856Y33166D01*
Y33160D01*
X289867Y33149D01*
X289879Y33133D01*
X289890Y33110D01*
X289934Y33055D01*
X289995Y32994D01*
X290078Y32933D01*
X290173Y32877D01*
X290228Y32855D01*
X290284Y32838D01*
X290350Y32827D01*
X290417Y32822D01*
X290439D01*
X290461Y32827D01*
X290489D01*
X290528Y32838D01*
X290567Y32850D01*
X290617Y32866D01*
X290661Y32883D01*
X290717Y32911D01*
X290767Y32944D01*
X290822Y32988D01*
X290872Y33033D01*
X290922Y33094D01*
X290972Y33160D01*
X291016Y33238D01*
X291055Y33327D01*
Y33332D01*
X291061Y33344D01*
X291066Y33360D01*
X291077Y33388D01*
X291089Y33427D01*
X291100Y33466D01*
X291111Y33516D01*
X291127Y33571D01*
X291138Y33632D01*
X291149Y33699D01*
X291161Y33771D01*
X291172Y33854D01*
X291188Y34026D01*
X291194Y34220D01*
Y34226D01*
Y34248D01*
Y34276D01*
Y34315D01*
X291188Y34359D01*
X291183Y34415D01*
X291177Y34476D01*
X291172Y34537D01*
X291149Y34676D01*
X291122Y34820D01*
X291077Y34953D01*
X291050Y35014D01*
X291016Y35070D01*
Y35075D01*
X291011Y35081D01*
X290983Y35114D01*
X290944Y35158D01*
X290883Y35214D01*
X290811Y35269D01*
X290717Y35314D01*
X290611Y35347D01*
X290550Y35353D01*
X290483Y35358D01*
D02*
G37*
G36*
X258414Y42875D02*
X258292D01*
X258186Y42869D01*
X258136Y42864D01*
X258098Y42858D01*
X258092Y42486D01*
X258048Y41671D01*
X258059D01*
X258092Y41665D01*
X258142D01*
X258197Y41659D01*
X258253Y41654D01*
X258303Y41648D01*
X258381D01*
X258397Y41654D01*
X258419D01*
X258475Y41665D01*
X258547Y41682D01*
X258630Y41704D01*
X258719Y41737D01*
X258802Y41787D01*
X258886Y41843D01*
X258897Y41854D01*
X258919Y41876D01*
X258952Y41920D01*
X258997Y41976D01*
X259035Y42042D01*
X259069Y42131D01*
X259091Y42226D01*
X259102Y42331D01*
Y42342D01*
X259097Y42364D01*
X259091Y42403D01*
X259074Y42453D01*
X259047Y42509D01*
X259008Y42570D01*
X258952Y42636D01*
X258880Y42703D01*
X258869Y42708D01*
X258841Y42731D01*
X258797Y42758D01*
X258741Y42792D01*
X258669Y42819D01*
X258591Y42847D01*
X258503Y42869D01*
X258414Y42875D01*
D02*
G37*
G36*
X269292D02*
X269170D01*
X269064Y42869D01*
X269014Y42864D01*
X268975Y42858D01*
X268970Y42486D01*
X268926Y41671D01*
X268937D01*
X268970Y41665D01*
X269020D01*
X269075Y41659D01*
X269131Y41654D01*
X269181Y41648D01*
X269259D01*
X269275Y41654D01*
X269297D01*
X269353Y41665D01*
X269425Y41682D01*
X269508Y41704D01*
X269597Y41737D01*
X269680Y41787D01*
X269764Y41843D01*
X269775Y41854D01*
X269797Y41876D01*
X269830Y41920D01*
X269875Y41976D01*
X269914Y42042D01*
X269947Y42131D01*
X269969Y42226D01*
X269980Y42331D01*
Y42342D01*
X269974Y42364D01*
X269969Y42403D01*
X269952Y42453D01*
X269924Y42509D01*
X269886Y42570D01*
X269830Y42636D01*
X269758Y42703D01*
X269747Y42708D01*
X269719Y42731D01*
X269675Y42758D01*
X269619Y42792D01*
X269547Y42819D01*
X269469Y42847D01*
X269381Y42869D01*
X269292Y42875D01*
D02*
G37*
G36*
X248019Y41815D02*
X248008D01*
X247974Y41809D01*
X247930Y41804D01*
X247869Y41793D01*
X247802Y41765D01*
X247730Y41732D01*
X247658Y41682D01*
X247591Y41615D01*
X247586Y41604D01*
X247564Y41576D01*
X247536Y41532D01*
X247497Y41465D01*
X247458Y41382D01*
X247414Y41282D01*
X247375Y41160D01*
X247342Y41021D01*
X247980Y41326D01*
X247985D01*
X247996Y41332D01*
X248019Y41343D01*
X248041Y41360D01*
X248108Y41393D01*
X248191Y41438D01*
X248280Y41482D01*
X248368Y41537D01*
X248452Y41593D01*
X248524Y41643D01*
X248518Y41648D01*
X248491Y41671D01*
X248452Y41698D01*
X248391Y41732D01*
X248318Y41759D01*
X248235Y41787D01*
X248135Y41809D01*
X248019Y41815D01*
D02*
G37*
G36*
X261106Y41748D02*
X261078D01*
X261056Y41743D01*
X261000Y41732D01*
X260928Y41709D01*
X260850Y41676D01*
X260773Y41626D01*
X260734Y41593D01*
X260695Y41554D01*
X260656Y41504D01*
X260623Y41454D01*
X260617Y41443D01*
X260601Y41410D01*
X260578Y41365D01*
X260556Y41299D01*
X260534Y41215D01*
X260512Y41127D01*
X260495Y41021D01*
X260490Y40910D01*
Y40905D01*
Y40899D01*
Y40883D01*
Y40860D01*
X260501Y40805D01*
X260512Y40738D01*
X260528Y40660D01*
X260556Y40583D01*
X260595Y40505D01*
X260650Y40439D01*
X260656Y40433D01*
X260673Y40416D01*
X260706Y40394D01*
X260745Y40372D01*
X260789Y40344D01*
X260845Y40322D01*
X260911Y40305D01*
X260978Y40300D01*
X261017D01*
X261056Y40311D01*
X261106Y40322D01*
X261167Y40339D01*
X261228Y40366D01*
X261294Y40405D01*
X261355Y40455D01*
X261361Y40466D01*
X261383Y40488D01*
X261411Y40527D01*
X261444Y40583D01*
X261477Y40649D01*
X261511Y40733D01*
X261533Y40827D01*
X261544Y40932D01*
Y40944D01*
Y40966D01*
Y41010D01*
Y41060D01*
X261539Y41121D01*
X261527Y41188D01*
X261500Y41337D01*
X261477Y41415D01*
X261450Y41487D01*
X261416Y41554D01*
X261372Y41621D01*
X261322Y41671D01*
X261261Y41709D01*
X261189Y41737D01*
X261106Y41748D01*
D02*
G37*
G36*
X292918Y42858D02*
X292879D01*
X292852Y42853D01*
X292818Y42847D01*
X292779Y42836D01*
X292691Y42808D01*
X292646Y42786D01*
X292591Y42758D01*
X292541Y42731D01*
X292491Y42692D01*
X292441Y42642D01*
X292391Y42592D01*
X292341Y42531D01*
X292297Y42459D01*
Y42453D01*
X292291Y42442D01*
X292280Y42425D01*
X292269Y42398D01*
X292252Y42370D01*
X292236Y42331D01*
X292219Y42287D01*
X292202Y42242D01*
X292169Y42126D01*
X292136Y41998D01*
X292113Y41859D01*
X292108Y41704D01*
Y41698D01*
Y41676D01*
Y41637D01*
X292113Y41593D01*
Y41532D01*
X292119Y41465D01*
X292125Y41393D01*
X292130Y41315D01*
X292152Y41143D01*
X292186Y40971D01*
X292230Y40810D01*
X292258Y40733D01*
X292291Y40666D01*
Y40660D01*
X292302Y40649D01*
X292313Y40633D01*
X292324Y40611D01*
X292369Y40555D01*
X292430Y40494D01*
X292513Y40433D01*
X292607Y40377D01*
X292663Y40355D01*
X292718Y40339D01*
X292785Y40327D01*
X292852Y40322D01*
X292874D01*
X292896Y40327D01*
X292924D01*
X292963Y40339D01*
X293002Y40350D01*
X293051Y40366D01*
X293096Y40383D01*
X293151Y40411D01*
X293201Y40444D01*
X293257Y40488D01*
X293307Y40533D01*
X293357Y40594D01*
X293407Y40660D01*
X293451Y40738D01*
X293490Y40827D01*
Y40832D01*
X293495Y40844D01*
X293501Y40860D01*
X293512Y40888D01*
X293523Y40927D01*
X293534Y40966D01*
X293545Y41016D01*
X293562Y41071D01*
X293573Y41132D01*
X293584Y41199D01*
X293595Y41271D01*
X293606Y41354D01*
X293623Y41526D01*
X293629Y41721D01*
Y41726D01*
Y41748D01*
Y41776D01*
Y41815D01*
X293623Y41859D01*
X293618Y41915D01*
X293612Y41976D01*
X293606Y42037D01*
X293584Y42176D01*
X293556Y42320D01*
X293512Y42453D01*
X293484Y42514D01*
X293451Y42570D01*
Y42575D01*
X293445Y42581D01*
X293418Y42614D01*
X293379Y42658D01*
X293318Y42714D01*
X293246Y42770D01*
X293151Y42814D01*
X293046Y42847D01*
X292985Y42853D01*
X292918Y42858D01*
D02*
G37*
G36*
X250477Y41820D02*
X250444D01*
X250422Y41815D01*
X250361Y41809D01*
X250283Y41787D01*
X250194Y41754D01*
X250106Y41709D01*
X250006Y41643D01*
X249961Y41598D01*
X249917Y41554D01*
Y41548D01*
X249906Y41543D01*
X249895Y41526D01*
X249878Y41510D01*
X249845Y41454D01*
X249800Y41376D01*
X249756Y41288D01*
X249723Y41182D01*
X249695Y41066D01*
X249684Y40938D01*
Y40932D01*
Y40921D01*
Y40905D01*
Y40883D01*
X249689Y40821D01*
X249700Y40749D01*
X249711Y40666D01*
X249734Y40577D01*
X249761Y40499D01*
X249800Y40427D01*
X249806Y40422D01*
X249822Y40400D01*
X249850Y40372D01*
X249895Y40344D01*
X249944Y40311D01*
X250006Y40283D01*
X250083Y40261D01*
X250167Y40255D01*
X250200D01*
X250239Y40261D01*
X250283Y40266D01*
X250339Y40272D01*
X250394Y40289D01*
X250450Y40305D01*
X250505Y40327D01*
X250511D01*
X250522Y40333D01*
X250538Y40344D01*
X250561Y40361D01*
X250594Y40383D01*
X250627Y40411D01*
X250672Y40444D01*
X250722Y40483D01*
Y40488D01*
Y40505D01*
X250716Y40538D01*
X250710Y40577D01*
X250705Y40622D01*
X250699Y40677D01*
X250694Y40733D01*
X250688Y40799D01*
X250677Y40932D01*
X250666Y41071D01*
X250660Y41204D01*
X250655Y41265D01*
Y41321D01*
Y41326D01*
Y41337D01*
Y41354D01*
Y41376D01*
X250660Y41443D01*
X250666Y41515D01*
Y41521D01*
Y41532D01*
X250672Y41554D01*
X250677Y41582D01*
Y41615D01*
X250683Y41654D01*
X250699Y41743D01*
X250694D01*
X250688Y41748D01*
X250655Y41765D01*
X250611Y41781D01*
X250566Y41798D01*
X250555Y41804D01*
X250533Y41809D01*
X250505Y41815D01*
X250477Y41820D01*
D02*
G37*
G36*
X273266D02*
X273232D01*
X273210Y41815D01*
X273149Y41809D01*
X273071Y41787D01*
X272983Y41754D01*
X272894Y41709D01*
X272794Y41643D01*
X272749Y41598D01*
X272705Y41554D01*
Y41548D01*
X272694Y41543D01*
X272683Y41526D01*
X272666Y41510D01*
X272633Y41454D01*
X272588Y41376D01*
X272544Y41288D01*
X272511Y41182D01*
X272483Y41066D01*
X272472Y40938D01*
Y40932D01*
Y40921D01*
Y40905D01*
Y40883D01*
X272478Y40821D01*
X272489Y40749D01*
X272500Y40666D01*
X272522Y40577D01*
X272550Y40499D01*
X272588Y40427D01*
X272594Y40422D01*
X272611Y40400D01*
X272639Y40372D01*
X272683Y40344D01*
X272733Y40311D01*
X272794Y40283D01*
X272872Y40261D01*
X272955Y40255D01*
X272988D01*
X273027Y40261D01*
X273071Y40266D01*
X273127Y40272D01*
X273182Y40289D01*
X273238Y40305D01*
X273293Y40327D01*
X273299D01*
X273310Y40333D01*
X273327Y40344D01*
X273349Y40361D01*
X273382Y40383D01*
X273415Y40411D01*
X273460Y40444D01*
X273510Y40483D01*
Y40488D01*
Y40505D01*
X273504Y40538D01*
X273499Y40577D01*
X273493Y40622D01*
X273488Y40677D01*
X273482Y40733D01*
X273477Y40799D01*
X273465Y40932D01*
X273454Y41071D01*
X273449Y41204D01*
X273443Y41265D01*
Y41321D01*
Y41326D01*
Y41337D01*
Y41354D01*
Y41376D01*
X273449Y41443D01*
X273454Y41515D01*
Y41521D01*
Y41532D01*
X273460Y41554D01*
X273465Y41582D01*
Y41615D01*
X273471Y41654D01*
X273488Y41743D01*
X273482D01*
X273477Y41748D01*
X273443Y41765D01*
X273399Y41781D01*
X273354Y41798D01*
X273343Y41804D01*
X273321Y41809D01*
X273293Y41815D01*
X273266Y41820D01*
D02*
G37*
G36*
X268898Y41232D02*
Y41227D01*
Y41221D01*
Y41188D01*
X268892Y41138D01*
Y41071D01*
Y40999D01*
X268887Y40921D01*
Y40838D01*
Y40760D01*
Y40333D01*
X268937D01*
X268975Y40339D01*
X269025D01*
X269075Y40344D01*
X269137Y40350D01*
X269203Y40361D01*
X269342Y40377D01*
X269492Y40405D01*
X269636Y40439D01*
X269775Y40483D01*
X269780Y40488D01*
X269797Y40494D01*
X269830Y40505D01*
X269864Y40527D01*
X269908Y40549D01*
X269958Y40583D01*
X270008Y40616D01*
X270058Y40660D01*
X270063Y40666D01*
X270080Y40677D01*
X270097Y40699D01*
X270124Y40721D01*
X270146Y40744D01*
X270163Y40771D01*
X270180Y40799D01*
X270185Y40821D01*
Y40827D01*
X270180Y40838D01*
X270169Y40860D01*
X270152Y40888D01*
X270119Y40921D01*
X270069Y40960D01*
X270041Y40977D01*
X270002Y40999D01*
X269963Y41021D01*
X269914Y41043D01*
X269902Y41049D01*
X269880Y41060D01*
X269841Y41077D01*
X269791Y41099D01*
X269730Y41121D01*
X269664Y41143D01*
X269525Y41182D01*
X269303Y41221D01*
X269259D01*
X269220Y41215D01*
X269064D01*
X269031Y41221D01*
X268987D01*
X268898Y41232D01*
D02*
G37*
G36*
X252708Y41732D02*
X252670D01*
X252642Y41726D01*
X252609D01*
X252570Y41721D01*
X252481Y41698D01*
X252381Y41671D01*
X252276Y41626D01*
X252176Y41565D01*
X252131Y41526D01*
X252087Y41482D01*
X252081Y41471D01*
X252059Y41443D01*
X252026Y41393D01*
X251993Y41326D01*
X251954Y41249D01*
X251926Y41149D01*
X251904Y41038D01*
X251893Y40916D01*
Y40910D01*
Y40905D01*
Y40871D01*
X251898Y40821D01*
X251909Y40760D01*
X251920Y40694D01*
X251937Y40627D01*
X251965Y40561D01*
X252004Y40505D01*
X252009Y40499D01*
X252026Y40483D01*
X252053Y40461D01*
X252092Y40439D01*
X252142Y40416D01*
X252198Y40394D01*
X252270Y40377D01*
X252353Y40372D01*
X252364D01*
X252392Y40377D01*
X252431Y40383D01*
X252486Y40400D01*
X252548Y40422D01*
X252620Y40461D01*
X252692Y40511D01*
X252769Y40583D01*
X252775Y40594D01*
X252797Y40616D01*
X252831Y40655D01*
X252864Y40705D01*
X252903Y40766D01*
X252936Y40832D01*
X252958Y40905D01*
X252975Y40977D01*
Y40988D01*
X252980Y41016D01*
X252992Y41066D01*
X253003Y41132D01*
X253019Y41221D01*
X253036Y41332D01*
X253053Y41460D01*
X253064Y41537D01*
X253075Y41615D01*
X253069D01*
X253058Y41626D01*
X253041Y41632D01*
X253019Y41648D01*
X252958Y41676D01*
X252892Y41698D01*
X252886D01*
X252875Y41704D01*
X252858Y41709D01*
X252836Y41715D01*
X252775Y41726D01*
X252708Y41732D01*
D02*
G37*
G36*
X244927Y41232D02*
Y41227D01*
Y41221D01*
Y41188D01*
X244922Y41138D01*
Y41071D01*
Y40999D01*
X244916Y40921D01*
Y40838D01*
Y40760D01*
Y40333D01*
X244966D01*
X245005Y40339D01*
X245055D01*
X245105Y40344D01*
X245166Y40350D01*
X245233Y40361D01*
X245371Y40377D01*
X245521Y40405D01*
X245666Y40439D01*
X245804Y40483D01*
X245810Y40488D01*
X245827Y40494D01*
X245860Y40505D01*
X245893Y40527D01*
X245937Y40549D01*
X245987Y40583D01*
X246037Y40616D01*
X246087Y40660D01*
X246093Y40666D01*
X246110Y40677D01*
X246126Y40699D01*
X246154Y40721D01*
X246176Y40744D01*
X246193Y40771D01*
X246209Y40799D01*
X246215Y40821D01*
Y40827D01*
X246209Y40838D01*
X246198Y40860D01*
X246182Y40888D01*
X246148Y40921D01*
X246098Y40960D01*
X246071Y40977D01*
X246032Y40999D01*
X245993Y41021D01*
X245943Y41043D01*
X245932Y41049D01*
X245910Y41060D01*
X245871Y41077D01*
X245821Y41099D01*
X245760Y41121D01*
X245693Y41143D01*
X245554Y41182D01*
X245333Y41221D01*
X245288D01*
X245249Y41215D01*
X245094D01*
X245061Y41221D01*
X245016D01*
X244927Y41232D01*
D02*
G37*
G36*
X258020D02*
Y41227D01*
Y41221D01*
Y41188D01*
X258014Y41138D01*
Y41071D01*
Y40999D01*
X258009Y40921D01*
Y40838D01*
Y40760D01*
Y40333D01*
X258059D01*
X258098Y40339D01*
X258147D01*
X258197Y40344D01*
X258258Y40350D01*
X258325Y40361D01*
X258464Y40377D01*
X258614Y40405D01*
X258758Y40439D01*
X258897Y40483D01*
X258902Y40488D01*
X258919Y40494D01*
X258952Y40505D01*
X258985Y40527D01*
X259030Y40549D01*
X259080Y40583D01*
X259130Y40616D01*
X259180Y40660D01*
X259185Y40666D01*
X259202Y40677D01*
X259219Y40699D01*
X259246Y40721D01*
X259269Y40744D01*
X259285Y40771D01*
X259302Y40799D01*
X259307Y40821D01*
Y40827D01*
X259302Y40838D01*
X259291Y40860D01*
X259274Y40888D01*
X259241Y40921D01*
X259191Y40960D01*
X259163Y40977D01*
X259124Y40999D01*
X259085Y41021D01*
X259035Y41043D01*
X259024Y41049D01*
X259002Y41060D01*
X258963Y41077D01*
X258913Y41099D01*
X258852Y41121D01*
X258786Y41143D01*
X258647Y41182D01*
X258425Y41221D01*
X258381D01*
X258342Y41215D01*
X258186D01*
X258153Y41221D01*
X258109D01*
X258020Y41232D01*
D02*
G37*
%LPD*%
D20*
X82500Y2500D02*
X302500D01*
Y22500D01*
X82500D02*
X302500D01*
X72500D02*
X82500D01*
X72500Y2500D02*
Y22500D01*
Y2500D02*
X82500D01*
M02*
